<?xml version="1.0" encoding="UTF-8" standalone="no"?><svg width="50" height="50" viewBox="0 0 13.229166 13.229167" version="1.1" xmlns="http://www.w3.org/2000/svg"><g><path style="fill:#000000;stroke-width:0.0659772" d="m 1.1448456,1.1188983 c -0.72774835,0 -1.14484576666667,0.550059 -1.14484576666667,1.197436 v 8.7143867 c 0,0.669839 0.45039459666667,1.079547 1.00615826666667,1.079547 H 11.050866 c 0.546434,0 1.007834,-0.4979 1.007834,-1.079547 V 9.1214598 c 0.675866,0 1.170467,-0.3807818 1.170467,-0.9527103 V 6.7804852 c 0,-0.6150085 -0.527499,-0.9527099 -1.170467,-0.9527099 V 5.0247856 4.2217546 c 0,-0.7617101 -0.504353,-1.2258352 -1.415478,-1.2258352 0,0 -0.0037,-0.5387477 -0.0037,-0.5707273 0,-0.7115369 -0.439992,-1.3062938 -1.1395748,-1.3062938 z m 0.080131,0.7755303 h 8.1660933 c 0.2514342,0 0.4622371,0.2118347 0.4622371,0.4487934 0,0.2692125 5.401e-4,0.6129782 5.401e-4,0.6526974 h -8.636116 c -0.29489677,0 -0.46064341,-0.1196137 -0.46064341,-0.5480892 0,-0.4308026 0.17297903,-0.5534016 0.46787631,-0.5534016 z m 4.6558376,3.0623208 v 4.07e-5 c 0.2336594,0.00128 0.4732104,0.014425 0.6843248,0.1006036 L 6.322007,5.9141587 C 5.9128394,5.7935386 5.5133669,5.8418551 5.3896464,5.868597 4.9034063,5.9736968 4.4993419,6.3129256 4.2978403,6.8029597 H 6.0088365 L 5.884819,7.3823906 H 4.164751 c -0.00797,0.1142675 -0.00665,0.2331037 0.0049,0.3559534 0.00212,0.022393 0.00484,0.044415 0.00756,0.066443 H 5.794429 L 5.6704518,8.3842178 H 4.332367 c 0.2623448,0.6045338 0.7908782,0.9744017 1.363951,1.0010095 0.2423615,0.00925 0.4567212,-0.043455 0.7522796,-0.1207892 L 6.653727,10.137425 c -0.3178621,0.146946 -0.6717159,0.125292 -1.0033388,0.126755 -1.1177707,0 -2.0624688,-0.7918774 -2.3718661,-1.8799622 H 2.7764871 V 7.8047869 H 3.178493 c -0.00434,-0.064169 -0.00731,-0.1287431 -0.00731,-0.1940972 -4e-7,-0.076971 0.00374,-0.1529911 0.00973,-0.2282991 H 2.7764871 V 6.8029597 H 3.2885358 C 3.6078388,5.7325089 4.544352,4.9571578 5.6503903,4.9571578 c 0.075316,0 0.1525372,-7.892e-4 0.2304242,-4.109e-4 z M 9.636082,6.6171577 h 2.613161 c 0.09634,0 0.190542,0.087338 0.190542,0.1794276 V 8.169117 c 0,0.1005234 -0.09573,0.1901745 -0.190542,0.1901745 H 9.6360823 c -0.1021865,0 -0.1905832,-0.08502 -0.1905832,-0.1901745 V 6.7965853 c 0,-0.096654 0.085148,-0.1794276 0.1905829,-0.1794276 z m 0.641379,0.3914634 c -0.275145,0 -0.4981968,0.2230509 -0.4981968,0.4981956 0,0.2751465 0.2230518,0.4981962 0.4981968,0.4981962 0.275146,0 0.498196,-0.2230497 0.498196,-0.4981962 0,-0.2751447 -0.22305,-0.4981956 -0.498196,-0.4981956 z" /></g></svg>
