<svg width="40" height="40" viewBox="0 0 40 40" fill="none" xmlns="http://www.w3.org/2000/svg"><rect width="40" height="40" rx="3" fill="#BF333B"></rect><path d="M6 2h20c2.2 0 4 1.8 4 4v20c0 2.2-1.8 4-4 4H6c-2.2 0-4-1.8-4-4V6c0-2.2 1.8-4 4-4z"></path><path d="M13.2 16.1v9.7c0 .1.1.3.3.3h3.9c.2 0 .3-.1.3-.3V16h2.8c.1 0 .3-.1.3-.2l.3-3c0-.2-.1-.3-.3-.3h-3.1v-2.1c0-.5.4-.9 1-.9h2.2c.2 0 .3-.1.3-.3V6.3c-.2-.2-.3-.3-.5-.3h-3.6c-2.1 0-3.9 1.6-3.9 3.6v2.9h-1.9c-.2 0-.3.1-.3.3v3c0 .1.1.3.3.3h1.9z" style="fill-rule:evenodd;clip-rule:evenodd;fill:#fff"></path></svg>