<svg width="40" height="40" viewBox="0 0 40 40" fill="none" xmlns="http://www.w3.org/2000/svg"><rect width="40" height="40" rx="3" fill="#BF333B"></rect><path d="M20.0045 14.8723C17.1661 14.8723 14.8767 17.1617 14.8767 20C14.8767 22.8383 17.1661 25.1277 20.0045 25.1277C22.8428 25.1277 25.1322 22.8383 25.1322 20C25.1322 17.1617 22.8428 14.8723 20.0045 14.8723ZM20.0045 23.3337C18.1703 23.3337 16.6708 21.8387 16.6708 20C16.6708 18.1613 18.1658 16.6663 20.0045 16.6663C21.8431 16.6663 23.3382 18.1613 23.3382 20C23.3382 21.8387 21.8387 23.3337 20.0045 23.3337ZM26.538 14.6625C26.538 15.3275 26.0025 15.8585 25.342 15.8585C24.677 15.8585 24.1459 15.323 24.1459 14.6625C24.1459 14.002 24.6815 13.4665 25.342 13.4665C26.0025 13.4665 26.538 14.002 26.538 14.6625ZM29.9342 15.8764C29.8583 14.2742 29.4924 12.8551 28.3186 11.6858C27.1494 10.5166 25.7302 10.1506 24.1281 10.0703C22.4769 9.97657 17.5276 9.97657 15.8764 10.0703C14.2787 10.1462 12.8595 10.5121 11.6858 11.6814C10.5121 12.8506 10.1506 14.2698 10.0703 15.8719C9.97657 17.5232 9.97657 22.4724 10.0703 24.1236C10.1462 25.7258 10.5121 27.1449 11.6858 28.3142C12.8595 29.4834 14.2742 29.8494 15.8764 29.9297C17.5276 30.0234 22.4769 30.0234 24.1281 29.9297C25.7302 29.8538 27.1494 29.4879 28.3186 28.3142C29.4879 27.1449 29.8538 25.7258 29.9342 24.1236C30.0279 22.4724 30.0279 17.5276 29.9342 15.8764ZM27.801 25.8953C27.4529 26.7701 26.779 27.4439 25.8998 27.7965C24.5833 28.3186 21.4593 28.1981 20.0045 28.1981C18.5496 28.1981 15.4212 28.3142 14.1091 27.7965C13.2344 27.4484 12.5605 26.7745 12.208 25.8953C11.6858 24.5788 11.8063 21.4549 11.8063 20C11.8063 18.5451 11.6903 15.4167 12.208 14.1047C12.5561 13.2299 13.2299 12.5561 14.1091 12.2035C15.4256 11.6814 18.5496 11.8019 20.0045 11.8019C21.4593 11.8019 24.5878 11.6858 25.8998 12.2035C26.7745 12.5516 27.4484 13.2255 27.801 14.1047C28.3231 15.4212 28.2026 18.5451 28.2026 20C28.2026 21.4549 28.3231 24.5833 27.801 25.8953Z" fill="white"></path></svg>