<svg width="12.625139mm" height="8.2126713mm" viewBox="0 0 12.625139 8.2126713" version="1.1" xmlns="http://www.w3.org/2000/svg"><path d="M 3.3394543,3.0300766 V 1.2310072 H 2.4571629 v 0.8386577 l 0.8822914,0.9604117" style="fill:#ffffff;fill-opacity:1;fill-rule:evenodd;stroke:none;stroke-width:0.0135508"/><path d="m 2.5532376,3.6475452 1.161438,2.4200743 0.1357785,2.17e-4 c 0.344732,0.023236 0.5147947,0.3800048 0.4141122,0.6586355 H 4.0309509 3.1924281 3.1047548 L 2.0870911,4.6033494 1.358872,6.1160637 C 1.5792082,6.2266379 1.6737926,6.5018812 1.5927591,6.726472 H 1.0650915 0.5207566 0.13889536 L 1.6246033,3.6386421 0.6241492,1.5512392 C 0.4714317,1.2283512 0.67970659,0.95083126 0.93188687,0.91885142 0.87782103,0.82796633 0.84665243,0.72174175 0.84665243,0.60834883 0.84665243,0.27238428 1.1190236,1.4781727e-8 1.4549473,1.4781727e-8 1.7910067,1.4781727e-8 2.0633772,0.27238428 2.0633772,0.60834883 c 0,0.33596451 -0.2723705,0.60836227 -0.6084299,0.60836227 -0.00259,0 -0.0053,-1.084e-4 -0.00786,-1.626e-4 L 1.7712223,1.5694515 1.1680769,2.1257245 1.7231165,2.7321222 2.327346,2.1748461 3.2511026,3.1803546 C 3.548544,3.5504671 3.0268389,4.1399665 2.563673,3.6588194 L 2.553238,3.6475464" style="fill:#ffffff;fill-opacity:1;fill-rule:evenodd;stroke:none;stroke-width:0.0135508"/><path d="M 1.4473589,1.9874117 1.6233835,1.8266588 2.0519952,2.2959088 1.8761056,2.4566077 1.4473589,1.9874117" style="fill:#ffffff;fill-opacity:1;fill-rule:evenodd;stroke:none;stroke-width:0.0135508"/><path d="M 1.9040198,1.8393559 2.0647326,2.0153534 1.5954686,2.443951 1.4347565,2.2680077 1.9040198,1.8393559" style="fill:#ffffff;fill-opacity:1;fill-rule:evenodd;stroke:none;stroke-width:0.0135508"/><path d="m 5.3288447,1.1892843 v 4.4887499 c 0.546232,-0.5282088 0.9184715,-1.4941764 0.9184715,-2.2660969 0,-0.7719199 -0.3519136,-1.6850664 -0.9184715,-2.222653 z m 1.7236593,2.222653 c 0,1.3422731 -0.7881138,2.5972514 -1.8901983,3.3145347 H 4.5338199 V 0.09501814 H 5.1624407 C 6.2833613,0.8156351 7.052504,2.0696108 7.052504,3.4119373" style="fill:#ffffff;fill-opacity:1;fill-rule:evenodd;stroke:none;stroke-width:0.0135508"/><path d="m 11.429135,6.726472 -0.03171,-0.03038 C 10.923959,6.2415572 10.570826,5.7022363 10.335991,5.0903777 10.124464,4.5491461 10.017277,3.9840921 10.017277,3.4028856 c 0,-0.5993104 0.121821,-1.1812486 0.341615,-1.7378876 0.229008,-0.5805696 0.567506,-1.09327693 1.008855,-1.53468009 l 0.03537,-0.03529996 h 1.133252 l -0.319663,0.29149086 c -0.378338,0.3449622 -0.69773,0.74248789 -0.936765,1.19643909 -0.303132,0.5720462 -0.457339,1.1816687 -0.457339,1.8289894 0,0.6591643 0.163016,1.2762126 0.482407,1.8524871 0.247302,0.4413485 0.56439,0.832519 0.938528,1.1727251 L 12.561841,6.726472 H 11.42913" style="fill:#ffffff;fill-opacity:1;fill-rule:evenodd;stroke:none;stroke-width:0.0135508"/><path d="M 8.4898355,3.6445233 9.0406741,0.09501814 H 9.8618517 L 8.6769716,6.726472 H 8.3026988 L 7.1178187,0.09501814 h 0.821177 L 8.4898355,3.6445233" style="fill:#ffffff;fill-opacity:1;fill-rule:evenodd;stroke:none;stroke-width:0.0135508"/><path d="M 2.574704e-8,8.1981689 C 0.06206233,8.2032229 0.13117193,8.2067484 0.21708373,8.2067484 c 0.17765053,0 0.31722323,-0.04553 0.4019159,-0.1253986 0.081034,-0.081102 0.12155075,-0.189657 0.12155075,-0.3041475 0,-0.1168757 -0.0405186,-0.2063377 -0.11558822,-0.2754738 C 0.54623202,7.4277276 0.42332654,7.387238 0.25285767,7.387238 0.15976357,7.387238 0.07276764,7.395548 2.574704e-8,7.405137 Z M 6.7287758,7.4701802 h 0.2776551 v 0.076697 H 6.7287758 Z m -6.62023423,0.014823 c 0.0322534,-0.00592 0.081034,-0.011914 0.14783913,-0.011914 0.24933461,0 0.37210449,0.1228106 0.36966561,0.3088631 0,0.1979634 -0.12629353,0.3399343 -0.38999146,0.3387152 -0.0500041,0 -0.0966171,-0.00117 -0.12751328,-0.00598 z M 1.320253,7.853517 c 0,-0.1108861 -0.040654,-0.2468686 -0.2374101,-0.2468686 -0.078595,0 -0.1538017,0.019107 -0.20990148,0.054879 l 0.0262871,0.071576 C 0.94326646,7.7032476 1.0077701,7.6854044 1.0673935,7.6854044 1.2010043,7.6841717 1.2117096,7.7831735 1.2117096,7.818961 V 7.82971 C 0.95776784,7.82731 0.83120373,7.908413 0.83120373,8.046726 c 0,0.077551 0.0596253,0.165943 0.18971057,0.165943 0.092958,0 0.1632872,-0.046627 0.1967572,-0.090777 h 0.00364 l 0.00949,0.076277 h 0.098921 C 1.3226697,8.1576817 1.320229,8.1087618 1.320229,8.0575262 Z M 1.2140148,7.9990387 c 0,0.010749 -0.00123,0.022657 -0.00598,0.033387 -0.018971,0.046534 -0.071412,0.1001537 -0.1585438,0.1001537 -0.0596253,0 -0.10732242,-0.0334 -0.10732242,-0.1001537 0,-0.1073353 0.13591472,-0.1311577 0.27182872,-0.1276076 z M 1.5278506,7.5112646 v 0.1097206 h -0.095533 v 0.082267 h 0.095533 v 0.3089037 c 0,0.064421 0.011791,0.1193147 0.042817,0.1526633 0.025067,0.0298 0.068025,0.047847 0.120466,0.047847 0.044174,0 0.07995,-0.00709 0.1025796,-0.016888 l -0.00598,-0.081088 c -0.016666,0.00481 -0.035773,0.00836 -0.068026,0.00836 -0.066805,0 -0.085776,-0.047742 -0.085776,-0.1180407 V 7.703252 H 1.7972201 V 7.6209852 H 1.6339335 v -0.139532 z m 0.6558576,0.7014019 c 0.1538011,0 0.3172239,-0.099137 0.3172239,-0.3102314 0,-0.1681656 -0.1216857,-0.2957867 -0.3088224,-0.2957867 -0.1788703,0 -0.3172239,0.1205208 -0.3172239,0.3089038 0,0.1765393 0.1334752,0.2971143 0.3076033,0.2971143 z m 0.00123,-0.080085 c -0.1073224,0 -0.1979776,-0.083473 -0.1979776,-0.2217858 0,-0.1157103 0.065587,-0.2242247 0.2027204,-0.2242247 0.1395727,0 0.1991961,0.1193146 0.1991961,0.2206203 0,0.1443019 -0.094178,0.2253902 -0.2027197,0.2253902 z m 0.4591005,0.065586 H 2.7525829 V 7.8940744 c 0,-0.016685 0.00123,-0.0334 0.00475,-0.048864 0.015581,-0.082307 0.070464,-0.1383665 0.150278,-0.1383665 0.016802,0 0.028592,0.00117 0.040519,0.00351 V 7.6102035 c -0.010706,-0.0024 -0.020191,-0.00357 -0.032118,-0.00357 -0.075207,0 -0.1443161,0.050121 -0.1741275,0.1347627 h -0.00364 l -0.00351,-0.1204259 h -0.095397 c 0.00364,0.057228 0.00475,0.115656 0.00475,0.1896027 z M 3.593409,7.6209852 H 3.4848669 v 0.3447049 c 0,0.020216 -0.00475,0.039323 -0.010706,0.054787 -0.025067,0.053727 -0.082253,0.1025797 -0.1574596,0.1025797 -0.1061027,0 -0.146755,-0.077497 -0.146755,-0.1932071 V 7.6209865 H 3.0615397 v 0.3279698 c 0,0.2218394 0.1311719,0.2637115 0.2181679,0.2637115 0.116808,0 0.1837486,-0.066954 0.21356,-0.1194096 h 0.00228 l 0.00598,0.1049107 h 0.096617 c -0.00351,-0.046423 -0.00475,-0.098989 -0.00475,-0.1585852 z M 4.3316555,8.1981676 4.6525379,7.3943895 H 4.5368141 L 4.3817933,7.7998419 c -0.041874,0.1073496 -0.07873,0.2051723 -0.1050185,0.2946348 h -0.00228 C 4.2506418,8.003795 4.2194793,7.9119614 4.1789614,7.7974709 L 4.0395237,7.3943895 H 3.921361 L 4.2112123,8.1981676 Z M 5.2045963,7.932233 c 0.00364,-0.010688 0.00475,-0.026207 0.00475,-0.047644 0,-0.098975 -0.050004,-0.2779405 -0.2611234,-0.2779405 -0.1872723,0 -0.2981172,0.1431235 -0.2981172,0.3136195 0,0.1729891 0.1180271,0.2923987 0.3088219,0.2923987 0.1073224,0 0.1765669,-0.023976 0.2146442,-0.039489 l -0.019107,-0.077538 c -0.044038,0.017886 -0.094178,0.032179 -0.1811741,0.032179 -0.1192469,0 -0.215864,-0.065586 -0.2183029,-0.1955924 z M 4.7562011,7.8547368 c 0.00962,-0.071562 0.060846,-0.1717158 0.1836131,-0.1717158 0.1432319,0 0.1658617,0.1215908 0.1646425,0.1717158 z m 0.5532781,0.3147979 c 0.045394,0.025085 0.1086777,0.043132 0.1777867,0.043132 0.150278,0 0.2302279,-0.07648 0.2302279,-0.1743037 0,-0.088242 -0.05136,-0.1370932 -0.1623387,-0.1729349 -0.081033,-0.026195 -0.1215501,-0.047687 -0.1215501,-0.097769 0,-0.045301 0.035773,-0.081088 0.102579,-0.081088 0.060846,0 0.1097619,0.022712 0.1323911,0.03695 l 0.026158,-0.078717 c -0.034558,-0.021437 -0.09052,-0.038158 -0.1538017,-0.038158 -0.135914,0 -0.21356,0.079922 -0.21356,0.1729755 0,0.070302 0.05136,0.1287867 0.165861,0.163355 0.082254,0.025042 0.1180278,0.050121 0.1180278,0.102579 0,0.047699 -0.035773,0.087023 -0.120331,0.087023 -0.05732,0 -0.1193825,-0.022601 -0.1551564,-0.044149 z M 6.3721317,7.932233 c 0.00364,-0.010688 0.00475,-0.026207 0.00475,-0.047644 0,-0.098975 -0.050004,-0.2779405 -0.2611234,-0.2779405 -0.1871361,0 -0.2981172,0.1431235 -0.2981172,0.3136195 0,0.1729891 0.1181627,0.2923987 0.3089574,0.2923987 0.1073225,0 0.1764314,-0.023976 0.2145087,-0.039489 l -0.018971,-0.077538 c -0.044173,0.017886 -0.094314,0.032179 -0.1813097,0.032179 -0.1192469,0 -0.215864,-0.065586 -0.2181673,-0.1955924 z M 5.9237366,7.8547368 c 0.00962,-0.071562 0.060846,-0.1717158 0.1836131,-0.1717158 0.1432319,0 0.1658617,0.1215908 0.1646419,0.1717158 z M 6.5188867,8.1981676 H 6.6274283 V 7.344251 H 6.5188867 Z m 0.4067943,0 V 7.6209852 H 6.8170039 v 0.5771824 z m 0.1895756,-0.152609 c 0,0.056007 -0.00123,0.1108997 -0.00475,0.152609 h 0.094178 l 0.00475,-0.1013192 h 0.0024 c 0.051218,0.083486 0.1287324,0.1158181 0.2193869,0.1158181 0.1420122,0 0.2874119,-0.1050727 0.2874119,-0.3113969 0.00123,-0.1705502 -0.1108449,-0.2946212 -0.2707446,-0.2946212 -0.108406,0 -0.1823933,0.047742 -0.2216903,0.1144905 h -0.0024 V 7.344251 H 7.1152572 Z M 7.2237981,7.8726373 c 0,-0.017899 0.00351,-0.032179 0.00719,-0.044149 0.025067,-0.089462 0.102579,-0.1383672 0.1823933,-0.1383672 0.1252094,0 0.1956731,0.097864 0.1956731,0.2146985 0,0.1359282 -0.077646,0.22184 -0.2004159,0.22184 -0.091874,0 -0.1609833,-0.062049 -0.18009,-0.13006 -0.00364,-0.013079 -0.00475,-0.026207 -0.00475,-0.039323 z M 8.300679,7.8535182 c 0,-0.1108861 -0.040519,-0.2468686 -0.2372745,-0.2468686 -0.07873,0 -0.1538011,0.019107 -0.2099015,0.05488 l 0.026152,0.071576 c 0.044173,-0.029856 0.1085415,-0.047699 0.1681656,-0.047699 0.1336101,-0.00123 0.1443154,0.097768 0.1443154,0.1335559 v 0.010749 c -0.2539417,-0.0024 -0.3803703,0.078702 -0.3803703,0.2170153 0,0.077551 0.059625,0.165943 0.1895756,0.165943 0.093094,0 0.1634222,-0.046627 0.1968929,-0.090777 h 0.00339 l 0.00962,0.076277 h 0.098921 c -0.00704,-0.040488 -0.00949,-0.089408 -0.00949,-0.1406433 z M 8.1945764,7.9990399 c 0,0.010749 -0.00123,0.022657 -0.00598,0.033387 -0.019107,0.046534 -0.071549,0.1001537 -0.1585444,0.1001537 -0.059761,0 -0.1074574,-0.0334 -0.1074574,-0.1001537 0,-0.1073354 0.1360497,-0.1311578 0.2719637,-0.1276076 z m 0.2481148,0.170496 c 0.045258,0.025085 0.1085416,0.043132 0.1776506,0.043132 0.150278,0 0.2302279,-0.076481 0.2302279,-0.1743032 0,-0.088243 -0.051225,-0.1370931 -0.1622031,-0.1729355 -0.081169,-0.026195 -0.1216857,-0.047687 -0.1216857,-0.097768 0,-0.045301 0.035773,-0.081088 0.102579,-0.081088 0.060846,0 0.1097613,0.022712 0.132391,0.03695 l 0.026287,-0.078717 c -0.034688,-0.021437 -0.090655,-0.038158 -0.1539367,-0.038158 -0.1359147,0 -0.2134244,0.079922 -0.2134244,0.1729755 0,0.070302 0.051225,0.1287867 0.1657261,0.163355 0.082253,0.025042 0.1181627,0.050121 0.1181627,0.1025791 0,0.047699 -0.035915,0.087023 -0.1204666,0.087023 -0.05732,0 -0.1193825,-0.022601 -0.1551564,-0.044149 z m 1.4430223,-0.085803 c -0.05014,0.023859 -0.1252088,0.038158 -0.1991961,0.038158 -0.2265693,0 -0.3470359,-0.140806 -0.3470359,-0.3208282 0,-0.2004029 0.1323917,-0.3327262 0.3554373,-0.3327262 0.075207,0 0.1430963,0.016666 0.1884914,0.038102 l 0.027372,-0.085804 C 9.8797491,7.4051336 9.8058992,7.380036 9.6901754,7.380036 c -0.2898513,0 -0.4651986,0.1920416 -0.4651986,0.4222424 0,0.2611776 0.1897112,0.4103857 0.4389102,0.4103857 0.1145041,0 0.2028548,-0.023976 0.2444556,-0.044241 z M 10.542791,7.9322342 c 0.0036,-0.010687 0.0049,-0.026207 0.0049,-0.047643 0,-0.098975 -0.05014,-0.2779404 -0.261259,-0.2779404 -0.187136,0 -0.2979815,0.1431234 -0.2979815,0.3136194 0,0.1729891 0.1178915,0.2923987 0.3088225,0.2923987 0.107322,0 0.176431,-0.023976 0.214644,-0.039489 l -0.01911,-0.077538 c -0.04417,0.017886 -0.09418,0.032179 -0.181309,0.032179 -0.119247,0 -0.215864,-0.065586 -0.218168,-0.1955923 z M 10.094396,7.854738 c 0.0096,-0.071562 0.06085,-0.1717157 0.183748,-0.1717157 0.143097,0 0.165727,0.1215908 0.164507,0.1717157 z m 0.59515,0.3434309 h 0.108542 V 7.854738 c 0,-0.015501 0.0036,-0.034608 0.0084,-0.047742 0.02141,-0.057228 0.07981,-0.1121195 0.158679,-0.1121195 0.108542,0 0.151362,0.081156 0.151362,0.1825154 v 0.3207746 h 0.108542 V 7.8678119 c 0,-0.2170701 -0.145535,-0.2611647 -0.224265,-0.2611647 -0.106103,0 -0.18009,0.06087 -0.209902,0.1168757 h -0.0035 l -0.006,-0.1025389 h -0.09662 c 0.0036,0.048919 0.0047,0.1001543 0.0047,0.1586393 z m 0.745429,-0.6869031 v 0.1097207 h -0.0954 v 0.082264 h 0.0954 v 0.3089038 c 0,0.064421 0.01193,0.1193147 0.04295,0.1526633 0.02507,0.0298 0.06789,0.047847 0.120331,0.047847 0.04431,0 0.07995,-0.00709 0.102579,-0.016888 l -0.0059,-0.081088 c -0.0168,0.00481 -0.03577,0.00836 -0.06803,0.00836 -0.06681,0 -0.08591,-0.047742 -0.08591,-0.1180407 V 7.703252 h 0.163423 V 7.620985 H 11.540995 V 7.481453 Z m 0.401916,0.6869031 h 0.108542 V 7.8940756 c 0,-0.016684 0.0011,-0.0334 0.0047,-0.048864 0.01544,-0.082308 0.07033,-0.1383666 0.150278,-0.1383666 0.01667,0 0.02859,0.00117 0.04052,0.00351 V 7.6102047 c -0.01084,-0.0024 -0.02019,-0.00357 -0.03225,-0.00357 -0.07507,0 -0.144316,0.050127 -0.174127,0.1347628 h -0.0035 l -0.0036,-0.120426 h -0.0954 c 0.0036,0.057228 0.0049,0.1156561 0.0049,0.1896027 z m 0.38037,-0.028629 c 0.04539,0.025085 0.108542,0.043132 0.177651,0.043132 0.150414,0 0.230227,-0.076481 0.230227,-0.1743038 0,-0.088243 -0.05122,-0.1370931 -0.162202,-0.1729355 -0.08117,-0.026195 -0.121551,-0.047687 -0.121551,-0.097768 0,-0.045301 0.03564,-0.081088 0.102444,-0.081088 0.06085,0 0.109761,0.022712 0.132391,0.03695 l 0.02629,-0.078717 c -0.03455,-0.021437 -0.09065,-0.038158 -0.153936,-0.038158 -0.135914,0 -0.213425,0.079922 -0.213425,0.1729755 0,0.070302 0.05136,0.1287867 0.165861,0.163355 0.08225,0.025042 0.118028,0.050121 0.118028,0.102579 0,0.047699 -0.03577,0.087023 -0.120467,0.087023 -0.05718,0 -0.119246,-0.022601 -0.155156,-0.044149 l -0.02615,0.081102" style="fill:#ffffff;fill-opacity:1;fill-rule:nonzero;stroke:none;stroke-width:0.0135508"/></svg>
