<?xml version="1.0" encoding="UTF-8" standalone="no"?><svg version="1.1" width="50" height="50" viewBox="0 0 50 50" xmlns="http://www.w3.org/2000/svg"><path d="m 9.0622514,44.330465 v -2.577063 c 0,-0.985788 -0.6004806,-1.631305 -1.6313051,-1.631305 -0.5154125,0 -1.075861,0.170136 -1.4611691,0.730585 -0.3002405,-0.470376 -0.7305845,-0.730585 -1.3761011,-0.730585 -0.4303443,0 -0.8606885,0.130104 -1.2009608,0.600481 V 40.207165 H 2.4919947 v 4.1233 h 0.9007206 v -2.276822 c 0,-0.730585 0.3853083,-1.075861 0.9857887,-1.075861 0.6004804,0 0.9007207,0.385308 0.9007207,1.075861 v 2.276822 h 0.9007206 v -2.276822 c 0,-0.730585 0.430344,-1.075861 0.9857885,-1.075861 0.6004805,0 0.9007205,0.385308 0.9007205,1.075861 v 2.276822 z m 13.3606886,-4.1233 h -1.461169 v -1.245996 h -0.90072 v 1.245996 h -0.815653 v 0.815653 h 0.815653 v 1.891514 c 0,0.945756 0.385308,1.501201 1.416132,1.501201 0.385309,0 0.815653,-0.130104 1.115893,-0.300241 l -0.260208,-0.77562 c -0.260208,0.170136 -0.560448,0.215172 -0.77562,0.215172 -0.430345,0 -0.600481,-0.260208 -0.600481,-0.685548 v -1.846478 h 1.461169 v -0.815653 z m 7.646117,-0.09007 c -0.515412,0 -0.860688,0.260209 -1.07586,0.600481 v -0.515413 h -0.900721 v 4.1233 h 0.900721 v -2.321858 c 0,-0.685549 0.30024,-1.075861 0.860688,-1.075861 0.170136,0 0.385309,0.04503 0.560449,0.08507 l 0.260208,-0.860689 c -0.180144,-0.03503 -0.435348,-0.03503 -0.605485,-0.03503 z M 18.514814,40.54744 c -0.430345,-0.300241 -1.030825,-0.430345 -1.676341,-0.430345 -1.030825,0 -1.716374,0.515413 -1.716374,1.331065 0,0.685549 0.515413,1.075861 1.416133,1.200961 l 0.430345,0.04503 c 0.470376,0.08507 0.730584,0.215172 0.730584,0.430344 0,0.30024 -0.345276,0.515413 -0.945757,0.515413 -0.60048,0 -1.07586,-0.215173 -1.3761,-0.430345 l -0.430345,0.685549 c 0.470377,0.345276 1.115893,0.515412 1.761409,0.515412 1.200961,0 1.891514,-0.560448 1.891514,-1.331065 0,-0.730585 -0.560449,-1.115893 -1.416133,-1.245997 l -0.430345,-0.04503 c -0.385308,-0.04503 -0.685548,-0.130104 -0.685548,-0.385308 0,-0.300241 0.30024,-0.470377 0.775621,-0.470377 0.515412,0 1.030824,0.215173 1.291032,0.345277 z m 23.964172,-0.430345 c -0.515412,0 -0.860689,0.260209 -1.075861,0.600481 v -0.515413 h -0.90072 v 4.1233 h 0.90072 v -2.321858 c 0,-0.685549 0.30024,-1.075861 0.860689,-1.075861 0.170136,0 0.385308,0.04503 0.560448,0.08507 l 0.260208,-0.850681 c -0.17514,-0.04503 -0.430344,-0.04503 -0.605484,-0.04503 z m -11.509208,2.151722 c 0,1.245997 0.860689,2.146718 2.191753,2.146718 0.600481,0 1.030825,-0.130104 1.461169,-0.470377 l -0.430344,-0.730584 c -0.345276,0.260208 -0.685548,0.385308 -1.075861,0.385308 -0.730584,0 -1.245996,-0.515412 -1.245996,-1.331065 0,-0.775621 0.515412,-1.291033 1.245996,-1.331065 0.385309,0 0.730585,0.130104 1.075861,0.385308 L 34.6227,40.592476 c -0.430344,-0.345277 -0.860688,-0.470377 -1.461169,-0.470377 -1.331064,-0.005 -2.191753,0.900721 -2.191753,2.146718 z m 8.331666,0 v -2.06165 h -0.900721 v 0.515413 c -0.30024,-0.385309 -0.730584,-0.600481 -1.291032,-0.600481 -1.16093,0 -2.06165,0.900721 -2.06165,2.146718 0,1.245997 0.90072,2.146718 2.06165,2.146718 0.60048,0 1.030824,-0.215173 1.291032,-0.600481 v 0.515413 h 0.900721 z m -3.307647,0 c 0,-0.730585 0.470377,-1.331065 1.245998,-1.331065 0.730584,0 1.245996,0.560448 1.245996,1.331065 0,0.730585 -0.515412,1.331065 -1.245996,1.331065 -0.770617,-0.04503 -1.245998,-0.605484 -1.245998,-1.331065 z M 25.215174,40.117093 c -1.200961,0 -2.061649,0.860689 -2.061649,2.146718 0,1.291033 0.860688,2.146718 2.106685,2.146718 0.600481,0 1.200961,-0.170137 1.676341,-0.560449 l -0.430344,-0.645516 c -0.345276,0.260208 -0.77562,0.430344 -1.200961,0.430344 -0.560448,0 -1.115893,-0.260208 -1.245997,-0.985789 h 3.047439 c 0,-0.130104 0,-0.215172 0,-0.345276 0.04003,-1.326061 -0.735589,-2.18675 -1.891514,-2.18675 z m 0,0.775621 c 0.560449,0 0.945757,0.345276 1.030825,0.985788 h -2.146718 c 0.08507,-0.555444 0.470376,-0.985788 1.115893,-0.985788 z m 22.377903,1.376101 V 38.57586 h -0.90072 v 2.146718 c -0.300241,-0.385309 -0.730585,-0.600481 -1.291033,-0.600481 -1.160929,0 -2.06165,0.900721 -2.06165,2.146718 0,1.245997 0.900721,2.146718 2.06165,2.146718 0.60048,0 1.030824,-0.215173 1.291033,-0.600481 v 0.515413 h 0.90072 z m -3.307646,0 c 0,-0.730585 0.470376,-1.331065 1.245997,-1.331065 0.730584,0 1.245997,0.560448 1.245997,1.331065 0,0.730585 -0.515413,1.331065 -1.245997,1.331065 -0.775621,-0.04503 -1.245997,-0.605484 -1.245997,-1.331065 z m -30.154124,0 v -2.06165 h -0.900721 v 0.515413 c -0.30024,-0.385309 -0.730584,-0.600481 -1.291033,-0.600481 -1.160929,0 -2.0616491,0.900721 -2.0616491,2.146718 0,1.245997 0.9007201,2.146718 2.0616491,2.146718 0.600481,0 1.030825,-0.215173 1.291033,-0.600481 v 0.515413 h 0.900721 z m -3.347679,0 c 0,-0.730585 0.470376,-1.331065 1.245997,-1.331065 0.730585,0 1.245997,0.560448 1.245997,1.331065 0,0.730585 -0.515412,1.331065 -1.245997,1.331065 -0.775621,-0.04503 -1.245997,-0.605484 -1.245997,-1.331065 z" style="stroke-width:0.05004" /><g transform="matrix(0.05004003,0,0,0.05004003,1.012e-6,5.5844654)"><rect x="364" y="66.099998" fill="#ff5a00" width="270.39999" height="485.79999" />
<path fill="#eb001b" d="M 382,309 C 382,210.3 428.4,122.7 499.6,66.1 447.2,24.9 381.1,0 309,0 138.2,0 0,138.2 0,309 0,479.8 138.2,618 309,618 381.1,618 447.2,593.1 499.6,551.9 428.3,496.1 382,407.7 382,309 Z" /><path fill="#f79e1b" d="M 999.2,309 C 999.2,479.8 861,618 690.2,618 618.1,618 552,593.1 499.6,551.9 571.7,495.2 617.2,407.7 617.2,309 617.2,210.3 570.8,122.7 499.6,66.1 551.9,24.9 618,0 690.1,0 861,0 999.2,139.1 999.2,309 Z" /></g></svg>
