<?xml version="1.0" encoding="UTF-8" standalone="no"?><svg viewBox="0 0 50 50" version="1.1" width="50" height="50" xmlns="http://www.w3.org/2000/svg"><path fill="#1434cb" d="m 32.567067,16.899649 c -3.55005,0 -6.722723,1.840341 -6.722723,5.23974 0,3.898898 5.626627,4.168169 5.626627,6.127128 0,0.824824 -0.944945,1.563062 -2.55956,1.563062 -2.290791,0 -4.003003,-1.031531 -4.003003,-1.031531 l -0.732732,3.43093 c 0,0 1.972471,0.871373 4.591091,0.871373 3.881381,0 6.935935,-1.930431 6.935935,-5.38839 0,-4.12012 -5.650149,-4.381381 -5.650149,-6.199198 0,-0.646147 0.775775,-1.353854 2.385385,-1.353854 1.816317,0 3.297798,0.75025 3.297798,0.75025 l 0.717217,-3.313313 c 0,0 -1.612613,-0.696196 -3.886386,-0.696196 v 0 z M 0.08608609,17.1499 0,17.6499 c 0,0 1.4934934,0.273273 2.8388389,0.818819 1.7322321,0.625125 1.8553552,0.989489 2.1471471,2.119619 L 8.1646643,32.842091 H 12.425926 L 18.99049,17.1499 H 14.739239 L 10.521021,27.819068 8.7998,18.775025 C 8.6421421,17.73999 7.8423424,17.149399 6.8638638,17.149399 c 0,0 -6.77727721,0 -6.77727721,0 z m 20.61411391,0 -3.334834,15.692191 h 4.054053 L 24.742241,17.1499 Z m 22.610611,0 c -0.977478,0 -1.495496,0.523523 -1.875376,1.437938 l -5.939439,14.254253 h 4.25125 l 0.822324,-2.375875 h 5.179178 l 0.5,2.375875 H 50 L 46.727727,17.1499 Z m 0.553053,4.239739 1.260259,5.88839 h -3.375876 l 2.116117,-5.88839 v 0 z" style="stroke-width:0.05005" /></svg>