<svg width="24" height="24" viewBox="0 0 24 24" fill="none" xmlns="http://www.w3.org/2000/svg">
<g clip-path="url(#clip0_315_852)">
<path d="M8.89191 6.25729L6.79211 2.75762C6.5164 2.29811 5.92931 2.1405 5.48172 2.43516C4.40307 3.14529 2.59274 4.52982 2.18616 6.0463C1.60431 8.21652 3.65128 11.575 3.72596 11.6965L3.73051 11.7036C3.80876 11.8222 5.74058 14.7403 7.32569 16.3255C8.91084 17.9107 11.829 19.8425 11.9478 19.9209L11.9549 19.9255C12.0766 20.0003 15.4349 22.0468 17.6051 21.4652C19.1215 21.0589 20.5064 19.2492 21.2169 18.1708C21.5117 17.7232 21.3542 17.1359 20.8945 16.8602L17.3948 14.7603C16.9371 14.4857 16.3444 14.619 16.0483 15.0631L15.0728 16.5264C14.7677 16.984 14.1523 17.1089 13.7013 16.7941C12.6928 16.0901 10.9815 14.8416 9.89564 13.7558C8.80992 12.6701 7.56156 10.959 6.85753 9.95041C6.54264 9.49931 6.66771 8.88373 7.12557 8.57874L8.58881 7.60405C9.03318 7.30804 9.16662 6.71514 8.89191 6.25729Z" fill="white"/>
<path fill-rule="evenodd" clip-rule="evenodd" d="M5.06931 1.80874C5.90144 1.26091 6.95792 1.57625 7.43523 2.37176L9.53503 5.87143C10.0158 6.67267 9.78225 7.71024 9.00459 8.22825L7.54136 9.20295C7.4235 9.28146 7.40524 9.42475 7.47252 9.52113C8.17691 10.5302 9.39205 12.1915 10.426 13.2255C11.46 14.2595 13.1215 15.4748 14.1306 16.1791C14.2269 16.2464 14.3702 16.2281 14.4487 16.1103L15.4242 14.6471C15.9424 13.8698 16.9797 13.6366 17.7807 14.1172L21.2804 16.2171C22.0761 16.6945 22.3914 17.7513 21.8432 18.5834C21.4739 19.144 20.9201 19.9093 20.2492 20.5947C19.5911 21.2669 18.751 21.9347 17.7992 22.1897C16.4593 22.5488 14.8742 22.0921 13.7344 21.6383C12.5511 21.1672 11.6395 20.612 11.5622 20.5644L11.551 20.5576L11.5345 20.5469C11.4282 20.4767 8.44365 18.5041 6.79536 16.8558C5.1471 15.2075 3.1746 12.2229 3.10458 12.1168L3.0984 12.1075L3.08692 12.0893C3.03945 12.0121 2.48421 11.1005 2.01306 9.91712C1.55926 8.77733 1.10248 7.19211 1.46174 5.85209C1.71693 4.90025 2.385 4.06016 3.0574 3.40227C3.74306 2.73142 4.50863 2.17787 5.06931 1.80874ZM6.01741 3.04068C5.97445 3.02981 5.93374 3.03554 5.89413 3.06161C5.37616 3.40261 4.69724 3.89639 4.10642 4.47445C3.50235 5.06548 3.06196 5.67589 2.91057 6.24053C2.68799 7.07074 2.96377 8.24987 3.40666 9.36227C3.8185 10.3967 4.30523 11.2059 4.36081 11.2971C4.49287 11.4967 6.35418 14.2933 7.85603 15.7952C9.35795 17.2971 12.1547 19.1585 12.3543 19.2906C12.4457 19.3463 13.2549 19.8329 14.2892 20.2447C15.4016 20.6875 16.5807 20.9633 17.411 20.7408C17.9756 20.5895 18.5861 20.1493 19.1773 19.5454C19.7554 18.9548 20.2494 18.2761 20.5905 17.7582C20.6166 17.7186 20.6224 17.6779 20.6115 17.6349C20.5999 17.589 20.5678 17.5388 20.5087 17.5033L17.0089 15.4035C16.8945 15.3348 16.7463 15.3681 16.6723 15.4791L15.6968 16.9424C15.1652 17.7398 14.0776 17.9714 13.272 17.4091C12.264 16.7055 10.5029 15.4238 9.3653 14.2861C8.22778 13.1486 6.94619 11.3877 6.24254 10.3797C5.68004 9.57389 5.91193 8.48603 6.70978 7.95456L8.17301 6.97987C8.28411 6.90586 8.31747 6.75764 8.24879 6.64318L6.14899 3.1435C6.11352 3.0844 6.06328 3.05229 6.01741 3.04068Z" fill="white"/>
<path fill-rule="evenodd" clip-rule="evenodd" d="M12.2557 5.90757C12.3067 5.49652 12.6813 5.20466 13.0924 5.2557L13 5.99999C13.0924 5.2557 13.0927 5.25574 13.093 5.25578L13.0936 5.25586L13.095 5.25603L13.0983 5.25645L13.1068 5.25759L13.1314 5.26113C13.1512 5.26409 13.1776 5.26832 13.2103 5.27411C13.2758 5.28569 13.3663 5.30355 13.479 5.33017C13.7042 5.3834 14.0182 5.47178 14.396 5.6153C15.1521 5.90249 16.1643 6.41067 17.2301 7.29882C18.297 8.18792 18.9196 9.04281 19.2783 9.69864C19.4571 10.0257 19.5691 10.3008 19.6379 10.503C19.6723 10.604 19.6959 10.6867 19.7116 10.7484C19.7195 10.7792 19.7254 10.8048 19.7297 10.8249L19.735 10.8507L19.7369 10.8604L19.7377 10.8645L19.738 10.8663L19.7381 10.8672C19.7382 10.8676 19.7383 10.868 19 11L19.7383 10.868C19.8112 11.2757 19.5397 11.6654 19.132 11.7383C18.7272 11.8107 18.3403 11.5437 18.2633 11.1409C18.2628 11.1382 18.2611 11.1308 18.2581 11.1189C18.2517 11.0938 18.2392 11.0488 18.2179 10.9862C18.1754 10.8612 18.0975 10.6657 17.9623 10.4184C17.6928 9.92581 17.1903 9.21821 16.2699 8.45115C15.3483 7.68316 14.4855 7.25384 13.8634 7.01756C13.5522 6.89935 13.3013 6.82951 13.1339 6.78995C13.0503 6.77018 12.9876 6.758 12.9489 6.75114C12.9295 6.74771 12.9161 6.74562 12.9091 6.74457L12.9037 6.74378C12.4947 6.69087 12.2048 6.31734 12.2557 5.90757Z" fill="white"/>
<path fill-rule="evenodd" clip-rule="evenodd" d="M12.2582 1.88945C12.3192 1.47976 12.7008 1.19713 13.1105 1.25817L13 1.99998C13.1105 1.25817 13.1109 1.25822 13.1112 1.25827L13.112 1.25839L13.1137 1.25865L13.1179 1.2593L13.1292 1.26111L13.1632 1.26697C13.1908 1.27194 13.2284 1.27913 13.2753 1.2891C13.3691 1.30902 13.5003 1.34005 13.6643 1.38657C13.9924 1.47961 14.4519 1.63471 15.0057 1.88713C16.1145 2.39253 17.5966 3.28594 19.1553 4.84465C20.714 6.40336 21.6074 7.88548 22.1128 8.99432C22.3653 9.5481 22.5204 10.0076 22.6134 10.3356C22.6599 10.4997 22.6909 10.6309 22.7109 10.7247C22.7208 10.7716 22.728 10.8092 22.733 10.8368L22.7389 10.8708L22.7407 10.8821L22.7413 10.8862L22.7416 10.888L22.7417 10.8887C22.7418 10.8891 22.7418 10.8895 22 11L22.7418 10.8895C22.8028 11.2991 22.5202 11.6807 22.1105 11.7418C21.702 11.8027 21.3213 11.5218 21.2587 11.1139C21.2587 11.1139 21.2587 11.1139 21.2587 11.1139C21.2587 11.1139 21.2587 11.1138 21.2587 11.1138L21.2567 11.1023C21.2544 11.0898 21.2502 11.0676 21.2436 11.0364C21.2304 10.974 21.2073 10.8753 21.1703 10.7449C21.0963 10.4841 20.9666 10.0963 20.7479 9.61644C20.3111 8.65804 19.517 7.32766 18.0947 5.90531C16.6723 4.48295 15.3419 3.68886 14.3835 3.25203C13.9037 3.03333 13.5159 2.90363 13.255 2.82965C13.1246 2.79266 13.026 2.76962 12.9636 2.75636C12.9324 2.74973 12.9102 2.74555 12.8977 2.74329M12.2582 1.88945C12.1973 2.29799 12.4782 2.67859 12.886 2.74127Z" fill="white"/>
</g>
<defs>
<clipPath id="clip0_315_852">
<rect width="24" height="24" fill="white"/>
</clipPath>
</defs>
</svg>
