<svg width="12.625139mm" height="8.2126713mm" viewBox="0 0 12.625139 8.2126713" version="1.1" xmlns="http://www.w3.org/2000/svg"><g transform="matrix(0.61634562,0,0,0.61634562,2.8983086,1.0846806)"><path d="M 0.715744,3.1563395 V 0.23740995 H -0.715744 V 1.5981039 l 1.431488,1.5582356" style="fill:#ed1c24;fill-opacity:1;fill-rule:evenodd;stroke:none;stroke-width:0.0219857"/><path d="m -0.559866,4.1581615 1.884394,3.926489 0.220296,3.52e-4 c 0.559316,0.0377 0.835237,0.616545 0.671883,1.068614 H 1.837674 0.477199 0.334952 l -1.651125,-3.444695 -1.181511,2.454328 c 0.357488,0.179403 0.510948,0.625976 0.379474,0.990367 h -0.856123 -0.883165 -0.619557 l 2.410511,-5.0099 -1.623203,-3.38674085 c -0.247779,-0.5238749 0.09014,-0.9741417 0.499294,-1.0260279 -0.08772,-0.147458 -0.13829,-0.3198038 -0.13829,-0.50378 0,-0.54509115 0.441913,-0.98702545 0.986938,-0.98702545 0.545245,0 0.987157,0.4419343 0.987157,0.98702545 0,0.5450911 -0.441912,0.9870473 -0.987157,0.9870473 -0.0042,0 -0.0086,-1.759e-4 -0.01275,-2.638e-4 l 0.525898,0.5725732 -0.978583,0.90253425 0.900533,0.9838598 0.980342,-0.9041617 1.498764,1.6314037 c 0.482586,0.600495 -0.363863,1.556938 -1.115334,0.776293 l -0.01693,-0.01829" style="fill:#173e7d;fill-opacity:1;fill-rule:evenodd;stroke:none;stroke-width:0.0219857" /><path d="M -2.354117,1.4646508 -2.068523,1.2038346 -1.373115,1.965177 -1.65849,2.2259055 -2.354117,1.4646508" style="fill:#ed1c24;fill-opacity:1;fill-rule:evenodd;stroke:none;stroke-width:0.0219857"/><path d="M -1.6132,1.2244352 -1.352449,1.5099853 -2.113814,2.2053705 -2.374564,1.9199084 -1.6132,1.2244352" style="fill:#ed1c24;fill-opacity:1;fill-rule:evenodd;stroke:none;stroke-width:0.0219857" /><path d="M 3.943463,0.16971605 V 7.4525615 c 0.886243,-0.857001 1.490189,-2.424251 1.490189,-3.676666 0,-1.252414 -0.570968,-2.7339634 -1.490189,-3.60617945 z M 6.740042,3.7758955 c 0,2.177793 -1.278688,4.213953 -3.066783,5.377721 H 2.653562 V -1.605694 h 1.019916 c 1.818656,1.16917675 3.066564,3.20371 3.066564,5.3815895" style="fill:#173e7d;fill-opacity:1;fill-rule:evenodd;stroke:none;stroke-width:0.0219857"/><path d="m 13.840978,9.1536165 -0.05145,-0.04929 c -0.76818,-0.737468 -1.341127,-1.612498 -1.722139,-2.605218 -0.343196,-0.87813 -0.517103,-1.794911 -0.517103,-2.737899 0,-0.972361 0.197651,-1.9165361 0.554259,-2.81966405 0.371558,-0.9419546035 0.92076,-1.773805 1.636834,-2.48996675 l 0.05738,-0.057273 h 1.838663 l -0.518643,0.4729341 c -0.61384,0.55968955 -1.132043,1.20466165 -1.51987,1.94118215 -0.49182,0.92812565 -0.742017,1.91721755 -0.742017,2.96747355 0,1.069472 0.264488,2.070612 0.78269,3.005598 0.401239,0.716073 0.915704,1.350734 1.522729,1.902707 l 0.516444,0.469416 h -1.837784" style="fill:#173e7d;fill-opacity:1;fill-rule:evenodd;stroke:none;stroke-width:0.0219857" /><path d="M 9.072064,4.1532585 9.965781,-1.605694 h 1.332333 L 9.375686,9.1536165 H 8.768441 L 6.846013,-1.605694 h 1.332332 l 0.893719,5.7589525" style="fill:#173e7d;fill-opacity:1;fill-rule:evenodd;stroke:none;stroke-width:0.0219857"/><path d="m -4.702408,11.541395 c 0.100694,0.0082 0.212822,0.01392 0.352211,0.01392 0.288232,0 0.514684,-0.07387 0.652095,-0.203455 0.131475,-0.131585 0.197212,-0.307712 0.197212,-0.493469 0,-0.189627 -0.06574,-0.334776 -0.187538,-0.446947 -0.127737,-0.120064 -0.327147,-0.185757 -0.603727,-0.185757 -0.151042,0 -0.29219,0.01348 -0.410253,0.02904 z M 6.214804,10.360258 H 6.66529 v 0.124438 H 6.214804 Z m -10.741107,0.02405 c 0.05233,-0.0096 0.131475,-0.01933 0.239864,-0.01933 0.404537,0 0.603727,0.199256 0.59977,0.50112 0,0.321189 -0.204907,0.551532 -0.632748,0.549554 -0.08113,0 -0.156758,-0.0019 -0.206886,-0.0097 z m 1.965961,0.597901 c 0,-0.179909 -0.06596,-0.400536 -0.38519,-0.400536 -0.127517,0 -0.249538,0.031 -0.340558,0.08904 l 0.04265,0.116129 c 0.07145,-0.04844 0.176105,-0.07739 0.272842,-0.07739 0.216779,-0.002 0.234148,0.158627 0.234148,0.216691 v 0.01744 c -0.412012,-0.0039 -0.617358,0.127693 -0.617358,0.352101 0,0.125824 0.09674,0.269237 0.307799,0.269237 0.150822,0 0.264928,-0.07565 0.319232,-0.147282 h 0.0059 l 0.01539,0.123757 h 0.160496 c -0.01143,-0.06569 -0.01539,-0.145061 -0.01539,-0.228189 z m -0.172368,0.236104 c 0,0.01744 -0.002,0.03676 -0.0097,0.05417 -0.03078,0.0755 -0.115864,0.162496 -0.257232,0.162496 -0.09674,0 -0.174127,-0.05419 -0.174127,-0.162496 0,-0.174148 0.220517,-0.212799 0.441033,-0.207039 z m 0.509188,-0.791397 v 0.178018 h -0.154999 v 0.133475 h 0.154999 v 0.501186 c 0,0.10452 0.01913,0.193584 0.06947,0.247691 0.04067,0.04835 0.110368,0.07763 0.195452,0.07763 0.07167,0 0.129716,-0.0115 0.166432,-0.0274 l -0.0097,-0.131563 c -0.02704,0.0078 -0.05804,0.01357 -0.110369,0.01357 -0.108389,0 -0.139169,-0.07746 -0.139169,-0.191517 v -0.489597 h 0.264927 v -0.133475 h -0.264927 v -0.226386 z m 1.064107,1.138001 c 0.249537,0 0.514685,-0.160847 0.514685,-0.50334 0,-0.272843 -0.197431,-0.479904 -0.501054,-0.479904 -0.290211,0 -0.514685,0.195541 -0.514685,0.501186 0,0.286429 0.216559,0.482058 0.499076,0.482058 z m 0.002,-0.129935 c -0.174127,0 -0.321212,-0.135432 -0.321212,-0.35984 0,-0.187736 0.106412,-0.363797 0.328907,-0.363797 0.226452,0 0.323189,0.193584 0.323189,0.357949 0,0.234125 -0.1528,0.365688 -0.328906,0.365688 z m 0.744875,0.106411 h 0.176105 v -0.493381 c 0,-0.02707 0.002,-0.05419 0.0077,-0.07928 0.02528,-0.133541 0.114325,-0.224495 0.243821,-0.224495 0.02726,0 0.04639,0.0019 0.06574,0.0057 v -0.162496 c -0.01737,-0.0039 -0.03276,-0.0058 -0.05211,-0.0058 -0.122021,0 -0.234148,0.08132 -0.282516,0.218648 h -0.0059 l -0.0057,-0.195387 h -0.154779 c 0.0059,0.09285 0.0077,0.187648 0.0077,0.307624 z M 1.127777,10.604934 H 0.951671 v 0.559272 c 0,0.0328 -0.0077,0.0638 -0.01737,0.08889 -0.04067,0.08717 -0.133453,0.166432 -0.255473,0.166432 -0.172148,0 -0.238105,-0.125736 -0.238105,-0.313472 v -0.50112 H 0.264837 v 0.53212 c 0,0.359927 0.212822,0.427863 0.35397,0.427863 0.189517,0 0.298126,-0.108631 0.346494,-0.193738 h 0.0037 l 0.0097,0.170214 h 0.156758 c -0.0057,-0.07532 -0.0077,-0.160606 -0.0077,-0.257299 z m 1.19778,0.936459 0.520621,-1.304103 H 2.65842 l -0.251516,0.657833 c -0.06794,0.174171 -0.127737,0.332885 -0.170389,0.478035 h -0.0037 C 2.194115,11.22603 2.143555,11.077033 2.077816,10.891276 L 1.851583,10.23729 H 1.659868 l 0.470274,1.304103 z m 1.416317,-0.43147 c 0.0059,-0.01734 0.0077,-0.04252 0.0077,-0.0773 0,-0.160584 -0.08113,-0.450949 -0.423664,-0.450949 -0.303843,0 -0.483685,0.232213 -0.483685,0.508837 0,0.280669 0.191495,0.474407 0.501053,0.474407 0.174127,0 0.286474,-0.0389 0.348253,-0.06407 l -0.031,-0.125802 c -0.07145,0.02902 -0.152801,0.05221 -0.293949,0.05221 -0.193474,0 -0.350232,-0.106411 -0.354189,-0.317342 z M 3.014368,10.984188 c 0.01561,-0.116107 0.09872,-0.278603 0.297906,-0.278603 0.232389,0 0.269105,0.197277 0.267127,0.278603 z m 0.897675,0.510749 c 0.07365,0.0407 0.176326,0.06998 0.288453,0.06998 0.243821,0 0.373537,-0.124087 0.373537,-0.282802 0,-0.14317 -0.08333,-0.222429 -0.263389,-0.280581 -0.131474,-0.0425 -0.197211,-0.07737 -0.197211,-0.158627 0,-0.0735 0.05804,-0.131562 0.166431,-0.131562 0.09872,0 0.178085,0.03685 0.2148,0.05995 L 4.537104,10.64358 C 4.481034,10.6088 4.390239,10.58167 4.287566,10.58167 c -0.220516,0 -0.346494,0.129671 -0.346494,0.280647 0,0.114062 0.08333,0.208952 0.269104,0.265038 0.133454,0.04063 0.191496,0.08132 0.191496,0.166431 0,0.07739 -0.05804,0.141192 -0.195233,0.141192 -0.093,0 -0.193694,-0.03667 -0.251736,-0.07163 z m 1.724118,-0.385014 c 0.0059,-0.01734 0.0077,-0.04252 0.0077,-0.0773 0,-0.160584 -0.08113,-0.450949 -0.423664,-0.450949 -0.303622,0 -0.483685,0.232213 -0.483685,0.508837 0,0.280669 0.191715,0.474407 0.501273,0.474407 0.174127,0 0.286254,-0.0389 0.348033,-0.06407 l -0.03078,-0.125802 c -0.07167,0.02902 -0.153021,0.05221 -0.294169,0.05221 -0.193474,0 -0.350232,-0.106411 -0.353969,-0.317342 z M 4.908655,10.984188 c 0.01561,-0.116107 0.09872,-0.278603 0.297906,-0.278603 0.232389,0 0.269105,0.197277 0.267126,0.278603 z m 0.965611,0.557205 H 6.050371 V 10.155942 H 5.874266 Z m 0.66001,0 V 10.604934 H 6.357951 v 0.936459 z m 0.30758,-0.247603 c 0,0.09087 -0.002,0.179931 -0.0077,0.247603 h 0.152801 l 0.0077,-0.164387 h 0.0039 c 0.0831,0.135453 0.208864,0.187911 0.355948,0.187911 0.23041,0 0.466316,-0.170477 0.466316,-0.505231 0.002,-0.276712 -0.179842,-0.478013 -0.439274,-0.478013 -0.175885,0 -0.295927,0.07746 -0.359685,0.185757 h -0.0039 V 10.155942 H 6.841857 Z m 0.176105,-0.280559 c 0,-0.02904 0.0057,-0.05221 0.01166,-0.07163 0.04067,-0.145149 0.166431,-0.224496 0.295927,-0.224496 0.203148,0 0.317473,0.158781 0.317473,0.348341 0,0.220539 -0.125978,0.359928 -0.325168,0.359928 -0.149063,0 -0.26119,-0.100672 -0.29219,-0.211018 -0.0059,-0.02122 -0.0077,-0.04252 -0.0077,-0.0638 z m 1.747203,-0.03102 c 0,-0.179909 -0.06574,-0.400536 -0.38497,-0.400536 -0.127736,0 -0.249537,0.031 -0.340558,0.08904 l 0.04243,0.116129 c 0.07167,-0.04844 0.176105,-0.07739 0.272843,-0.07739 0.216778,-0.002 0.234147,0.158626 0.234147,0.21669 v 0.01744 c -0.412012,-0.0039 -0.617138,0.127692 -0.617138,0.3521 0,0.125824 0.09674,0.269237 0.30758,0.269237 0.151041,0 0.265147,-0.07565 0.319452,-0.147282 h 0.0055 l 0.01561,0.123757 h 0.160496 c -0.01143,-0.06569 -0.01539,-0.145061 -0.01539,-0.228189 z m -0.172148,0.236104 c 0,0.01744 -0.002,0.03676 -0.0097,0.05417 -0.031,0.0755 -0.116085,0.162496 -0.257233,0.162496 -0.09696,0 -0.174346,-0.05419 -0.174346,-0.162496 0,-0.174148 0.220736,-0.212799 0.441252,-0.207039 z m 0.402558,0.276624 c 0.07343,0.0407 0.176105,0.06998 0.288232,0.06998 0.243821,0 0.373537,-0.124087 0.373537,-0.282801 0,-0.143171 -0.08311,-0.222429 -0.263169,-0.280582 -0.131694,-0.0425 -0.197431,-0.07737 -0.197431,-0.158626 0,-0.0735 0.05804,-0.131563 0.166431,-0.131563 0.09872,0 0.178084,0.03685 0.2148,0.05995 l 0.04265,-0.127715 c -0.05628,-0.03478 -0.147084,-0.06191 -0.249757,-0.06191 -0.220517,0 -0.346274,0.129671 -0.346274,0.280647 0,0.114062 0.08311,0.208952 0.268885,0.265038 0.133453,0.04063 0.191715,0.08132 0.191715,0.166431 0,0.07739 -0.05827,0.141192 -0.195453,0.141192 -0.093,0 -0.193694,-0.03667 -0.251736,-0.07163 z m 2.341255,-0.139213 c -0.08135,0.03871 -0.203147,0.06191 -0.323189,0.06191 -0.367601,0 -0.563054,-0.228453 -0.563054,-0.520533 0,-0.325147 0.214801,-0.539837 0.576685,-0.539837 0.122021,0 0.232169,0.02704 0.305821,0.06182 l 0.04441,-0.139214 c -0.05035,-0.02515 -0.170169,-0.06587 -0.357927,-0.06587 -0.470274,0 -0.754769,0.311581 -0.754769,0.685074 0,0.423752 0.3078,0.665837 0.712117,0.665837 0.185779,0 0.329125,-0.0389 0.396621,-0.07178 z m 1.066086,-0.245801 c 0.0059,-0.01734 0.0079,-0.04252 0.0079,-0.0773 0,-0.160583 -0.08135,-0.450949 -0.423884,-0.450949 -0.303622,0 -0.483465,0.232213 -0.483465,0.508837 0,0.280669 0.191275,0.474407 0.501054,0.474407 0.174126,0 0.286253,-0.0389 0.348253,-0.06407 l -0.031,-0.125802 c -0.07167,0.02902 -0.152801,0.05221 -0.294169,0.05221 -0.193474,0 -0.350232,-0.106411 -0.353969,-0.317342 z M 11.675409,10.98419 c 0.01561,-0.116107 0.09872,-0.278603 0.298126,-0.278603 0.232169,0 0.268885,0.197277 0.266906,0.278603 z m 0.965611,0.557205 h 0.176106 V 10.98419 c 0,-0.02515 0.0059,-0.05615 0.01363,-0.07746 0.03474,-0.09285 0.129495,-0.18191 0.257452,-0.18191 0.176105,0 0.24558,0.131672 0.24558,0.296125 v 0.520446 h 0.176105 v -0.535989 c 0,-0.352189 -0.236126,-0.423731 -0.363863,-0.423731 -0.172148,0 -0.292189,0.09876 -0.340558,0.189627 h -0.0057 l -0.0097,-0.166366 h -0.156758 c 0.0059,0.07937 0.0077,0.162497 0.0077,0.257387 z m 1.209433,-1.114477 v 0.178018 h -0.154779 v 0.133471 h 0.154779 v 0.501186 c 0,0.10452 0.01935,0.193584 0.06969,0.247691 0.04067,0.04835 0.110149,0.07763 0.195233,0.07763 0.07189,0 0.129716,-0.0115 0.166432,-0.0274 l -0.0095,-0.131563 c -0.02726,0.0078 -0.05804,0.01357 -0.110368,0.01357 -0.108389,0 -0.139389,-0.07746 -0.139389,-0.191517 v -0.489595 h 0.265147 v -0.133475 h -0.265147 v -0.226386 z m 0.652095,1.114477 h 0.176106 v -0.493381 c 0,-0.02707 0.0018,-0.05419 0.0077,-0.07928 0.02506,-0.133541 0.114106,-0.224495 0.243822,-0.224495 0.02704,0 0.04639,0.0019 0.06574,0.0057 v -0.162496 c -0.01759,-0.0039 -0.03276,-0.0058 -0.05233,-0.0058 -0.121801,0 -0.234148,0.08133 -0.282516,0.218648 h -0.0057 l -0.0059,-0.195387 h -0.154779 c 0.0059,0.09285 0.0079,0.187648 0.0079,0.307624 z m 0.617138,-0.04645 c 0.07365,0.0407 0.176106,0.06998 0.288233,0.06998 0.244041,0 0.373536,-0.124088 0.373536,-0.282802 0,-0.143171 -0.0831,-0.222429 -0.263168,-0.280582 -0.131694,-0.0425 -0.197212,-0.07737 -0.197212,-0.158626 0,-0.0735 0.05782,-0.131563 0.166212,-0.131563 0.09872,0 0.178084,0.03685 0.2148,0.05995 l 0.04265,-0.127715 c -0.05606,-0.03478 -0.147084,-0.06191 -0.249757,-0.06191 -0.220516,0 -0.346274,0.129671 -0.346274,0.280647 0,0.114062 0.08333,0.208952 0.269104,0.265038 0.133453,0.04063 0.191496,0.08132 0.191496,0.166431 0,0.07739 -0.05804,0.141192 -0.195453,0.141192 -0.09278,0 -0.193474,-0.03667 -0.251736,-0.07163 l -0.04243,0.131585" style="fill:#173e7d;fill-opacity:1;fill-rule:nonzero;stroke:none;stroke-width:0.0219857"/></g></svg>
