<svg width="62" height="13" viewBox="0 0 62 13" fill="none" xmlns="http://www.w3.org/2000/svg">
<path d="M6.2 0L7.59199 4.28409H12.0965L8.45228 6.93181L9.84427 11.2159L6.2 8.56819L2.55573 11.2159L3.94772 6.93181L0.30345 4.28409H4.80801L6.2 0Z" fill="#D77C2D"/>
<path d="M18.6004 0L19.9924 4.28409H24.4969L20.8527 6.93181L22.2447 11.2159L18.6004 8.56819L14.9561 11.2159L16.3481 6.93181L12.7038 4.28409H17.2084L18.6004 0Z" fill="#D77C2D"/>
<path d="M30.9998 0L32.3918 4.28409H36.8964L33.2521 6.93181L34.6441 11.2159L30.9998 8.56819L27.3555 11.2159L28.7475 6.93181L25.1033 4.28409H29.6078L30.9998 0Z" fill="#D77C2D"/>
<path d="M43.4002 0L44.7922 4.28409H49.2967L45.6525 6.93181L47.0445 11.2159L43.4002 8.56819L39.7559 11.2159L41.1479 6.93181L37.5036 4.28409H42.0082L43.4002 0Z" fill="#D9D9D9"/>
<path d="M43.4005 0L43.4002 8.56819L39.7562 11.2159L41.1482 6.93181L37.5039 4.28409H42.0085L43.4005 0Z" fill="#D77C2D"/>
<path d="M55.7996 0L57.1916 4.28409H61.6962L58.0519 6.93181L59.4439 11.2159L55.7996 8.56819L52.1553 11.2159L53.5473 6.93181L49.9031 4.28409H54.4076L55.7996 0Z" fill="#D9D9D9"/>
</svg>
