<svg width="28" height="28" viewBox="0 0 7.4083332 7.4083333" version="1.1" xmlns="http://www.w3.org/2000/svg" ><g><g transform="translate(-10.316888,-1.8246669)"><path style="fill:#ffffff;" d="m 10.752786,4.1898115 0.998875,-1.6482048 2.359045,-0.3552473 2.456871,0.6060791 0.721746,1.979345 -0.588367,2.75416 -3.358076,0.804861 -0.941457,0.923499 -0.202883,-1.345293 -1.300278,-1.173017 z" /><path d="M 14.612532,5.851285 Q 14.797368,5.6109971 15.05614,5.777352 l 0.665411,0.4990582 q 0.14787,0.1848374 -0.129385,0.5175432 -0.277255,0.3327057 -0.517543,0.2772543 -0.979634,-0.2218038 -1.885333,-1.1090191 -0.9057,-0.8872162 -1.127503,-1.9223008 0,-0.3696731 0.462091,-0.6284442 0.240287,-0.1663533 0.406641,0.092418 l 0.462091,0.6469281 q 0.110902,0.2218039 -0.129386,0.4066404 c -0.720862,0.2772552 0.942667,2.07017 1.349308,1.2938565 z M 11.045185,5.0749707 c 0,1.4417258 0.258771,1.7559483 0.665411,2.1810719 0.129386,0.129386 0.591478,0.3511898 0.70238,0.3511898 v 1.2753725 c 0,0.073933 0.07393,0.129386 0.14787,0.05545 l 0.979634,-1.1644706 0.480575,0.018483 c 2.661647,0 2.975869,-1.0350846 2.975869,-2.7170983 0,-1.6820128 -0.314222,-2.7170974 -2.975869,-2.7170974 -2.661648,0 -2.97587,1.0350846 -2.97587,2.7170974 z m -0.55451,0 c 0,-2.3289411 1.016602,-3.271607 3.53038,-3.271607 2.513778,0 3.530379,0.9426659 3.530379,3.271607 0,2.3289411 -1.016601,3.2716078 -3.530379,3.2716078 -0.184837,0 -0.332706,0 -0.591477,-0.036966 l -0.70238,0.7947971 C 12.597813,9.2522796 12.209656,9.307731 12.209656,8.8641225 V 8.0878082 c -0.110902,0 -0.369674,-0.1109019 -0.720863,-0.3327057 C 11.137604,7.5148154 10.490675,6.9418217 10.490675,5.0749707 Z" style="fill:#7c509f;"/></g></g></svg>
