<svg width="28" height="28" viewBox="0 0 7.4083332 7.4083333" version="1.1" xmlns="http://www.w3.org/2000/svg"><g><g><path style="fill:#ffffff;" d="M 3.7041667 0.55552165 A 3.1484244 3.1484244 0 0 0 0.55552165 3.7041667 A 3.1484244 3.1484244 0 0 0 1.0257772 5.3547119 L 0.44131673 6.8528117 L 2.1807454 6.457487 A 3.1484244 3.1484244 0 0 0 3.7041667 6.8528117 A 3.1484244 3.1484244 0 0 0 6.8528117 3.7041667 A 3.1484244 3.1484244 0 0 0 3.7041667 0.55552165 z " /><path fill-rule="evenodd" clip-rule="evenodd" d="m 1.0015141,3.7041592 c 0,-1.5378684 1.24669,-2.78455728 2.784551,-2.78455728 1.537862,0 2.784559,1.24668888 2.784559,2.78455728 0,1.5378618 -1.246697,2.7845572 -2.784559,2.7845572 -0.547804,0 -1.057715,-0.1578353 -1.487942,-0.4304269 -0.080065,-0.050712 -0.178183,-0.064273 -0.269002,-0.037182 l -0.943195,0.2815022 0.355125,-0.8309774 c 0.04197,-0.098212 0.03343,-0.2107089 -0.02288,-0.3014529 -0.2641,-0.4255785 -0.416656,-0.9274869 -0.416657,-1.4660202 z m 2.784551,-3.43974719 c -1.899714,0 -3.43974049,1.54002719 -3.43974049,3.43974719 0,0.6021523 0.1550045,1.1689571 0.4273905,1.6617911 l -0.5648333,1.3216162 c -0.049941,0.1168535 -0.027803,0.252019 0.056794,0.3468248 0.084578,0.094838 0.216377,0.132185 0.338134,0.095822 L 2.0777968,6.6903516 c 0.503526,0.2886112 1.087055,0.4535555 1.708274,0.4535555 1.899723,0 3.439747,-1.5400242 3.439747,-3.4397473 0,-1.8997201 -1.540024,-3.43974723 -3.439747,-3.43974723 z M 4.5370781,4.4191023 4.1065521,4.7223571 C 3.9049171,4.6075023 3.6819881,4.4471774 3.4583711,4.2235609 3.2259101,3.9910997 3.0535701,3.7511035 2.9264961,3.5309598 l 0.273601,-0.2322321 c 0.117414,-0.099654 0.149544,-0.267668 0.07722,-0.4036364 L 2.9287061,2.2399014 c -0.04695,-0.088224 -0.131585,-0.1501965 -0.22987,-0.168299 -0.09828,-0.018108 -0.199452,0.00966 -0.274748,0.075363 l -0.103355,0.090206 c -0.248556,0.2169303 -0.395558,0.573406 -0.273721,0.9343502 0.12631,0.3741789 0.395871,0.9630963 0.948094,1.5153233 0.59412,0.5941261 1.197616,0.8280945 1.550533,0.9189695 0.284354,0.073184 0.55344,-0.02493 0.743052,-0.1794238 l 0.193773,-0.1579002 c 0.08289,-0.067518 0.127592,-0.1712669 0.119792,-0.2778987 -0.0078,-0.1066332 -0.06719,-0.2027486 -0.159054,-0.2574895 l -0.549801,-0.327595 c -0.111044,-0.066142 -0.25061,-0.060834 -0.356323,0.013595 z" fill="#000000" style="fill:#129808;"/></g></g></svg>
