<svg width="19.402779mm" height="19.402779mm" viewBox="0 0 19.402779 19.402779" version="1.1" xmlns="http://www.w3.org/2000/svg"><g transform="translate(-95.298607,-109.09045)"><path style="fill:#171f3a;" d="m 105,110.57528 c -1.32167,7e-5 -2.39307,1.07147 -2.39313,2.39314 h -2.0836 c -1.489093,0 -2.588474,1.1257 -2.588474,2.75384 v 8.53229 c 0,1.62814 1.099381,2.75384 2.588474,2.75384 h 8.95346 c 1.4891,0 2.58847,-1.1257 2.58847,-2.75384 v -8.53229 c 0,-1.62814 -1.09937,-2.75384 -2.58847,-2.75384 h -2.08359 c -6e-5,-1.32167 -1.07147,-2.39308 -2.39314,-2.39314 z m 0,0.86352 c 0.84482,-9e-5 1.52971,0.6848 1.52962,1.52962 h -3.05924 c -9e-5,-0.84482 0.6848,-1.52971 1.52962,-1.52962 z m -4.5036,2.66082 h 0.79117 v 2.42259 h 7.42487 v -2.42259 h 0.79116 c 0.9071,0 1.43041,0.66816 1.43041,1.60713 v 8.5633 c 0,0.93897 -0.52331,1.60714 -1.43041,1.60714 h -9.0072 c -0.907098,0 -1.430407,-0.66817 -1.430407,-1.60714 v -8.5633 c 0,-0.93897 0.523309,-1.60713 1.430407,-1.60713 z m 2.18901,0 h 4.62918 v 1.29139 h -4.62918 z m 6.28179,3.62768 -5.11648,5.11649 -2.04536,-2.04587 -0.79995,0.79995 2.84531,2.8453 5.91643,-5.91592 z" /></g></svg>
