<svg width="55" height="55" viewBox="0 0 55 55" version="1.1" xmlns="http://www.w3.org/2000/svg"><path style="fill:#bf333b;stroke-width:2.00949;fill-opacity:1" d="M 16.882812 0.859375 L 16.328125 1.3847656 L 16.328125 2.578125 L 16.328125 7.734375 L 9.5078125 7.734375 L 7.734375 9.5 L 7.734375 16.328125 L 2.578125 16.328125 L 1.3847656 16.328125 L 0.859375 16.882812 L 0.859375 20.914062 L 1.3847656 21.484375 L 2.5546875 21.484375 L 7.734375 21.484375 L 7.734375 24.921875 L 2.578125 24.921875 L 1.3847656 24.921875 L 0.859375 25.476562 L 0.859375 29.507812 L 1.3847656 30.078125 L 2.5546875 30.078125 L 7.734375 30.078125 L 7.734375 33.515625 L 2.578125 33.515625 L 1.3847656 33.515625 L 0.859375 34.070312 L 0.859375 38.101562 L 1.3847656 38.671875 L 2.5546875 38.671875 L 7.734375 38.671875 L 7.734375 45.494141 L 9.5 47.265625 L 16.328125 47.265625 L 16.328125 52.421875 L 16.328125 53.615234 L 16.882812 54.140625 L 20.914062 54.140625 L 21.484375 53.615234 L 21.484375 52.445312 L 21.484375 47.265625 L 24.921875 47.265625 L 24.921875 52.421875 L 24.921875 53.615234 L 25.476562 54.140625 L 29.507812 54.140625 L 30.078125 53.615234 L 30.078125 52.445312 L 30.078125 47.265625 L 33.515625 47.265625 L 33.515625 52.421875 L 33.515625 53.615234 L 34.070312 54.140625 L 38.101562 54.140625 L 38.671875 53.615234 L 38.671875 52.445312 L 38.671875 47.265625 L 45.542969 47.265625 L 47.265625 45.494141 L 47.265625 38.671875 L 52.445312 38.671875 L 53.615234 38.671875 L 54.140625 38.101562 L 54.140625 34.070312 L 53.615234 33.515625 L 52.421875 33.515625 L 47.265625 33.515625 L 47.265625 30.078125 L 52.445312 30.078125 L 53.615234 30.078125 L 54.140625 29.507812 L 54.140625 25.476562 L 53.615234 24.921875 L 52.421875 24.921875 L 47.265625 24.921875 L 47.265625 21.484375 L 52.445312 21.484375 L 53.615234 21.484375 L 54.140625 20.914062 L 54.140625 16.882812 L 53.615234 16.328125 L 52.421875 16.328125 L 47.265625 16.328125 L 47.265625 9.5 L 45.494141 7.734375 L 38.671875 7.734375 L 38.671875 2.5546875 L 38.671875 1.3847656 L 38.101562 0.859375 L 34.070312 0.859375 L 33.515625 1.3847656 L 33.515625 2.578125 L 33.515625 7.734375 L 30.078125 7.734375 L 30.078125 2.5546875 L 30.078125 1.3847656 L 29.507812 0.859375 L 25.476562 0.859375 L 24.921875 1.3847656 L 24.921875 2.578125 L 24.921875 7.734375 L 21.484375 7.734375 L 21.484375 2.5546875 L 21.484375 1.3847656 L 20.914062 0.859375 L 16.882812 0.859375 z M 18.046875 2.578125 L 19.734375 2.578125 L 19.734375 7.734375 L 18.046875 7.734375 L 18.046875 2.578125 z M 26.640625 2.578125 L 28.328125 2.578125 L 28.328125 7.734375 L 26.640625 7.734375 L 26.640625 2.578125 z M 35.234375 2.578125 L 36.921875 2.578125 L 36.921875 7.734375 L 35.234375 7.734375 L 35.234375 2.578125 z M 10.265625 9.5 L 44.800781 9.5 L 45.494141 10.203125 L 45.494141 44.796875 L 44.785156 45.494141 L 10.214844 45.494141 L 9.5078125 44.789062 L 9.5078125 10.335938 L 10.265625 9.5 z M 11.748047 11.171875 L 11.171875 11.753906 L 11.171875 43.277344 L 11.730469 43.828125 L 43.269531 43.828125 L 43.828125 43.265625 L 43.828125 11.757812 L 43.242188 11.171875 L 11.748047 11.171875 z M 12.890625 12.890625 L 42.109375 12.890625 L 42.109375 42.109375 L 12.890625 42.109375 L 12.890625 12.890625 z M 24.023438 16.273438 C 23.48939 16.273437 23.203125 16.62117 23.203125 17.041016 L 23.203125 18.90625 L 20.632812 18.90625 C 19.765958 18.90625 18.90625 19.7098 18.90625 20.619141 L 18.90625 23.203125 L 17.048828 23.203125 C 16.628987 23.203125 16.281249 23.48939 16.28125 24.023438 C 16.28125 24.574794 16.608356 24.921875 17.041016 24.921875 L 18.90625 24.921875 L 18.90625 26.640625 L 17.060547 26.640625 C 16.653823 26.640625 16.315602 26.909752 16.294922 27.412109 C 16.294255 27.428319 16.294922 27.444248 16.294922 27.460938 C 16.294922 28.012294 16.620077 28.359375 17.052734 28.359375 L 18.90625 28.359375 L 18.90625 30.078125 L 17.048828 30.078125 C 16.628987 30.078125 16.281249 30.36439 16.28125 30.898438 C 16.28125 31.449794 16.608356 31.796875 17.041016 31.796875 L 18.90625 31.796875 L 18.90625 34.378906 C 18.90625 35.301518 19.720456 36.09375 20.625 36.09375 L 23.203125 36.09375 L 23.203125 37.947266 C 23.203125 38.367107 23.48939 38.714845 24.023438 38.714844 C 24.574794 38.714844 24.921875 38.387738 24.921875 37.955078 L 24.921875 36.09375 L 26.640625 36.09375 L 26.640625 37.935547 C 26.640625 38.342267 26.909752 38.680492 27.412109 38.701172 C 27.428318 38.701839 27.444248 38.701172 27.460938 38.701172 C 28.012294 38.701172 28.359375 38.37602 28.359375 37.943359 L 28.359375 36.09375 L 30.078125 36.09375 L 30.078125 37.947266 C 30.078125 38.367107 30.36439 38.714845 30.898438 38.714844 C 31.449794 38.714844 31.796875 38.387738 31.796875 37.955078 L 31.796875 36.09375 L 34.376953 36.09375 C 35.316894 36.09375 36.09375 35.309927 36.09375 34.378906 L 36.09375 31.796875 L 37.962891 31.796875 C 38.395546 31.796875 38.722656 31.449794 38.722656 30.898438 C 38.722657 30.36439 38.374924 30.078125 37.955078 30.078125 L 36.09375 30.078125 L 36.09375 28.359375 L 37.951172 28.359375 C 38.383829 28.359375 38.708984 28.012294 38.708984 27.460938 C 38.708984 27.444248 38.709651 27.428318 38.708984 27.412109 C 38.688304 26.909752 38.350083 26.640625 37.943359 26.640625 L 36.09375 26.640625 L 36.09375 24.921875 L 37.962891 24.921875 C 38.395546 24.921875 38.722656 24.574794 38.722656 24.023438 C 38.722657 23.48939 38.374924 23.203125 37.955078 23.203125 L 36.09375 23.203125 L 36.09375 20.582031 C 36.09375 19.723013 35.288532 18.90625 34.417969 18.90625 L 31.796875 18.90625 L 31.796875 17.033203 C 31.796875 16.600548 31.449794 16.273438 30.898438 16.273438 C 30.36439 16.273437 30.078125 16.62117 30.078125 17.041016 L 30.078125 18.90625 L 28.359375 18.90625 L 28.359375 17.044922 C 28.359375 16.612261 28.012294 16.287109 27.460938 16.287109 C 27.444249 16.287109 27.428315 16.286442 27.412109 16.287109 C 26.909752 16.30779 26.640625 16.646014 26.640625 17.052734 L 26.640625 18.90625 L 24.921875 18.90625 L 24.921875 17.033203 C 24.921875 16.600548 24.574794 16.273438 24.023438 16.273438 z M 2.578125 18.046875 L 7.734375 18.046875 L 7.734375 19.734375 L 2.578125 19.734375 L 2.578125 18.046875 z M 47.265625 18.046875 L 52.421875 18.046875 L 52.421875 19.734375 L 47.265625 19.734375 L 47.265625 18.046875 z M 20.625 20.619141 L 34.376953 20.619141 L 34.376953 34.378906 L 20.625 34.378906 L 20.625 20.619141 z M 22.882812 22.34375 L 22.34375 22.890625 L 22.34375 32.095703 L 22.916016 32.65625 L 32.111328 32.65625 L 32.65625 32.087891 L 32.65625 22.902344 L 32.085938 22.34375 L 22.882812 22.34375 z M 24.0625 24.0625 L 30.9375 24.0625 L 30.9375 30.9375 L 24.0625 30.9375 L 24.0625 24.0625 z M 2.578125 26.640625 L 7.734375 26.640625 L 7.734375 28.328125 L 2.578125 28.328125 L 2.578125 26.640625 z M 47.265625 26.640625 L 52.421875 26.640625 L 52.421875 28.328125 L 47.265625 28.328125 L 47.265625 26.640625 z M 2.578125 35.234375 L 7.734375 35.234375 L 7.734375 36.921875 L 2.578125 36.921875 L 2.578125 35.234375 z M 47.265625 35.234375 L 52.421875 35.234375 L 52.421875 36.921875 L 47.265625 36.921875 L 47.265625 35.234375 z M 18.046875 47.265625 L 19.734375 47.265625 L 19.734375 52.421875 L 18.046875 52.421875 L 18.046875 47.265625 z M 26.640625 47.265625 L 28.328125 47.265625 L 28.328125 52.421875 L 26.640625 52.421875 L 26.640625 47.265625 z M 35.234375 47.265625 L 36.921875 47.265625 L 36.921875 52.421875 L 35.234375 52.421875 L 35.234375 47.265625 z " /></svg>