<svg width="19.402779mm" height="19.402779mm" viewBox="0 0 19.402779 19.402779" version="1.1" xmlns="http://www.w3.org/2000/svg"><g transform="translate(-95.298607,-109.09045)"><path style="fill:none;stroke:#171f3a;stroke-width:1;" d="m 103.47965,111.63078 v 1.40766 a 5.9551105,5.9551105 0 0 0 -2.69958,1.56218 l -1.221621,-0.70538 -1.52032,2.63291 1.21904,0.70384 a 5.9551105,5.9551105 0 0 0 -0.2129,1.56011 5.9551105,5.9551105 0 0 0 0.21239,1.56062 l -1.21853,0.70384 1.52032,2.6324 1.218521,-0.70332 a 5.9551105,5.9551105 0 0 0 2.70268,1.56011 v 1.40715 h 3.04012 v -1.40302 a 5.9551105,5.9551105 0 0 0 2.70165,-1.56527 l 1.22008,0.70435 1.52032,-2.6324 -1.21905,-0.70384 a 5.9551105,5.9551105 0 0 0 0.21188,-1.56062 5.9551105,5.9551105 0 0 0 -0.20878,-1.56218 l 1.21595,-0.70177 -1.52032,-2.63291 -1.21595,0.70176 a 5.9551105,5.9551105 0 0 0 -2.70578,-1.56269 v -1.40353 z m 1.5198,4.24625 a 2.91482,2.91482 0 0 1 2.52956,1.46606 2.91482,2.91482 0 0 1 0.0129,0.0222 l 0.003,0.005 a 2.91482,2.91482 0 0 1 0.37,1.42162 2.91482,2.91482 0 0 1 -2.91507,2.91455 2.91482,2.91482 0 0 1 -2.52387,-1.45728 2.91482,2.91482 0 0 1 -0.39068,-1.45727 2.91482,2.91482 0 0 1 2.91455,-2.91507 z" /></g></svg>
