<svg width="55" height="55" viewBox="0 0 55 55" version="1.1" xmlns="http://www.w3.org/2000/svg"><path style="display:inline;fill:#bf333b;fill-opacity:1;stroke-width:3.48219" d="M 14.609375,0 V 5.15625 H 9.453125 V 10.3125 H 4.296875 V 55 h 36.09375 v -5.15625 h 5.15625 V 44.6875 h 5.15625 V 7.359375 L 43.345703,0 Z m 1.71875,1.71875 h 25.78125 v 6.875 h 6.875 v 34.375 H 16.328125 Z M 43.837891,2.9238281 47.789062,6.875 H 43.837891 Z M 11.171875,6.875 h 3.4375 v 37.8125 h 29.21875 V 48.125 H 11.171875 Z M 37.8125,11.171875 v 20.625 H 36.09375 V 17.1875 h -6.875 V 31.796875 H 27.5 V 22.34375 h -6.875 v 9.453125 h -1.783203 c -0.01736,0 -0.03386,-5.65e-4 -0.05078,0 -0.524591,0.0175 -0.837891,0.307043 -0.837891,0.875 0,0.546564 0.323455,0.84375 0.902344,0.84375 h 27.498047 c 0.578886,0 0.902343,-0.297186 0.902343,-0.84375 0,-0.586278 -0.333186,-0.875 -0.888671,-0.875 H 44.6875 v -20.625 z M 6.015625,12.03125 h 3.4375 v 37.8125 h 29.21875 v 3.4375 H 6.015625 Z m 33.515625,0.859375 h 3.4375 v 18.90625 h -3.4375 z M 30.9375,18.90625 h 3.4375 v 12.890625 h -3.4375 z m -8.59375,5.15625 h 3.4375 v 7.734375 h -3.4375 z" /></svg>