<svg width="55" height="55" viewBox="0 0 55 55" version="1.1" xmlns="http://www.w3.org/2000/svg"><path d="m 26.5977,19.3146 c -0.22343,0.641779 -1.338059,4.130986 -0.462,7.5625 0.9776,3.9316 3.5664,8.1641 7.8633,12.8799 1.418,1.5576 3.7813,3.8457 5.2422,5.081 1.0527,0.8916 1.2246,0.9024 2.1055,0.1719 1.3428,-1.1172 3.5342,-3.2226 5.0381,-4.834 4.5009,-4.834 7.2509,-9.2597 8.2607,-13.2988 0.2578,-1.0098 0.29,-1.3643 0.29,-2.8682 0,-7.55616 -5.693634,-14.5096135 -15.021602,-14.5091325 C 36.218666,9.499958 29.237935,11.77998 26.5977,19.3146 Z m 26.6406,4.1035 c 0.2041,3.8672 -1.8477,8.2608 -6.3916,13.6426 -1.1494,1.3642 -4.908968,5.210927 -5.843568,5.962927 -0.454376,0.336343 -0.860807,0.289134 -1.235532,-0.01173 -1.0957,-0.9239 -4.6729,-4.5762 -5.833,-5.9512 -4.5869,-5.457 -6.5957,-9.7539 -6.3916,-13.6426 0.408574,-7.848983 6.877635,-12.154117 12.403,-12.199123 4.914295,0.06178 12.791909,2.531492 13.2923,12.199126 z" fill="#bf333b" style="display:inline" /><path d="m 38.8872,17.3486 c -1.8906,0.4082 -3.7705,1.8799 -4.6084,3.6202 -1.0098,2.0839 -1.0098,4.1035 0,6.1874 1.085,2.2559 3.5557,3.7813 6.1123,3.7813 2.5459,0 4.9522,-1.4932 6.1016,-3.7598 1.0635,-2.1269 1.0097,-4.5439 -0.1612,-6.5527 -1.4931,-2.5566 -4.5224,-3.8994 -7.4443,-3.2764 z m 2.7393,1.7188 c 2.5566,0.666 4.2216,3.126 3.8457,5.7041 -0.3223,2.2773 -2.1055,4.0498 -4.3936,4.3721 -3.5342,0.5156 -6.5742,-2.8575 -5.6826,-6.295 0.7197,-2.7715 3.5342,-4.4795 6.2305,-3.7812 z" fill="#bf333b" style="display:inline" /><path style="display:inline;fill:#bf333b;stroke-width:0.896736;fill-opacity:1" d="m 0,9.5 v 10.21875 h 4.3046875 v 2.578125 H 0.046875 l -0.0546875,10.3125 h 4.3125 v 2.625 h -4.296875 l -0.015625,10.3125 H 35.169922 c 0.606288,0 0.873047,-0.281997 0.873047,-0.871094 0,-0.478532 -0.297096,-0.792839 -0.855469,-0.792969 L 1.7265625,43.875 v -6.96875 l 25.9531255,-0.0078 c 0.606287,0 0.871093,-0.282001 0.871093,-0.871094 0,-0.478535 -0.297093,-0.792969 -0.855469,-0.792969 H 6.015625 v -2.625 l 19.148437,-0.0078 c 0.496392,0 0.871094,-0.2512 0.871094,-0.871093 0,-0.490254 -0.297097,-0.792969 -0.855468,-0.792969 H 1.71875 v -6.96875 h 21.474609 c 0.606291,0 0.873047,-0.281997 0.873047,-0.871094 0,-0.478528 -0.297099,-0.79272 -0.855468,-0.792968 L 6.015625,22.296875 V 19.71875 h 17.947266 c 0.606283,0 0.873046,-0.281997 0.873047,-0.871094 0,-0.478527 -0.297101,-0.792779 -0.855469,-0.792968 L 1.71875,18.046875 v -6.875 h 28.320312 c 0.606291,0 0.873047,-0.281997 0.873047,-0.871094 0,-0.4785282 -0.297101,-0.7928234 -0.855468,-0.7929685 z m 4.2988281,4.251953 A 0.85677356,0.85677356 0 0 0 3.4433594,14.609375 0.85677356,0.85677356 0 0 0 4.2988281,15.466797 0.85677356,0.85677356 0 0 0 5.15625,14.609375 0.85677356,0.85677356 0 0 0 4.2988281,13.751953 Z m 2.5839844,0 a 0.85677356,0.85677356 0 0 0 -0.8574219,0.857422 0.85677356,0.85677356 0 0 0 0.8574219,0.857422 0.85677356,0.85677356 0 0 0 0.8574219,-0.857422 0.85677356,0.85677356 0 0 0 -0.8574219,-0.857422 z m 2.5722656,0 A 0.85677356,0.85677356 0 0 0 8.5996094,14.609375 0.85677356,0.85677356 0 0 0 9.4550781,15.466797 0.85677356,0.85677356 0 0 0 10.3125,14.609375 0.85677356,0.85677356 0 0 0 9.4550781,13.751953 Z m 8.6386719,0.05274 c -0.558368,0 -0.855469,0.314441 -0.855469,0.792968 0,0.589097 0.266764,0.871094 0.873047,0.871094 h 7.873047 c 0.606283,0 0.873047,-0.281997 0.873047,-0.871094 0,-0.478527 -0.297093,-0.792969 -0.855469,-0.792968 z M 18.04297,26.64063 c -0.558376,0 -0.855469,0.314434 -0.855469,0.792969 0,0.589089 0.266756,0.871093 0.873047,0.871094 h 5.486328 c 0.606283,0 0.873047,-0.282005 0.873047,-0.871094 0,-0.478535 -0.297093,-0.792969 -0.855469,-0.792969 z m -13.7500002,0.002 A 0.85677356,0.85677356 0 0 0 3.4375,27.5 0.85677356,0.85677356 0 0 0 4.2929688,28.357422 0.85677356,0.85677356 0 0 0 5.1503906,27.5 0.85677356,0.85677356 0 0 0 4.2929688,26.642578 Z m 2.5839843,0 A 0.85677356,0.85677356 0 0 0 6.0195312,27.5 0.85677356,0.85677356 0 0 0 6.8769531,28.357422 0.85677356,0.85677356 0 0 0 7.734375,27.5 0.85677356,0.85677356 0 0 0 6.8769531,26.642578 Z m 2.5722657,0 A 0.85677356,0.85677356 0 0 0 8.59375,27.5 0.85677356,0.85677356 0 0 0 9.4492188,28.357422 0.85677356,0.85677356 0 0 0 10.306641,27.5 0.85677356,0.85677356 0 0 0 9.4492188,26.642578 Z M 4.296875,39.533203 A 0.85677356,0.85677356 0 0 0 3.4394531,40.390625 0.85677356,0.85677356 0 0 0 4.296875,41.248047 0.85677356,0.85677356 0 0 0 5.1542969,40.390625 0.85677356,0.85677356 0 0 0 4.296875,39.533203 Z m 2.5820312,0 a 0.85677356,0.85677356 0 0 0 -0.8574218,0.857422 0.85677356,0.85677356 0 0 0 0.8574218,0.857422 0.85677356,0.85677356 0 0 0 0.8574219,-0.857422 0.85677356,0.85677356 0 0 0 -0.8574219,-0.857422 z m 2.5742188,0 a 0.85677356,0.85677356 0 0 0 -0.8574219,0.857422 0.85677356,0.85677356 0 0 0 0.8574219,0.857422 0.85677356,0.85677356 0 0 0 0.857422,-0.857422 0.85677356,0.85677356 0 0 0 -0.857422,-0.857422 z m 8.589844,0.02539 c -0.558376,0 -0.855469,0.314436 -0.855469,0.792968 0,0.589097 0.266756,0.871094 0.873047,0.871094 h 12.890625 c 0.606288,0 0.873047,-0.281997 0.873047,-0.871094 0,-0.478532 -0.299049,-0.792968 -0.857422,-0.792968 z" /></svg>