<svg width="55" height="55" viewBox="0 0 55 55" version="1.1" xmlns="http://www.w3.org/2000/svg"><path style="fill:#bf333b;stroke-width:4.17204;fill-opacity:1" d="M 52.382812 3.4414062 L 52.382812 3.4492188 L 2.5703125 3.4492188 C 1.4793497 3.4492188 0.85742187 4.1091556 0.85742188 5.1875 L 0.85742188 41.222656 C 0.85742188 42.426812 1.5192105 42.96875 2.6074219 42.96875 L 20.208984 42.96875 L 19.289062 46.40625 L 16.328125 46.40625 C 15.144492 46.40625 14.609375 46.937996 14.609375 48.099609 L 14.609375 49.892578 C 14.609375 51.038195 15.135102 51.5625 16.328125 51.5625 L 38.671875 51.5625 C 39.863698 51.5625 40.390625 51.007978 40.390625 49.900391 L 40.390625 48.041016 C 40.390625 46.907533 39.913214 46.40625 38.660156 46.40625 L 35.658203 46.40625 L 34.736328 42.96875 L 52.382812 42.96875 L 52.382812 42.976562 C 53.59217 42.976562 54.134766 42.396685 54.134766 41.199219 L 54.134766 37.8125 L 54.134766 36.09375 L 54.134766 5.1875 L 54.142578 5.1875 C 54.142578 4.0661844 53.511174 3.4414062 52.382812 3.4414062 z M 2.6074219 5.1875 L 52.382812 5.1875 L 52.382812 36.09375 L 2.6074219 36.09375 L 2.6074219 5.1875 z M 2.6074219 37.8125 L 52.382812 37.8125 L 52.382812 41.199219 L 2.6074219 41.199219 L 2.6074219 37.8125 z M 25.939453 38.673828 C 25.427523 38.673828 24.9375 38.888363 24.9375 39.548828 C 24.9375 40.151357 25.434241 40.388672 25.939453 40.388672 L 29.0625 40.388672 C 29.567712 40.388672 30.064453 40.151357 30.064453 39.548828 C 30.064453 38.888363 29.57443 38.673828 29.0625 38.673828 L 25.939453 38.673828 z M 21.988281 42.96875 L 32.957031 42.96875 L 33.878906 46.40625 L 21.068359 46.40625 L 21.988281 42.96875 z M 16.328125 48.125 L 38.671875 48.125 L 38.671875 49.84375 L 16.328125 49.84375 L 16.328125 48.125 z " /></svg>