<svg width="55" height="49" viewBox="0 0 55 49" version="1.1" xmlns="http://www.w3.org/2000/svg"><path d="m 36.0782,23.3787 c -1.3117,0.2903 -1.6664,0.5269 -1.6664,1.1182 0,0.760701 4.235017,4.379928 4.7412,5.3003 0.828705,1.592087 -0.922353,3.259752 -2.4405,2.4727 -0.908033,-0.47533 -4.557132,-4.752 -5.3218,-4.752 -0.4946,0 -0.6988,0.2258 -0.9676,1.0966 -1.202579,3.779632 1.361217,10.562858 9.2675,9.1922 1.818507,1.585391 3.265214,4.174341 5.8701,4.2682 1.8599,-0.0215 3.3866,-1.5481 3.4081,-3.4081 -0.09884,-2.500509 -2.610135,-4.193614 -4.2682,-5.8701 1.332378,-7.690027 -5.022199,-10.209337 -8.6224,-9.418 z m 6.7194,9.7513 c 0,0.437681 4.5155,4.017799 4.5155,5.4508 0,0.9569 -0.8923,1.8385 -1.8492,1.8385 -1.482336,-0.02327 -4.571168,-4.126048 -5.3325,-4.4187 -4.12289,0.810688 -7.438358,-0.602211 -8.2677,-5.0101 -0.0322,-0.4945 -0.0215,-0.8923 0.0323,-0.8923 0.278659,0 3.14303,3.39717 4.3972,3.8704 1.566643,0.587377 4.7305,-0.05774 4.7305,-3.3329 0,-2.964101 -4.0317,-4.862783 -4.0317,-5.6335 0,-0.405879 7.669583,0.08321 5.8056,8.1278 z" fill="#bf333b"/><path d="M 37.5837,17.3148 C 30.9503,18.2071 25.6715,23.2064 24.3383,29.8506 21.591434,43.797208 39.384749,54.744621 50.485,43.5905 61.321909,32.805429 51.287469,15.411072 37.5837,17.3148 Z m 4.0209,1.7739 c 11.203681,1.643947 15.519523,15.411477 7.6548,23.2762 -10.248664,10.248045 -27.534064,-0.712371 -22.6418,-14.3098 2.176169,-5.98458 8.274468,-9.957358 14.987,-8.9664 z" fill="#bf333b"/><path style="fill:#bf333b;stroke-width:0.970963;fill-opacity:1" d="M 0.013671875 0 L 0.013671875 0.01171875 L 0 10.316406 L 4.3085938 10.316406 L 4.3085938 12.896484 L 0.013671875 12.896484 L 0 12.896484 L 0 23.240234 L 4.3085938 23.240234 L 4.3085938 25.796875 L 0 25.796875 L 0 36.128906 L 21.496094 36.128906 C 22.103549 36.128906 22.529297 35.861032 22.529297 35.302734 C 22.529297 34.662309 22.131368 34.408509 21.511719 34.408203 L 1.7285156 34.398438 L 1.7285156 27.517578 L 22.404297 27.517578 C 23.011753 27.517578 23.4375 27.249704 23.4375 26.691406 C 23.4375 26.05098 23.039572 25.796875 22.419922 25.796875 L 6.0292969 25.796875 L 6.0292969 23.240234 L 24.541016 23.216797 C 25.14847 23.216028 25.574219 22.948918 25.574219 22.390625 C 25.574219 21.750202 25.176289 21.498047 24.556641 21.498047 L 1.7285156 21.498047 L 1.7285156 14.617188 L 38.990234 14.617188 L 39.511719 15.138672 C 39.941248 15.568201 40.433349 15.679933 40.828125 15.285156 C 41.280976 14.832313 41.178393 14.371746 40.740234 13.933594 L 39.703125 12.896484 L 36.992188 12.896484 L 36.992188 10.316406 L 41.300781 10.316406 L 41.300781 10.310547 L 41.300781 0.01171875 L 41.300781 0 L 0.013671875 0 z M 1.7285156 1.7148438 L 39.572266 1.7148438 L 39.572266 8.5957031 L 1.7285156 8.5957031 L 1.7285156 1.7148438 z M 18.263672 4.2949219 C 17.644019 4.2949219 17.246094 4.5490266 17.246094 5.1894531 C 17.246094 5.7477494 17.671838 6.015625 18.279297 6.015625 L 36.8125 6.015625 C 37.419956 6.015625 37.845703 5.7477494 37.845703 5.1894531 C 37.845703 4.5490266 37.447775 4.2949219 36.828125 4.2949219 L 18.263672 4.2949219 z M 4.3164062 4.3027344 A 0.85208231 0.85208231 0 0 0 3.4648438 5.1542969 A 0.85208231 0.85208231 0 0 0 4.3164062 6.0078125 A 0.85208231 0.85208231 0 0 0 5.1699219 5.1542969 A 0.85208231 0.85208231 0 0 0 4.3164062 4.3027344 z M 6.8964844 4.3027344 A 0.85208231 0.85208231 0 0 0 6.0449219 5.1542969 A 0.85208231 0.85208231 0 0 0 6.8964844 6.0078125 A 0.85208231 0.85208231 0 0 0 7.75 5.1542969 A 0.85208231 0.85208231 0 0 0 6.8964844 4.3027344 z M 9.4765625 4.3027344 A 0.85208231 0.85208231 0 0 0 8.625 5.1542969 A 0.85208231 0.85208231 0 0 0 9.4765625 6.0078125 A 0.85208231 0.85208231 0 0 0 10.330078 5.1542969 A 0.85208231 0.85208231 0 0 0 9.4765625 4.3027344 z M 6.0292969 10.316406 L 35.271484 10.316406 L 35.271484 12.896484 L 6.0292969 12.896484 L 6.0292969 10.316406 z M 19.013672 17.195312 C 18.77525 17.212252 18.491308 17.203125 18.238281 17.203125 C 17.618631 17.203125 17.220703 17.45723 17.220703 18.097656 C 17.220703 18.655954 17.64645 18.924275 18.253906 18.923828 L 28.878906 18.916016 C 29.486365 18.916016 29.912109 18.648139 29.912109 18.089844 C 29.912109 17.449415 29.514184 17.195313 28.894531 17.195312 L 19.013672 17.195312 z M 4.3164062 17.203125 A 0.85208231 0.85208231 0 0 0 3.4648438 18.054688 A 0.85208231 0.85208231 0 0 0 4.3164062 18.908203 A 0.85208231 0.85208231 0 0 0 5.1699219 18.054688 A 0.85208231 0.85208231 0 0 0 4.3164062 17.203125 z M 6.8964844 17.203125 A 0.85208231 0.85208231 0 0 0 6.0449219 18.054688 A 0.85208231 0.85208231 0 0 0 6.8964844 18.908203 A 0.85208231 0.85208231 0 0 0 7.75 18.054688 A 0.85208231 0.85208231 0 0 0 6.8964844 17.203125 z M 9.4765625 17.203125 A 0.85208231 0.85208231 0 0 0 8.625 18.054688 A 0.85208231 0.85208231 0 0 0 9.4765625 18.908203 A 0.85208231 0.85208231 0 0 0 10.330078 18.054688 A 0.85208231 0.85208231 0 0 0 9.4765625 17.203125 z M 4.3085938 30.097656 A 0.85208231 0.85208231 0 0 0 3.4570312 30.949219 A 0.85208231 0.85208231 0 0 0 4.3085938 31.802734 A 0.85208231 0.85208231 0 0 0 5.1621094 30.949219 A 0.85208231 0.85208231 0 0 0 4.3085938 30.097656 z M 6.8886719 30.097656 A 0.85208231 0.85208231 0 0 0 6.0371094 30.949219 A 0.85208231 0.85208231 0 0 0 6.8886719 31.802734 A 0.85208231 0.85208231 0 0 0 7.7421875 30.949219 A 0.85208231 0.85208231 0 0 0 6.8886719 30.097656 z M 9.46875 30.097656 A 0.85208231 0.85208231 0 0 0 8.6171875 30.949219 A 0.85208231 0.85208231 0 0 0 9.46875 31.802734 A 0.85208231 0.85208231 0 0 0 10.322266 30.949219 A 0.85208231 0.85208231 0 0 0 9.46875 30.097656 z M 18.097656 30.097656 C 17.478006 30.097656 17.082031 30.351759 17.082031 30.992188 C 17.082031 31.550483 17.507778 31.818359 18.115234 31.818359 L 21.535156 31.818359 C 22.142615 31.818359 22.568359 31.550483 22.568359 30.992188 C 22.568359 30.351759 22.170434 30.097656 21.550781 30.097656 L 18.097656 30.097656 z " /></svg>