<svg width="55" height="55" viewBox="0 0 55 55" version="1.1" xmlns="http://www.w3.org/2000/svg"><path style="fill:#bf333b;stroke-width:4.01937;fill-opacity:1" d="M 27.5 0 L 7.0820312 12.404297 L 7.0820312 34.808594 C 7.0658638 40.964014 18.607377 53.544965 27.5 55 C 36.392623 53.544964 47.934136 40.964014 47.917969 34.808594 L 47.917969 12.404297 L 27.5 0 z M 27.5 2.0664062 L 46.177734 13.412109 L 46.177734 34.292969 C 46.177734 40.361743 35.173972 51.623925 27.5 53.091797 C 19.826028 51.623924 8.8222652 40.361743 8.8222656 34.292969 L 8.8222656 13.412109 L 27.5 2.0664062 z M 27.5 3.890625 L 10.160156 14.425781 L 10.160156 33.4375 C 10.145804 38.901175 19.23729 48.512778 27.5 51.566406 C 35.76271 48.512778 44.854196 38.901175 44.839844 33.4375 L 44.839844 14.425781 L 27.5 3.890625 z M 28.361328 6.4804688 L 43.099609 15.433594 L 43.099609 32.921875 C 43.09961 38.005608 35.379419 45.875889 28.361328 49.107422 L 28.361328 6.4804688 z M 26.615234 6.4941406 L 26.615234 49.095703 C 19.603532 45.857292 11.900389 37.999832 11.900391 32.921875 L 11.900391 15.433594 L 26.615234 6.4941406 z " /></svg>