<svg width="19.402779mm" height="19.402779mm" viewBox="0 0 19.402779 19.402779" version="1.1" xmlns="http://www.w3.org/2000/svg"><g transform="translate(-95.298607,-109.09045)"><path style="fill:#171f3a;" d="m 99.57087,110.90136 c -1.654146,0 -2.919719,1.29507 -2.919719,2.77244 v 10.23607 c 0,1.47737 1.265573,2.77244 2.919719,2.77244 h 10.02057 c 1.65415,0 2.91972,-1.29507 2.91972,-2.77244 v -1.14877 c 0.52196,-0.50829 0.83768,-1.20095 0.83768,-1.9389 v -3.65559 c 0,-0.73794 -0.31572,-1.4306 -0.83768,-1.9389 v -1.55391 c 0,-1.47737 -1.26557,-2.77244 -2.91972,-2.77244 z m -0.0088,1.27176 h 10.038145 c 0.95053,0 1.63866,0.46959 1.63866,1.47691 v 0.85266 c -0.25541,-0.07 -0.52624,-0.10852 -0.80874,-0.10852 h -4.49998 c -1.65412,0 -2.9192,1.29507 -2.9192,2.77244 v 3.65559 c 0,1.47737 1.26508,2.77244 2.9192,2.77244 h 4.49998 c 0.2825,0 0.55333,-0.0385 0.80874,-0.10852 v 0.44752 c 0,1.00732 -0.68813,1.47691 -1.63866,1.47691 H 99.562085 c -0.950526,0 -1.63866,-0.46959 -1.63866,-1.47691 v -10.28361 c 0,-1.00732 0.688134,-1.47691 1.63866,-1.47691 z m 6.359295,3.49281 h 4.51704 c 0.95051,0 1.63814,0.46959 1.63814,1.47691 v 3.70313 c 0,1.00732 -0.68763,1.47692 -1.63814,1.47692 h -4.51704 c -0.95052,0 -1.63814,-0.4696 -1.63814,-1.47692 v -3.70313 c 0,-1.00732 0.68762,-1.47691 1.63814,-1.47691 z m 1.56063,1.00769 a 2.1185818,2.1185818 0 0 0 -2.11821,2.11822 2.1185818,2.1185818 0 0 0 2.11821,2.11873 2.1185818,2.1185818 0 0 0 2.11874,-2.11873 2.1185818,2.1185818 0 0 0 -2.11874,-2.11822 z m 0,1.05006 a 1.0682116,1.0682116 0 0 1 1.06867,1.06816 1.0682116,1.0682116 0 0 1 -1.06867,1.06867 1.0682116,1.0682116 0 0 1 -1.06815,-1.06867 1.0682116,1.0682116 0 0 1 1.06815,-1.06816 z" /></g></svg>
