<svg width="17.638887mm" height="17.638887mm" viewBox="0 0 17.638887 17.638887" version="1.1" xmlns="http://www.w3.org/2000/svg" ><g transform="translate(-92.680786,-86.900383)"><path style="fill:#d4d4d4;" d="M 101.5004 87.0766 A 8.643055 8.643055 0 0 0 96.485205 88.686321 L 96.485205 87.253333 L 95.863021 87.253333 L 95.863021 89.175696 A 8.643055 8.643055 0 0 0 95.717293 89.300753 L 94.188188 87.771648 L 93.748421 88.211414 L 95.270809 89.734319 A 8.643055 8.643055 0 0 0 95.081156 89.937407 L 93.033736 89.937407 L 93.033736 90.559591 L 94.573694 90.559591 A 8.643055 8.643055 0 0 0 92.857003 95.72 A 8.643055 8.643055 0 0 0 101.5004 104.36288 A 8.643055 8.643055 0 0 0 110.14329 95.72 A 8.643055 8.643055 0 0 0 108.43383 90.559591 L 109.96862 90.559591 L 109.96862 89.937407 L 107.92327 89.937407 A 8.643055 8.643055 0 0 0 107.7331 89.732251 L 109.25393 88.211414 L 108.81417 87.771648 L 107.2861 89.29972 A 8.643055 8.643055 0 0 0 107.13933 89.171045 L 107.13933 87.253333 L 106.51715 87.253333 L 106.51715 88.68167 A 8.643055 8.643055 0 0 0 101.5004 87.0766 z M 101.5004 87.892054 A 7.8279305 7.8279305 0 0 1 109.32835 95.72 A 7.8279305 7.8279305 0 0 1 101.5004 103.54795 A 7.8279305 7.8279305 0 0 1 93.672457 95.72 A 7.8279305 7.8279305 0 0 1 101.5004 87.892054 z M 101.49989 89.069243 A 2.7571316 2.7571316 0 0 0 98.815812 91.200379 L 96.561686 91.200379 L 96.526546 91.200896 C 95.402111 92.437475 94.778656 94.048622 94.777816 95.72 C 94.778185 99.053792 97.221925 101.88371 100.5201 102.36972 L 100.51287 102.36559 C 100.48587 102.27259 100.47204 102.17618 100.47204 102.0793 C 100.47217 101.51141 100.93251 101.05107 101.5004 101.05094 C 102.06829 101.05107 102.52863 101.51141 102.52876 102.0793 C 102.52866 102.1773 102.51461 102.27471 102.48691 102.36869 L 102.49001 102.36869 L 102.49207 102.36662 C 105.78453 101.87543 108.2218 99.048573 108.22247 95.719483 C 108.22234 94.048455 107.59983 92.43735 106.47633 91.200379 L 106.4386 91.200379 L 104.18499 91.200379 A 2.7571316 2.7571316 0 0 0 101.49989 89.069243 z M 101.49989 89.588591 A 2.2381053 2.2381053 0 0 1 103.64859 91.200379 L 101.81098 91.200379 L 101.81098 90.714104 L 101.18931 90.714104 L 101.18931 91.200379 L 99.353247 91.200379 A 2.2381053 2.2381053 0 0 1 101.49989 89.588591 z M 96.909985 91.822563 L 98.742948 91.822563 A 2.7571316 2.7571316 0 0 0 98.742948 91.826697 A 2.7571316 2.7571316 0 0 0 101.49989 94.583635 A 2.7571316 2.7571316 0 0 0 104.25734 91.826697 A 2.7571316 2.7571316 0 0 0 104.25734 91.826181 A 2.7571316 2.7571316 0 0 0 104.25734 91.825664 A 2.7571316 2.7571316 0 0 0 104.25734 91.825147 A 2.7571316 2.7571316 0 0 0 104.25734 91.82463 A 2.7571316 2.7571316 0 0 0 104.25734 91.824113 A 2.7571316 2.7571316 0 0 0 104.25734 91.823597 A 2.7571316 2.7571316 0 0 0 104.25734 91.82308 A 2.7571316 2.7571316 0 0 0 104.25734 91.822563 L 106.0934 91.822563 C 107.01113 92.903931 107.52465 94.283103 107.52484 95.72 C 107.52284 98.528611 105.58421 100.94579 102.87965 101.58062 C 102.66966 100.99947 102.11833 100.61195 101.5004 100.61117 C 100.88248 100.61195 100.33115 100.99947 100.12116 101.58062 C 97.414972 100.94587 95.477508 98.527574 95.475447 95.72 C 95.476361 94.282684 95.991212 92.903568 96.909985 91.822563 z M 99.26178 91.822563 L 100.4462 91.822563 A 1.1955065 1.1955065 0 0 0 100.30461 92.383252 A 1.1955065 1.1955065 0 0 0 101.49989 93.578528 A 1.1955065 1.1955065 0 0 0 102.69568 92.383252 A 1.1955065 1.1955065 0 0 0 102.55564 91.822563 L 103.73799 91.822563 A 2.2381053 2.2381053 0 0 1 103.73799 91.82308 A 2.2381053 2.2381053 0 0 1 103.73799 91.823597 A 2.2381053 2.2381053 0 0 1 103.73799 91.824113 A 2.2381053 2.2381053 0 0 1 103.73799 91.82463 A 2.2381053 2.2381053 0 0 1 103.73799 91.825147 A 2.2381053 2.2381053 0 0 1 103.73799 91.825664 A 2.2381053 2.2381053 0 0 1 103.73799 91.826181 A 2.2381053 2.2381053 0 0 1 103.73799 91.826697 A 2.2381053 2.2381053 0 0 1 101.49989 94.064804 A 2.2381053 2.2381053 0 0 1 99.26178 91.826697 A 2.2381053 2.2381053 0 0 1 99.26178 91.822563 z M 100.95263 91.822563 L 102.04972 91.822563 A 0.78540248 0.78540248 0 0 1 102.28537 92.383252 A 0.78540248 0.78540248 0 0 1 101.49989 93.168734 A 0.78540248 0.78540248 0 0 1 100.71492 92.383252 A 0.78540248 0.78540248 0 0 1 100.95263 91.822563 z M 101.51694 95.38462 A 3.9297912 3.9297912 0 0 0 98.909346 96.37474 L 99.201318 96.666712 A 3.9297912 3.9297912 0 0 1 103.79639 96.64139 L 104.09094 96.346835 A 3.9297912 3.9297912 0 0 0 101.51694 95.38462 z M 101.51694 96.494113 A 2.6966534 2.6966534 0 0 0 99.717566 97.182959 L 99.982666 97.44806 A 2.6966534 2.6966534 0 0 1 103.01504 97.422221 L 103.28376 97.154021 A 2.6966534 2.6966534 0 0 0 101.51694 96.494113 z M 101.51694 97.520407 A 1.6112161 1.6112161 0 0 0 100.45551 97.920899 L 100.67203 98.137423 A 1.6112161 1.6112161 0 0 1 102.32361 98.113652 L 102.54582 97.89196 A 1.6112161 1.6112161 0 0 0 101.51694 97.520407 z M 101.51694 98.439214 A 0.48123398 0.48123398 0 0 0 101.03583 98.920321 A 0.48123398 0.48123398 0 0 0 101.51694 99.401429 A 0.48123398 0.48123398 0 0 0 101.99805 98.920321 A 0.48123398 0.48123398 0 0 0 101.51694 98.439214 z " /></g></svg>
