<svg width="17.638887mm" height="17.638887mm" viewBox="0 0 17.638887 17.638887" version="1.1" xmlns="http://www.w3.org/2000/svg" ><g transform="translate(-92.680786,-86.900383)"><path style="fill:#d4d4d4;" d="m 95.40422,87.605847 c -1.06808,0 -1.62936,0.758653 -1.62936,1.503784 v 4.520138 0.05943 h 0.7984 v 7.378871 h -0.7984 v 0.48681 0.3116 0.46354 c 0,0.74513 0.56128,1.50379 1.62936,1.50379 h 12.19202 c 1.06809,0 1.62936,-0.75866 1.62936,-1.50379 v -0.46354 -0.3116 -0.48681 h -0.87437 v -7.378871 h 0.87437 v -4.579566 c 0,-0.745131 -0.56127,-1.503784 -1.62936,-1.503784 z m -0.0305,0.798401 h 12.25248 c 0.384,0 0.80099,0.208795 0.80099,0.685746 v 3.800802 H 94.57325 v -3.801318 c 0,-0.476958 0.41648,-0.68523 0.80047,-0.68523 z m 7.83673,0.748275 a 1.4484842,1.4484842 0 0 0 -1.44849,1.44849 1.4484842,1.4484842 0 0 0 1.44849,1.448491 1.4484842,1.4484842 0 0 0 1.44849,-1.448491 1.4484842,1.4484842 0 0 0 -1.44849,-1.44849 z m -7.45484,0.08527 v 2.726449 h 4.81263 v -2.726449 z m 7.45484,0.426331 a 0.93679583,0.93679583 0 0 1 0.9369,0.936893 0.93679583,0.93679583 0 0 1 -0.9369,0.936894 0.93679583,0.93679583 0 0 1 -0.93689,-0.936894 0.93679583,0.93679583 0 0 1 0.93689,-0.936893 z m 2.95383,0.0078 a 0.92930216,0.92930216 0 0 0 -0.92914,0.929142 0.92930216,0.92930216 0 0 0 0.92914,0.929143 0.92930216,0.92930216 0 0 0 0.92966,-0.929143 0.92930216,0.92930216 0 0 0 -0.92966,-0.929142 z m -10.02988,0.0217 h 4.05505 V 91.5085 H 96.1344 Z m 10.02988,0.334347 a 0.57308275,0.57308275 0 0 1 0.57309,0.573091 0.57308275,0.57308275 0 0 1 -0.57309,0.573092 0.57308275,0.57308275 0 0 1 -0.57309,-0.573092 0.57308275,0.57308275 0 0 1 0.57309,-0.573091 z m -10.79263,3.661275 h 3.53622 v 2.6479 0.373621 h 0.37362 4.81108 0.0263 v -1.262972 h 2.41278 a 0.44661049,0.44661049 0 0 0 0.44648,-0.446484 0.44661049,0.44661049 0 0 0 -0.44648,-0.447002 h -2.41278 v -0.865063 h 3.4339 v 7.378874 H 95.3716 Z m 3.90984,0 h 4.46381 v 0.865063 h -1.68 a 0.44661049,0.44661049 0 0 0 -0.447,0.447002 0.44661049,0.44661049 0 0 0 0.447,0.446484 h 1.68 v 0.889351 h -4.46381 z m -1.37253,3.550688 c -0.4037,0.0095 -0.71468,0.316139 -0.71468,0.718819 v 1.191142 c 0,0.409068 0.32075,0.718819 0.73381,0.718819 h 0.97978 v 0.372066 c 0,0.41305 0.30975,0.73381 0.71882,0.73381 h 3.77341 c 0.40907,0 0.71882,-0.32076 0.71882,-0.73381 v -3.000895 h -6.19083 c -0.007,0 -0.0127,-1.51e-4 -0.0191,0 z m -0.006,0.37362 c 0.006,-1.68e-4 0.0127,0 0.0191,0 h 0.98599 v 1.881539 h -0.98599 c -0.2041,0 -0.35398,-0.08481 -0.35398,-0.325045 v -1.231449 c 0,-0.23273 0.14051,-0.319843 0.33486,-0.325045 z m -3.32951,4.252966 h 13.85394 v 0.48318 c 0,0.47696 -0.41699,0.68575 -0.80099,0.68575 H 95.37392 c -0.38399,0 -0.80047,-0.20827 -0.80047,-0.68523 z" /></g></svg>
