<svg width="17.638887mm" height="17.638887mm" viewBox="0 0 17.638887 17.638887" version="1.1" xmlns="http://www.w3.org/2000/svg"><path style="fill:#d4d4d4;" d="m 0.9028727,0.4411435 -0.276469,0.2769857 v 0.3188436 4.3330689 1.4154174 0.8015015 8.9482914 0.37362 l 0.288355,0.288872 h 14.4973063 1.282609 l 0.31781,-0.318327 V 16.535252 7.5869606 6.5947731 6.2128843 5.3700417 3.1221168 L 14.331511,0.4411435 H 10.918283 3.5936647 Z m 2.913001,0.5958293 h 6.8342083 l 0.268201,0.2676839 V 5.1979591 L 10.7462,5.3700417 H 3.7760827 L 3.5936647,5.1876238 V 1.2596982 Z m 5.120618,0.8588623 V 4.9959043 H 10.457329 V 1.8958351 Z M 2.8490077,7.5869606 H 14.826055 l 0.58601,0.5860107 v 7.8496507 l -0.51263,0.51263 H 2.7518557 L 2.2268237,16.010219 V 8.2091448 Z m 0.09095,0.9306925 V 9.4840029 H 14.698931 V 8.5176531 Z m 0,2.7145629 v 0.145211 H 14.698931 v -0.145211 z m 0,2.062923 V 13.44035 H 14.698931 v -0.145211 z m 0,2.06294 v 0.144694 H 14.698931 v -0.144694 z" /></svg>
