<svg width="17.638887mm" height="17.638887mm" viewBox="0 0 17.638887 17.638887" version="1.1" xmlns="http://www.w3.org/2000/svg"><g transform="translate(-92.680786,-86.900383)"><path style="fill:#d4d4d4;" d="M 96.82937 87.0766 A 3.9722371 3.9722371 0 0 0 92.857003 91.048967 A 3.9722371 3.9722371 0 0 0 96.82937 95.021334 A 3.9722371 3.9722371 0 0 0 98.793074 94.501469 C 98.920449 94.927451 99.00071 95.385603 99.005465 95.871412 C 99.005496 95.874612 99.00544 95.877513 99.005465 95.880713 C 99.002659 96.266041 98.951822 96.633676 98.868005 96.981938 A 3.9722371 3.9722371 0 0 0 96.82937 96.418148 A 3.9722371 3.9722371 0 0 0 92.857003 100.39052 A 3.9722371 3.9722371 0 0 0 96.82937 104.36288 A 3.9722371 3.9722371 0 0 0 100.80174 100.39052 A 3.9722371 3.9722371 0 0 0 100.3382 98.528614 C 100.70449 98.435718 101.09289 98.379163 101.50092 98.376168 C 101.50392 98.376144 101.50674 98.376185 101.51074 98.376168 C 101.91677 98.380142 102.30312 98.436766 102.66777 98.529647 A 3.9722371 3.9722371 0 0 0 102.19855 100.39052 A 3.9722371 3.9722371 0 0 0 106.17092 104.36288 A 3.9722371 3.9722371 0 0 0 110.14329 100.39052 A 3.9722371 3.9722371 0 0 0 106.17092 96.418148 A 3.9722371 3.9722371 0 0 0 104.13332 96.985039 C 104.04977 96.63918 103.99859 96.274505 103.99482 95.892082 C 103.99483 95.888882 103.99479 95.88598 103.99482 95.88278 C 103.99843 95.390781 104.08 94.927527 104.20928 94.496819 A 3.9722371 3.9722371 0 0 0 106.17092 95.021334 A 3.9722371 3.9722371 0 0 0 110.14329 91.048967 A 3.9722371 3.9722371 0 0 0 106.17092 87.0766 A 3.9722371 3.9722371 0 0 0 102.19855 91.048967 A 3.9722371 3.9722371 0 0 0 102.82694 93.189922 C 102.41283 93.309158 101.96916 93.383905 101.49937 93.387326 C 101.49637 93.387352 101.49355 93.387311 101.48955 93.387326 C 101.0245 93.382749 100.58521 93.308542 100.1749 93.190438 A 3.9722371 3.9722371 0 0 0 100.80174 91.048967 A 3.9722371 3.9722371 0 0 0 96.82937 87.0766 z M 96.82937 87.735991 A 3.3128476 3.3128476 0 0 1 100.14235 91.048967 A 3.3128476 3.3128476 0 0 1 99.533081 92.963062 C 98.831995 92.668452 98.239104 92.269222 97.776082 91.925399 A 1.2697035 1.2697035 0 0 0 97.986405 90.501714 C 98.627961 90.181915 99.13569 89.478239 99.135689 88.742648 C 98.438628 88.742648 97.741277 89.25197 97.430884 89.93379 A 1.2697035 1.2697035 0 0 0 95.94932 90.162716 A 1.2697035 1.2697035 0 0 0 95.720911 91.64738 C 95.035608 91.956191 94.523051 92.655861 94.523051 93.355286 C 95.261423 93.355286 95.967648 92.843756 96.285734 92.198768 A 1.2697035 1.2697035 0 0 0 97.523901 92.130038 C 97.865056 92.587539 98.264657 93.175284 98.563114 93.871534 A 3.3128476 3.3128476 0 0 1 96.82937 94.361943 A 3.3128476 3.3128476 0 0 1 93.516394 91.048967 A 3.3128476 3.3128476 0 0 1 96.82937 87.735991 z M 106.17092 87.735991 A 3.3128476 3.3128476 0 0 1 109.48389 91.048967 A 3.3128476 3.3128476 0 0 1 106.17092 94.361943 A 3.3128476 3.3128476 0 0 1 104.43976 93.866366 C 104.73796 93.172709 105.13606 92.586368 105.47639 92.130038 A 1.2697035 1.2697035 0 0 0 106.71455 92.198768 C 107.03264 92.843756 107.73886 93.355286 108.47724 93.355286 C 108.47724 92.655861 107.96468 91.956191 107.27938 91.64738 A 1.2697035 1.2697035 0 0 0 107.05097 90.162716 A 1.2697035 1.2697035 0 0 0 105.5694 89.93379 C 105.25904 89.25197 104.56166 88.742648 103.8646 88.742648 C 103.8646 89.478239 104.37233 90.181915 105.01388 90.501714 A 1.2697035 1.2697035 0 0 0 105.22731 91.924366 C 104.76427 92.268311 104.17107 92.667574 103.46927 92.962545 A 3.3128476 3.3128476 0 0 1 102.85794 91.048967 A 3.3128476 3.3128476 0 0 1 106.17092 87.735991 z M 96.84694 90.295525 A 0.76517832 0.76517832 0 0 1 97.387992 90.519284 A 0.76517832 0.76517832 0 0 1 97.387992 91.601905 A 0.76517832 0.76517832 0 0 1 96.305888 91.601905 A 0.76517832 0.76517832 0 0 1 96.305888 90.519284 A 0.76517832 0.76517832 0 0 1 96.84694 90.295525 z M 106.15335 90.295525 A 0.76517832 0.76517832 0 0 1 106.6944 90.519284 A 0.76517832 0.76517832 0 0 1 106.6944 91.601905 A 0.76517832 0.76517832 0 0 1 105.6123 91.601905 A 0.76517832 0.76517832 0 0 1 105.6123 90.519284 A 0.76517832 0.76517832 0 0 1 106.15335 90.295525 z M 99.829704 94.049301 C 100.94328 94.429437 102.05707 94.382321 103.17058 94.049301 C 102.60905 95.102524 102.68521 96.224454 103.17058 97.390182 C 102.06966 97.129463 100.95844 97.075998 99.829704 97.390182 C 100.23724 96.292264 100.2362 95.178478 99.829704 94.049301 z M 96.82937 97.07754 A 3.3128476 3.3128476 0 0 1 98.666467 97.634095 C 98.401778 98.337887 98.022995 98.941351 97.676863 99.424166 A 1.2697035 1.2697035 0 0 0 96.285734 99.240715 C 95.967648 98.595726 95.261423 98.084196 94.523051 98.084196 C 94.523051 98.783626 95.035608 99.483292 95.720911 99.792103 A 1.2697035 1.2697035 0 0 0 95.94932 101.27677 A 1.2697035 1.2697035 0 0 0 97.430884 101.50569 C 97.741277 102.18751 98.438621 102.69683 99.135689 102.69683 C 99.135689 101.96126 98.627961 101.25757 97.986405 100.93777 A 1.2697035 1.2697035 0 0 0 97.933695 99.722856 C 98.409206 99.380214 99.003173 99.002051 99.697412 98.733769 A 3.3128476 3.3128476 0 0 1 100.14235 100.39052 A 3.3128476 3.3128476 0 0 1 96.82937 103.70349 A 3.3128476 3.3128476 0 0 1 93.516394 100.39052 A 3.3128476 3.3128476 0 0 1 96.82937 97.07754 z M 106.17092 97.07754 A 3.3128476 3.3128476 0 0 1 109.48389 100.39052 A 3.3128476 3.3128476 0 0 1 106.17092 103.70349 A 3.3128476 3.3128476 0 0 1 102.85794 100.39052 A 3.3128476 3.3128476 0 0 1 103.30753 98.73532 C 104.0018 99.00412 104.59558 99.382359 105.07073 99.724923 A 1.2697035 1.2697035 0 0 0 105.01388 100.93777 C 104.37233 101.25757 103.8646 101.96126 103.8646 102.69683 C 104.56166 102.69683 105.25904 102.18751 105.5694 101.50569 A 1.2697035 1.2697035 0 0 0 107.05097 101.27677 A 1.2697035 1.2697035 0 0 0 107.27938 99.792103 C 107.96468 99.483292 108.47724 98.783626 108.47724 98.084196 C 107.73886 98.084196 107.03264 98.595726 106.71455 99.240715 A 1.2697035 1.2697035 0 0 0 105.32394 99.42365 C 104.97816 98.941312 104.59905 98.339341 104.33434 97.636679 A 3.3128476 3.3128476 0 0 1 106.17092 97.07754 z M 96.761674 99.61847 A 0.76517832 0.76517832 0 0 1 97.387992 99.837578 A 0.76517832 0.76517832 0 0 1 97.387992 100.9202 A 0.76517832 0.76517832 0 0 1 96.84694 101.14396 A 0.76517832 0.76517832 0 0 1 96.305888 100.9202 A 0.76517832 0.76517832 0 0 1 96.305888 99.837578 A 0.76517832 0.76517832 0 0 1 96.761674 99.61847 z M 106.06808 99.61847 A 0.76517832 0.76517832 0 0 1 106.6944 99.837578 A 0.76517832 0.76517832 0 0 1 106.6944 100.9202 A 0.76517832 0.76517832 0 0 1 106.15335 101.14396 A 0.76517832 0.76517832 0 0 1 105.6123 100.9202 A 0.76517832 0.76517832 0 0 1 105.6123 99.837578 A 0.76517832 0.76517832 0 0 1 106.06808 99.61847 z " /></g></svg>
