<svg width="17.638887mm" height="17.638887mm" viewBox="0 0 17.638887 17.638887" version="1.1" xmlns="http://www.w3.org/2000/svg" ><g transform="translate(-92.680786,-86.900383)"><path style="fill:#d4d4d4;" d="M 97.769364 87.81919 C 96.812267 87.81919 95.902812 88.571068 95.902812 89.463534 L 95.902812 102.04778 C 95.902812 102.94025 96.812267 103.69212 97.769364 103.69212 L 105.25366 103.69212 C 106.21077 103.69212 107.1197 102.94025 107.1197 102.04778 L 107.1197 89.463534 C 107.1197 88.571068 106.21077 87.81919 105.25366 87.81919 L 97.769364 87.81919 z M 97.741976 88.47238 L 105.28053 88.47238 C 105.84962 88.47238 106.46599 88.829287 106.46599 89.463534 L 106.46599 102.04778 C 106.46599 102.68203 105.84962 103.03893 105.28053 103.03893 L 97.741976 103.03893 C 97.172896 103.03893 96.556518 102.68203 96.556518 102.04778 L 96.556518 89.463534 C 96.556518 88.829287 97.172892 88.47238 97.741976 88.47238 z M 101.5004 88.684253 A 0.41940704 0.41940704 0 0 0 101.08079 89.103349 A 0.41940704 0.41940704 0 0 0 101.5004 89.522962 A 0.41940704 0.41940704 0 0 0 101.92002 89.103349 A 0.41940704 0.41940704 0 0 0 101.5004 88.684253 z M 97.641207 89.730701 C 97.316807 89.730701 96.932723 90.094767 96.932723 90.392676 L 96.932723 100.6768 C 96.932723 100.97471 97.316807 101.33878 97.641207 101.33878 L 105.3596 101.33878 C 105.684 101.33878 106.06808 100.97471 106.06808 100.6768 L 106.06808 90.392676 C 106.06808 90.094767 105.684 89.730701 105.3596 89.730701 L 97.641207 89.730701 z M 97.610201 90.209742 L 105.3906 90.209742 C 105.50525 90.209742 105.58904 90.288992 105.58904 90.383375 L 105.58904 100.6861 C 105.58904 100.7805 105.50524 100.85974 105.3906 100.85974 L 97.610201 100.85974 C 97.495561 100.85974 97.411763 100.78054 97.411763 100.6861 L 97.411763 90.383375 C 97.411763 90.288995 97.495513 90.209742 97.610201 90.209742 z M 99.524296 90.809188 C 99.479994 90.811612 99.436299 90.829901 99.40234 90.863965 L 98.420487 91.845818 C 98.347767 91.918287 98.347197 92.035527 98.418937 92.1073 C 98.490707 92.17901 98.607434 92.177923 98.679903 92.105233 L 99.661755 91.123381 C 99.734475 91.050911 99.735552 90.93418 99.663822 90.862415 C 99.625695 90.824319 99.574505 90.806441 99.524296 90.809188 z M 99.735136 91.911447 C 99.68785 91.911777 99.640619 91.930405 99.604394 91.96674 L 98.622542 92.948593 C 98.549842 93.021063 98.548975 93.137786 98.620475 93.209559 C 98.692275 93.281269 98.809488 93.280698 98.881958 93.208008 L 99.86381 92.226156 C 99.93651 92.153686 99.93686 92.036438 99.86536 91.964673 C 99.82946 91.928818 99.782422 91.911117 99.735136 91.911447 z M 101.51125 101.59096 A 0.63069606 0.63069606 0 0 0 100.8808 102.22193 A 0.63069606 0.63069606 0 0 0 101.51125 102.85238 A 0.63069606 0.63069606 0 0 0 102.14171 102.22193 A 0.63069606 0.63069606 0 0 0 101.51125 101.59096 z M 101.51125 101.78991 A 0.4320029 0.4320029 0 0 1 101.94327 102.22193 A 0.4320029 0.4320029 0 0 1 101.51125 102.65343 A 0.4320029 0.4320029 0 0 1 101.07924 102.22193 A 0.4320029 0.4320029 0 0 1 101.51125 101.78991 z " /></g></svg>
