<svg width="50" height="50" viewBox="0 0 13.229166 13.229167" version="1.1" xmlns="http://www.w3.org/2000/svg"><g><path d="m 12.465946,8.1410257 c -0.181719,0 -0.399783,-0.072682 -0.545158,-0.2180638 L 6.6145844,2.6167582 1.3083791,7.9229619 c -0.2907507,0.2907507 -0.76322091,0.2907507 -1.09031581,0 -0.29075067,-0.2907506 -0.29075067,-0.7632209 0,-1.0903158 L 6.0694257,0.98128371 c 0.2907507,-0.29075067 0.7995651,-0.29075067 1.0903158,0 L 13.011103,6.8326461 c 0.290751,0.2907507 0.290751,0.7632209 0,1.0903158 -0.14538,0.1453802 -0.363437,0.2180638 -0.545157,0.2180638 z m 0,4.3249193 c -0.181719,0 -0.399783,-0.07268 -0.545158,-0.218062 L 6.6145844,6.9053346 1.3083791,12.247883 c -0.2907507,0.290751 -0.76322091,0.290751 -1.09031581,0 -0.29075067,-0.290751 -0.29075067,-0.763223 0,-1.090316 L 6.0694257,5.3062043 c 0.2907507,-0.2907507 0.7995651,-0.2907507 1.0903158,0 l 5.8513615,5.8513627 c 0.290751,0.290751 0.290751,0.763221 0,1.090316 -0.14538,0.14538 -0.363437,0.218062 -0.545157,0.218062 z" style="fill:#ffffff"/></g></svg>
