<svg width="17.638887mm" height="17.638887mm" viewBox="0 0 17.638887 17.638887" version="1.1" xmlns="http://www.w3.org/2000/svg" ><g transform="translate(-92.680786,-86.900383)"><path style="fill:#d4d4d4;" d="m 101.5004,88.305465 c -3.497699,-2.4e-4 -6.333197,2.919017 -6.332944,6.520016 0.0021,0.335495 0.02944,0.67032 0.08165,1.001489 l -0.788066,0.706934 0.139526,0.358634 -0.992704,0.890902 1.015959,2.60449 1.334285,-0.0176 0.139527,0.35864 1.530656,-0.0196 c 0.174638,1.0071 1.214854,1.64177 2.425692,1.48001 0.13067,0.47508 0.73828,0.81937 1.44642,0.81959 0.81316,-4e-5 1.47232,-0.45004 1.47226,-1.00511 5e-5,-0.55507 -0.6591,-1.00506 -1.47226,-1.0051 -0.79477,1.4e-4 -1.44594,0.43082 -1.47123,0.97306 -1.057706,0.14346 -1.983255,-0.41643 -2.120179,-1.26555 l 1.034462,-0.0139 -0.05943,-0.53847 -1.952852,-5.004348 0.0031,-0.0015 c -0.0075,-0.107311 -0.01166,-0.214858 -0.0124,-0.322461 -6e-5,-2.673897 2.049604,-4.841555 4.578019,-4.841565 2.52861,-2.89e-4 4.57859,2.167457 4.57853,4.841565 -9.6e-4,0.104156 -0.005,0.208251 -0.0124,0.312125 l -1.94614,4.987814 -0.0594,0.53846 2.84582,0.0367 0.13953,-0.35863 1.33429,0.0176 1.01595,-2.604492 -0.9927,-0.890902 0.13953,-0.358635 -0.78704,-0.7059 c 0.0493,-0.322259 0.075,-0.647874 0.077,-0.9741 2.5e-4,-3.600792 -2.83493,-6.519964 -6.33243,-6.520016 z m 0,0.719336 c 3.11162,6.5e-5 5.63399,2.597165 5.63377,5.80068 -4.6e-4,0.134497 -0.005,0.268937 -0.015,0.403076 l -0.53537,-0.480074 c -0.0396,-2.939265 -2.30378,-5.300136 -5.08341,-5.300452 -2.79092,5.11e-4 -5.059756,2.380058 -5.083408,5.331458 l -0.534334,0.479557 c -0.01076,-0.144259 -0.01628,-0.288882 -0.01654,-0.433565 -2.18e-4,-3.20372 2.522462,-5.800905 5.634279,-5.80068 z m 5.05499,6.34845 1.37563,1.212329 -1.4211,3.64164 -1.83297,-0.0398 z m -10.106875,0.02842 1.878438,4.814177 -1.832963,0.0398 -1.421102,-3.641638 z m 11.838555,1.760099 0.72915,0.642338 -0.88263,2.26136 -0.97152,-0.0212 z m -13.570233,0.02842 1.124996,2.882516 -0.971517,0.0212 -0.882633,-2.261358 z m 6.783563,4.112926 c 0.56684,1.1e-4 1.02628,0.3138 1.0263,0.70073 -1e-5,0.38693 -0.45945,0.70063 -1.0263,0.70074 -0.56705,8e-5 -1.0268,-0.31367 -1.02681,-0.70074 2e-5,-0.38707 0.45977,-0.70081 1.02681,-0.70073 z" /></g></svg>
