<svg  width="17.638887mm" height="17.638887mm" viewBox="0 0 17.638887 17.638887" version="1.1" xmlns="http://www.w3.org/2000/svg"><g transform="translate(-102.43042,-140.03561)"><path style="fill:#d4d4d4;" d="m 106.50158,143.71983 c -0.49603,0.007 -1.07287,0.31591 -1.54875,0.71466 -1.17396,0.96693 -1.35114,2.5025 -1.88479,5.60315 -0.0706,0.56697 -0.42212,2.49212 0.44243,3.35667 1.41257,1.41248 3.13831,0.2986 4.13176,-3.16471 0.28097,0.22325 0.6364,0.35683 1.02315,0.35684 0.42826,0 0.83966,-0.16686 1.14694,-0.46515 h 2.87507 c 0.30728,0.29829 0.71867,0.46515 1.14693,0.46515 0.38675,-1e-5 0.74219,-0.13359 1.02315,-0.35684 0.99343,3.46331 2.7192,4.57719 4.13177,3.16471 0.86455,-0.86455 0.51307,-2.7897 0.44243,-3.35667 -0.53365,-3.10065 -0.71082,-4.63622 -1.8848,-5.60315 -0.47588,-0.39875 -1.05272,-0.70718 -1.54876,-0.71466 -0.59866,-0.008 -1.23437,0.2025 -1.96119,0.55751 h -5.57413 c -0.72682,-0.35501 -1.36254,-0.56598 -1.96121,-0.55751 z m 1.87417,0.84715 v 2.3282 c -8.3e-4,0.21 0.12867,0.27706 0.28287,0.27706 h 5.18247 c 0.1542,0 0.28369,-0.0671 0.28286,-0.27706 v -2.3282 c 1.16164,-0.53253 2.28262,-0.33081 3.1797,0.18712 1.0675,0.61634 1.42419,3.87154 1.80888,5.36912 h 4.9e-4 c 0.11098,0.41419 0.27283,2.36432 -0.44339,3.08057 -1.446,1.446 -2.94931,-1.07066 -3.58781,-3.18936 0.24867,-0.28847 0.39896,-0.66416 0.39892,-1.07488 -3e-5,-0.18194 -0.0301,-0.35667 -0.0846,-0.52028 0.254,0.13618 0.53766,0.20759 0.82587,0.20791 0.96784,1.8e-4 1.75249,-0.78447 1.75231,-1.75231 -9e-5,-0.96766 -0.78465,-1.75201 -1.75231,-1.75184 -0.96747,1.1e-4 -1.75173,0.78437 -1.75183,1.75184 2.8e-4,0.20283 0.0357,0.40405 0.10492,0.59474 -0.22273,-0.1125 -0.47419,-0.17644 -0.74076,-0.17649 -0.90942,-10e-5 -1.64675,0.73701 -1.64691,1.64643 6e-5,0.30016 0.0821,0.5946 0.23741,0.85149 h -2.34995 c 0.15527,-0.25689 0.23736,-0.55133 0.23741,-0.85149 -1.6e-4,-0.90942 -0.73749,-1.64653 -1.6469,-1.64643 -0.25065,5e-5 -0.48799,0.0564 -0.70063,0.15666 0.0833,-0.20739 0.12612,-0.42879 0.1262,-0.65228 -9e-5,-0.96766 -0.78466,-1.75201 -1.75232,-1.75183 -0.96747,9e-5 -1.75174,0.78436 -1.75183,1.75183 -1.7e-4,0.96766 0.78417,1.75222 1.75183,1.75231 0.27207,1.2e-4 0.54043,-0.0632 0.78381,-0.1847 -0.0666,0.17885 -0.10344,0.37238 -0.10348,0.57444 -4e-5,0.41072 0.15025,0.78641 0.39891,1.07488 -0.63849,2.1187 -2.1418,4.63536 -3.58779,3.18936 -0.71625,-0.71625 -0.55437,-2.66638 -0.44339,-3.08057 h 4.7e-4 c 0.38469,-1.49758 0.74137,-4.75278 1.80889,-5.36912 1.05481,-0.56247 2.1857,-0.6334 3.1797,-0.18712 z m 0.33025,0.0406 h 5.0877 v 2.2344 h -5.0877 z m 7.52905,0.74609 c 0.30225,1e-4 0.54726,0.2451 0.54735,0.54736 -9e-5,0.30225 -0.2451,0.54726 -0.54735,0.54736 -0.30226,-1e-4 -0.54727,-0.24511 -0.54736,-0.54736 9e-5,-0.30226 0.2451,-0.54727 0.54736,-0.54736 z m -9.87465,0.0812 c 0.12954,3e-5 0.25633,0.0361 0.38102,0.10783 v 0.71852 l -0.38586,0.29495 -0.39117,-0.29495 v -0.71852 c 0.13442,-0.0718 0.26645,-0.10786 0.39601,-0.10783 z m 8.89744,0.89114 c 0.30225,1e-4 0.54725,0.2451 0.54735,0.54736 -10e-5,0.30225 -0.2451,0.54725 -0.54735,0.54736 -0.30246,1.7e-4 -0.54776,-0.24491 -0.54785,-0.54736 9e-5,-0.30245 0.24539,-0.54754 0.54785,-0.54736 z m 1.91187,0.002 c 0.30245,-1.8e-4 0.54775,0.24491 0.54784,0.54736 1.7e-4,0.30264 -0.2452,0.54801 -0.54784,0.54783 -0.30244,-1e-4 -0.54752,-0.24539 -0.54735,-0.54783 9e-5,-0.30226 0.24509,-0.54726 0.54735,-0.54736 z m -10.26873,0.0923 h 0.71853 c 0.0718,0.13442 0.10785,0.26646 0.10783,0.39601 -3e-5,0.12955 -0.0361,0.25633 -0.10783,0.38102 h -0.71853 l -0.29495,-0.38584 z m -1.8142,4.9e-4 h 0.71901 l 0.29447,0.39117 -0.29447,0.38586 h -0.71901 c -0.14328,-0.24937 -0.14352,-0.50818 0,-0.77703 z m 1.26926,0.64116 0.38586,0.29447 v 0.71901 c -0.24937,0.14328 -0.50818,0.14352 -0.77704,0 v -0.71901 z m 9.87707,0.20405 c 0.30264,-1.7e-4 0.54802,0.2452 0.54784,0.54784 -9e-5,0.30244 -0.24539,0.54753 -0.54784,0.54736 -0.30225,-9e-5 -0.54726,-0.2451 -0.54736,-0.54736 -1.7e-4,-0.30245 0.24491,-0.54775 0.54736,-0.54784 z m -7.56869,0.31719 c 0.73186,-1.7e-4 1.32527,0.59302 1.32535,1.32488 -9e-5,0.73186 -0.59349,1.32505 -1.32535,1.32487 -0.73167,-8e-5 -1.32479,-0.5932 -1.32488,-1.32487 8e-5,-0.73167 0.59321,-1.32479 1.32488,-1.32488 z m 5.17087,0 c 0.73164,9e-5 1.32479,0.59321 1.32487,1.32488 -9e-5,0.73167 -0.59323,1.32479 -1.32487,1.32487 -0.73186,1.8e-4 -1.32527,-0.59301 -1.32536,-1.32487 8e-5,-0.73186 0.5935,-1.32505 1.32536,-1.32488 z m -5.17087,0.29882 c -0.56665,9e-5 -1.02597,0.45942 -1.02606,1.02606 -1.8e-4,0.56683 0.45923,1.02645 1.02606,1.02654 0.56702,1.7e-4 1.02671,-0.45952 1.02653,-1.02654 -8e-5,-0.56683 -0.4597,-1.02623 -1.02653,-1.02606 z m 5.17087,0 c -0.56683,-1.7e-4 -1.02646,0.45923 -1.02654,1.02606 -1.8e-4,0.56702 0.45952,1.02671 1.02654,1.02654 0.5668,-9e-5 1.02623,-0.45971 1.02605,-1.02654 -9e-5,-0.56664 -0.45943,-1.02597 -1.02605,-1.02606 z m -2.58544,0.47967 c -0.3087,0 -0.55896,0.25026 -0.55896,0.55896 0,0.3087 0.25026,0.55896 0.55896,0.55896 0.30871,0 0.55897,-0.25026 0.55897,-0.55896 0,-0.3087 -0.25026,-0.55896 -0.55897,-0.55896 z" /></g></svg>
