<svg width="17.638887mm" height="17.638887mm" viewBox="0 0 17.638887 17.638887" version="1.1" xmlns="http://www.w3.org/2000/svg"><path style="fill:#d4d4d4" d="m 2.2742426,2.7895629 c -0.3096108,0 -0.6284643,0.3328718 -0.6284643,0.637032 V 11.935308 L 0.04211085,13.85598 c -0.15707483,0.157072 0.11932531,0.993346 0.92934056,0.993345 H 7.6522238 9.9866639 16.667436 c 0.810015,10e-7 1.086413,-0.836273 0.929342,-0.993345 L 15.993109,11.935308 V 3.4265949 c 0,-0.3041602 -0.318853,-0.637032 -0.628464,-0.637032 z m 0.7600027,0.637032 H 14.604642 c 0.233051,0 0.463158,0.2627434 0.463158,0.4989412 v 6.8743019 c 0,0.236199 -0.230107,0.49894 -0.463158,0.49894 H 3.0342453 c -0.2330478,0 -0.4631581,-0.262741 -0.4631581,-0.49894 V 3.9255361 c 0,-0.2361978 0.2301103,-0.4989412 0.4631581,-0.4989412 z M 6.9154031,5.7615389 8.1839235,9.5287967 8.6788332,8.0012305 10.244199,9.5696194 10.703324,9.0671503 9.1571114,7.5421038 10.672078,7.0315711 Z M 6.6482933,13.30563 h 4.3422997 l 0.462656,0.588651 H 6.1856393 Z m 0.8784396,0.918759 c 0.00312,-1.39e-4 0.00637,0 0.00958,0 h 2.5662701 c 0.103798,0 0.17085,0.07134 0.17085,0.158249 0,0.08027 -0.06365,0.17085 -0.17085,0.17085 H 7.5363081 c -0.1071966,0 -0.1703453,-0.09058 -0.1703453,-0.17085 0,-0.08419 0.06249,-0.153958 0.1607701,-0.158249 z" /></svg>
