<svg width="17.638887mm" height="17.638887mm" viewBox="0 0 17.638887 17.638887" version="1.1" xmlns="http://www.w3.org/2000/svg" ><g transform="translate(-92.680786,-86.900383)"><path style="fill:#d4d4d4;" d="M 94.485327 88.511137 C 93.98151 88.511137 93.567554 88.952244 93.567554 89.417542 L 93.567554 99.529586 C 93.567554 99.994884 93.98151 100.43599 94.485327 100.43599 L 99.550651 100.43599 L 99.550651 101.20442 L 97.815873 102.9392 L 105.20199 102.9392 L 103.46721 101.20442 L 103.46721 100.43599 L 108.51496 100.43599 C 109.01878 100.43599 109.43274 99.994884 109.43274 99.529586 L 109.43274 89.417542 C 109.43274 88.952244 109.01878 88.511137 108.51496 88.511137 L 94.485327 88.511137 z M 94.48171 89.164327 L 108.5191 89.164327 C 108.66083 89.164327 108.77954 89.266121 108.77954 89.40824 L 108.77954 97.702824 L 94.220744 97.702824 L 94.220744 89.40824 C 94.220744 89.266121 94.339978 89.164327 94.48171 89.164327 z M 95.640295 89.592725 C 95.166617 89.592725 94.723555 90.034668 94.723555 90.491895 L 94.723555 96.395927 C 94.723555 96.853155 95.166617 97.295097 95.640295 97.295097 L 107.36051 97.295097 C 107.83419 97.295097 108.27725 96.853155 108.27725 96.395927 L 108.27725 90.491895 C 108.27725 90.034668 107.83419 89.592725 107.36051 89.592725 L 95.640295 89.592725 z M 95.63151 90.071766 L 107.3693 90.071766 C 107.60617 90.071766 107.79821 90.214929 107.79821 90.481043 L 107.79821 96.406779 C 107.79821 96.672893 107.60617 96.816057 107.3693 96.816057 L 95.63151 96.816057 C 95.394631 96.816057 95.202596 96.672893 95.202596 96.406779 L 95.202596 90.481043 C 95.202596 90.214929 95.394635 90.071766 95.63151 90.071766 z M 94.220744 98.356015 L 108.77954 98.356015 L 108.77954 99.538888 C 108.77954 99.681007 108.66083 99.782801 108.5191 99.782801 L 94.48171 99.782801 C 94.339978 99.782801 94.220744 99.681007 94.220744 99.538888 L 94.220744 98.356015 z M 101.5004 98.619048 A 0.46599212 0.46599212 0 0 0 101.03428 99.085169 A 0.46599212 0.46599212 0 0 0 101.5004 99.55129 A 0.46599212 0.46599212 0 0 0 101.96601 99.085169 A 0.46599212 0.46599212 0 0 0 101.5004 98.619048 z M 101.5004 98.776661 A 0.30847061 0.30847061 0 0 1 101.80891 99.085169 A 0.30847061 0.30847061 0 0 1 101.5004 99.393677 A 0.30847061 0.30847061 0 0 1 101.19189 99.085169 A 0.30847061 0.30847061 0 0 1 101.5004 98.776661 z M 100.20384 100.43599 L 102.81402 100.43599 L 102.81402 101.4752 L 103.62482 102.28601 L 99.393038 102.28601 L 100.20384 101.4752 L 100.20384 100.43599 z " /></g></svg>
