<svg width="17.638887mm" height="17.638887mm" viewBox="0 0 17.638887 17.638887" version="1.1" xmlns="http://www.w3.org/2000/svg" ><g transform="translate(-92.680786,-86.900383)"><path style="fill:#d4d4d4;" d="m 100.97124,87.665711 c -1.360421,-0.0039 -2.684602,0.804718 -2.978117,1.900142 -0.502055,1.873682 0.172782,3.871287 -3.016353,4.72581 l 0.326595,0.56534 c 2.549131,-0.402455 3.002133,-2.391286 3.217891,-4.856034 0.124905,-1.465435 4.376134,-3.18708 5.020884,1.031978 -0.24922,0.110626 -0.45025,0.311845 -0.56482,0.56534 -1.17473,0.150809 -2.27135,0.588244 -3.00654,1.323434 v 6.961332 c 0.09777,2.144347 1.86403,3.833007 4.01061,3.834387 2.14658,-10e-4 3.91284,-1.69004 4.01061,-3.834387 v -6.917924 c -0.72546,-0.725443 -1.82071,-1.17918 -2.99879,-1.349788 -0.14216,-0.329588 -0.42738,-0.570335 -0.76894,-0.649056 -0.36025,-2.398538 -1.82658,-3.296492 -3.25303,-3.300574 z m 2.68355,4.488098 v 0.980819 h -0.56482 v 2.032951 h 0.56482 v 1.276408 h -3.03082 V 93.30361 c 0.92878,-0.719176 2.0625,-1.094721 3.03082,-1.149801 z m 0.65319,0.0036 c 1.17775,0.07039 2.31777,0.469315 3.03083,1.182357 v 3.104204 h -3.03083 v -1.276408 h 0.56483 v -2.032951 h -0.56483 z m -0.87333,1.369943 h 1.09347 v 1.247469 h -1.09347 z m -2.81068,3.569808 h 6.71484 v 2.785876 c -0.082,1.795004 -1.56054,3.208474 -3.35742,3.209624 -1.79688,-10e-4 -3.27543,-1.41462 -3.35742,-3.209624 z" /></g></svg>
