 <svg width="17.638887mm" height="17.638887mm" viewBox="0 0 17.638887 17.638887" version="1.1" xmlns="http://www.w3.org/2000/svg"><g transform="translate(-92.680786,-86.900383)"><path style="fill:#d4d4d4;" d="M 98.132133 88.010393 C 97.614043 88.010393 97.223661 88.439933 97.223661 88.927133 L 97.223144 101.89792 C 97.223144 102.38512 97.613534 102.81466 98.131616 102.81466 L 98.140401 102.81466 L 98.140401 103.30145 L 99.465385 103.30145 L 99.465385 102.81466 L 103.49976 102.81466 L 103.49976 103.30145 L 104.82475 103.30145 L 104.82475 102.81466 L 104.86816 102.81466 C 105.38625 102.81466 105.77663 102.38512 105.77663 101.89792 L 105.77714 88.927133 C 105.77714 88.439933 105.38676 88.010393 104.86867 88.010393 L 98.132133 88.010393 z M 98.128515 88.454293 L 104.87229 88.454293 C 105.12019 88.454293 105.33324 88.649921 105.33324 88.917831 L 105.33273 101.90722 C 105.33273 102.17513 105.11967 102.37076 104.87177 102.37076 L 98.127999 102.37076 C 97.880099 102.37076 97.667045 102.17513 97.667045 101.90722 L 97.667562 88.917831 C 97.667562 88.649921 97.88062 88.454293 98.128515 88.454293 z M 98.872656 88.991211 C 98.354573 88.991211 97.964184 89.420758 97.964184 89.907951 L 97.964184 90.822624 L 104.99166 90.822624 L 104.99166 89.907951 C 104.99166 89.420758 104.60127 88.991211 104.08319 88.991211 L 98.872656 88.991211 z M 98.868522 89.435112 L 104.08732 89.435112 C 104.33522 89.435112 104.54828 89.63074 104.54828 89.89865 L 104.54828 90.378724 L 98.407568 90.378724 L 98.407568 89.89865 C 98.407568 89.63074 98.620622 89.435112 98.868522 89.435112 z M 97.964184 91.816879 L 97.964184 92.731552 C 97.964184 93.218745 98.354571 93.648292 98.872656 93.648292 L 104.08319 93.648292 C 104.60127 93.648292 104.99166 93.218745 104.99166 92.731552 L 104.99166 91.816879 L 97.964184 91.816879 z M 98.407568 92.260779 L 104.54828 92.260779 L 104.54828 92.740853 C 104.54828 93.008763 104.33522 93.204391 104.08732 93.204391 L 98.868522 93.204391 C 98.620622 93.204391 98.407568 93.008763 98.407568 92.740853 L 98.407568 92.260779 z M 101.5004 95.268348 L 100.82706 95.941175 L 101.5004 96.614002 L 102.17323 95.941175 L 101.5004 95.268348 z M 102.44918 95.941175 L 102.13137 96.258985 A 0.84059906 0.84059906 0 0 1 102.34066 96.812956 A 0.84059906 0.84059906 0 0 1 101.5004 97.653732 A 0.84059906 0.84059906 0 0 1 100.65963 96.812956 A 0.84059906 0.84059906 0 0 1 100.86892 96.258985 L 100.55162 95.941692 A 1.2888099 1.2888099 0 0 0 100.21159 96.812956 A 1.2888099 1.2888099 0 0 0 101.5004 98.101766 A 1.2888099 1.2888099 0 0 0 102.78921 96.812956 A 1.2888099 1.2888099 0 0 0 102.44918 95.941175 z M 102.78818 99.809156 L 102.78818 100.47423 L 104.8232 100.47423 L 104.8232 99.809156 L 102.78818 99.809156 z M 102.78818 100.8556 L 102.78818 101.82919 L 104.8232 101.82919 L 104.8232 100.8556 L 102.78818 100.8556 z M 98.433923 102.81466 L 99.171863 102.81466 L 99.171863 103.00793 L 98.433923 103.00793 L 98.433923 102.81466 z M 103.79329 102.81466 L 104.53123 102.81466 L 104.53123 103.00793 L 103.79329 103.00793 L 103.79329 102.81466 z " /></g></svg>
