<svg width="17.638887mm" height="17.638887mm" viewBox="0 0 17.638887 17.638887" version="1.1" xmlns="http://www.w3.org/2000/svg"><path style="fill:#d4d4d4" d="m 6.2803237,0.8829772 c -0.957083,0 -1.866552,0.751891 -1.866552,1.644344 V 15.111566 c 0,0.892456 0.909469,1.644344 1.866552,1.644344 h 2.718181 2.7181803 c 0.957083,0 1.866553,-0.751888 1.866553,-1.644344 V 2.5273212 c 0,-0.892453 -0.90947,-1.644344 -1.866553,-1.644344 H 8.9985047 Z m -0.02739,0.65319 h 2.745569 2.7455693 c 0.56907,0 1.185457,0.356917 1.185457,0.991154 v 0.267168 H 8.9985027 5.0674767 v -0.267168 c 0,-0.634237 0.616386,-0.991154 1.185457,-0.991154 z m 2.224154,0.381372 c -0.134973,0.0064 -0.265617,0.111159 -0.265617,0.239262 0,0.140752 0.138237,0.239779 0.278536,0.239779 h 0.508496 0.508496 c 0.140299,0 0.278536,-0.09903 0.278536,-0.239779 0,-0.128103 -0.130644,-0.232842 -0.265617,-0.239262 -0.0043,-2.07e-4 -0.0085,0 -0.01292,0 h -0.508496 -0.508496 c -0.0044,0 -0.0086,-2.07e-4 -0.01292,0 z m -3.409611,1.35599 h 3.931026 3.9310263 V 13.923525 H 8.9985027 5.0674767 Z m -3.096969,2.124935 a 2.8061259,3.8977568 0 0 0 -1.756999,3.615283 2.8061259,3.8977568 0 0 0 1.235067,3.2266768 3.963846,5.5058498 0 0 1 -0.625285,-2.9677778 3.963846,5.5058498 0 0 1 1.147217,-3.874182 z m 13.6978723,0 a 3.963846,5.5058498 0 0 1 1.147217,3.874182 3.963846,5.5058498 0 0 1 -0.625285,2.9677778 2.8061259,3.8977568 0 0 0 1.235067,-3.2266768 2.8061259,3.8977568 0 0 0 -1.756999,-3.615283 z m -12.9092903,1.09244 a 1.9100307,2.6530653 0 0 0 -1.196309,2.460831 1.9100307,2.6530653 0 0 0 0.840775,2.1962488 2.6980499,3.7476374 0 0 1 -0.425297,-2.0200318 2.6980499,3.7476374 0 0 1 0.780831,-2.637048 z m 12.1207083,0 a 2.6980499,3.7476374 0 0 1 0.78083,2.637048 2.6980499,3.7476374 0 0 1 -0.425297,2.0200318 1.9100307,2.6530653 0 0 0 0.840776,-2.1962488 1.9100307,2.6530653 0 0 0 -1.196309,-2.460831 z M 5.0674767,14.402566 h 3.931026 3.9310263 v 0.709 c 0,0.634237 -0.616391,0.991154 -1.185457,0.991154 H 8.9985027 6.2529337 c -0.569067,0 -1.185457,-0.356917 -1.185457,-0.991154 z m 3.931026,0.147794 c -0.389877,-4.6e-5 -0.705946,0.316024 -0.7059,0.7059 -4.6e-5,0.389876 0.316023,0.705946 0.7059,0.7059 0.389876,4.6e-5 0.705946,-0.316024 0.7059,-0.7059 4.6e-5,-0.389876 -0.316024,-0.705946 -0.7059,-0.7059 z m 0,0.30179 c 0.223185,-3e-6 0.404112,0.180925 0.404109,0.40411 3e-6,0.223184 -0.180924,0.404113 -0.404109,0.40411 -0.223185,3e-6 -0.404113,-0.180926 -0.40411,-0.40411 -3e-6,-0.223185 0.180925,-0.404113 0.40411,-0.40411 z" />
</svg>
