<svg width="17.638887mm" height="17.638887mm" viewBox="0 0 17.638887 17.638887" version="1.1" xmlns="http://www.w3.org/2000/svg" ><g transform="translate(-92.680786,-86.900383)"><path style="fill:#d4d4d4;" d="M 101.95257 89.592725 L 100.20539 91.339389 L 94.503414 91.339389 C 94.016085 91.339389 93.595976 91.803899 93.595976 92.263363 L 93.595976 100.89281 C 93.595976 101.35228 94.016085 101.81679 94.503414 101.81679 L 108.49377 101.81679 C 108.9811 101.81679 109.40121 101.35228 109.40121 100.89281 L 109.40121 92.263363 C 109.40121 91.803899 108.9811 91.339389 108.49377 91.339389 L 107.65455 91.339389 L 105.90737 89.592725 L 101.95257 89.592725 z M 102.21612 90.230412 L 105.64382 90.230412 L 107.39048 91.977076 L 108.50411 91.977076 C 108.66339 91.977076 108.76301 92.102284 108.76301 92.259746 L 108.76301 100.89643 C 108.76301 101.0539 108.66341 101.1791 108.50411 101.1791 L 94.493078 101.1791 C 94.333787 101.1791 94.23418 101.0539 94.23418 100.89643 L 94.23418 92.259746 C 94.23418 92.102284 94.333783 91.977076 94.493078 91.977076 L 100.46946 91.977076 L 102.21612 90.230412 z M 94.975736 92.422527 L 94.975736 94.47098 L 98.757418 94.47098 L 98.757418 92.422527 L 94.975736 92.422527 z M 103.77158 92.479887 A 4.0473924 4.0473924 0 0 0 99.724284 96.527186 A 4.0473924 4.0473924 0 0 0 103.77158 100.57448 A 4.0473924 4.0473924 0 0 0 107.81888 96.527186 A 4.0473924 4.0473924 0 0 0 103.77158 92.479887 z M 95.390181 92.796147 L 98.342973 92.796147 L 98.342973 94.097876 L 95.390181 94.097876 L 95.390181 92.796147 z M 103.77158 93.029208 A 3.4978869 3.4978869 0 0 1 107.26956 96.527186 A 3.4978869 3.4978869 0 0 1 103.77158 100.02516 A 3.4978869 3.4978869 0 0 1 100.2736 96.527186 A 3.4978869 3.4978869 0 0 1 103.77158 93.029208 z M 103.77158 93.946465 A 2.5805025 2.5805025 0 0 0 101.19086 96.527186 A 2.5805025 2.5805025 0 0 0 103.77158 99.107907 A 2.5805025 2.5805025 0 0 0 106.3523 96.527186 A 2.5805025 2.5805025 0 0 0 103.77158 93.946465 z M 103.77158 94.39915 A 2.128099 2.128099 0 0 1 105.89962 96.527186 A 2.128099 2.128099 0 0 1 103.77158 98.655221 A 2.128099 2.128099 0 0 1 101.64355 96.527186 A 2.128099 2.128099 0 0 1 103.77158 94.39915 z M 103.57935 95.130888 L 103.57935 95.404773 A 1.2870787 1.2870787 0 0 1 104.86609 96.692033 L 105.13997 96.692033 A 1.5606932 1.5606932 0 0 0 103.57935 95.130888 z M 94.975736 96.291541 L 94.975736 96.929228 L 96.866577 96.929228 L 96.866577 96.291541 L 94.975736 96.291541 z M 96.027869 98.756507 A 1.0310714 1.0310714 0 0 0 94.996924 99.787452 A 1.0310714 1.0310714 0 0 0 96.027869 100.8184 A 1.0310714 1.0310714 0 0 0 97.058813 99.787452 A 1.0310714 1.0310714 0 0 0 96.027869 98.756507 z M 96.027869 99.076384 A 0.71107775 0.71107775 0 0 1 96.738936 99.787452 A 0.71107775 0.71107775 0 0 1 96.027869 100.49852 A 0.71107775 0.71107775 0 0 1 95.316801 99.787452 A 0.71107775 0.71107775 0 0 1 96.027869 99.076384 z " /></g></svg>
