<svg width="17.638887mm" height="17.638887mm" viewBox="0 0 17.638887 17.638887" version="1.1" xmlns="http://www.w3.org/2000/svg" ><g transform="translate(-92.680786,-86.900383)"><path style="fill:#d4d4d4;" d="M 108.67981 87.408362 L 97.455172 90.443836 L 94.694617 90.443836 C 94.118427 90.443836 93.739119 90.799428 93.739119 91.415353 L 93.739119 94.848218 L 109.26117 94.848218 L 109.26117 93.187855 C 109.26117 92.571925 108.88186 92.216338 108.30567 92.216338 L 98.378113 92.216338 L 108.67981 89.358631 L 108.67981 87.408362 z M 108.02197 88.288929 L 108.02197 88.9323 L 97.159066 91.98276 L 97.159066 92.869528 L 108.31342 92.869528 C 108.50642 92.869528 108.60746 92.995467 108.60746 93.181137 L 108.60643 94.195028 L 94.39386 94.195028 L 94.392309 91.408635 C 94.392309 91.222965 94.493353 91.097026 94.686348 91.097026 L 97.541988 91.097026 L 108.02197 88.288929 z M 93.739119 95.161894 L 93.739119 103.03842 C 93.739119 103.65435 94.118428 104.00993 94.694617 104.00993 L 108.31291 104.00993 C 108.8891 104.00993 109.2684 103.65435 109.2684 103.03842 L 109.2684 95.161894 L 93.739119 95.161894 z M 94.397477 95.815084 L 108.61005 95.815084 L 108.61521 103.04513 C 108.61521 103.2308 108.51417 103.35674 108.32117 103.35674 L 107.28713 103.35674 L 107.28713 100.9879 C 107.28713 100.42242 106.86396 99.966769 106.18539 99.966769 L 97.156482 99.966769 C 96.477904 99.966769 96.05474 100.42242 96.05474 100.9879 L 96.05474 103.35674 L 94.686348 103.35674 C 94.493359 103.35674 94.392309 103.2308 94.392309 103.04513 L 94.397477 95.815084 z M 98.772921 96.827942 L 98.772921 98.47487 L 100.41985 98.47487 L 100.41985 96.827942 L 98.772921 96.827942 z M 100.67668 96.827942 L 100.67668 98.47487 L 102.32361 98.47487 L 102.32361 96.827942 L 100.67668 96.827942 z M 102.58044 96.827942 L 102.58044 98.47487 L 104.22737 98.47487 L 104.22737 96.827942 L 102.58044 96.827942 z M 99.058175 97.113196 L 100.13511 97.113196 L 100.13511 98.190133 L 99.058175 98.190133 L 99.058175 97.113196 z M 100.96193 97.113196 L 102.03887 97.113196 L 102.03887 98.190133 L 100.96193 98.190133 L 100.96193 97.113196 z M 102.86569 97.113196 L 103.94263 97.113196 L 103.94263 98.190133 L 102.86569 98.190133 L 102.86569 97.113196 z M 97.133744 100.61996 L 106.20813 100.61996 C 106.39985 100.61996 106.63394 100.7916 106.63394 100.97549 L 106.63394 102.8467 L 105.76939 101.98267 L 97.651542 101.98267 L 96.70793 102.92628 L 96.70793 100.97549 C 96.70793 100.7916 96.94202 100.61996 97.133744 100.61996 z M 97.922327 102.63586 L 105.49913 102.63586 L 106.21949 103.35674 L 97.20144 103.35674 L 97.922327 102.63586 z " /></g></svg>
