<svg width="17.638887mm" height="17.638887mm" viewBox="0 0 17.638887 17.638887" version="1.1" xmlns="http://www.w3.org/2000/svg"><g transform="translate(-92.680786,-86.900383)"><path style="fill:#d4d4d4;" d="m 99.615591,87.281582 -3.01687,0.971 c -0.244093,0.0652 -0.367937,0.265025 -0.367937,0.536918 l 5.17e-4,0.583427 c 2.76e-4,0.255979 0.206924,0.363517 0.528133,0.449585 v 0.455786 c 0,0.118522 0.07426,0.414445 0.176217,0.414445 h 1.308964 c 0.112174,0 0.165365,-0.296943 0.165365,-0.394807 0.04883,-1.120985 0.575272,-1.270831 1.316198,-1.453142 0.253145,-0.07583 0.434682,-0.398982 0.434592,-0.773596 -2e-5,-0.436265 -0.244147,-0.789847 -0.545179,-0.789616 z m -0.418579,0.775147 v 0.337447 c -0.305245,0.105032 -0.610792,0.209191 -0.916223,0.313676 -0.441482,0.158143 -0.492477,0.60525 -0.492477,0.757576 v 0.605648 c 0,0.130624 -0.0532,0.183968 -0.203605,0.183968 -0.144579,-0.0088 -0.203605,-0.065 -0.203605,-0.183968 v -0.583944 c 0,-0.205032 -0.114837,-0.446679 -0.264067,-0.406693 l -0.264066,0.08733 v -0.337447 z m -2.269629,2.749186 c -0.118838,9e-6 -0.27529,0.276378 -0.322461,0.44235 l -1.100191,4.740796 c -0.307648,0.221531 -0.490091,0.577426 -0.49041,0.956531 4.12e-4,0.193291 0.04834,0.383527 0.139527,0.553971 l -0.538469,2.336292 c -0.923034,0.255835 -1.601263,1.108895 -1.601452,2.121835 1.07e-4,1.21542 0.976303,2.20065 2.180228,2.20038 1.203766,-5e-5 2.17961,-0.98517 2.179712,-2.20038 -3.9e-5,-0.07 -0.0038,-0.13953 -0.01033,-0.20826 l 0.873332,1.05627 h 7.554056 c 0.3356,0.81784 1.13189,1.35203 2.0159,1.35237 1.20377,-1.1e-4 2.17959,-0.97594 2.17971,-2.17971 1.7e-4,-1.20397 -0.97574,-2.180118 -2.17971,-2.180229 -1.09806,0.0012 -2.02383,0.818909 -2.16059,1.908409 h 0.70073 c 0.13085,-0.70343 0.74436,-1.21378 1.45986,-1.2144 0.82082,0 1.48622,0.6654 1.48621,1.48622 0,0.82081 -0.6654,1.48621 -1.48621,1.48621 -0.74008,-0.002 -1.36597,-0.54806 -1.46813,-1.28106 h -7.83776 l -1.899109,-2.839098 -0.543636,-0.251148 -0.150378,0.787032 c -3.61e-4,-1.26e-4 -6.78e-4,-3.99e-4 -0.001,-5.16e-4 l -0.106453,0.55139 c 0.617862,0.25006 1.022802,0.85452 1.022676,1.52652 4.2e-5,0.90816 -0.729244,1.64438 -1.628841,1.64434 -0.899588,4e-5 -1.628872,-0.73619 -1.628841,-1.64434 5e-4,-0.86847 0.669946,-1.5868 1.528589,-1.64021 l 0.666109,-2.67374 c -0.241292,-0.150037 -0.388018,-0.414021 -0.38809,-0.698148 2.16e-4,-0.421499 0.319167,-0.774536 0.738456,-0.817521 l 1.132748,-4.879806 c 0.1331,-0.133136 0.380646,-0.125783 0.506429,0 l -1.149801,4.982642 c 0.257669,0.145713 0.417147,0.418661 0.417546,0.714685 -4.44e-4,0.413628 -0.307984,0.762614 -0.718303,0.814937 h -5.16e-4 l 2.47065,3.946011 h 6.351549 c 0.23524,-1.52879 1.55017,-2.657669 3.09697,-2.658751 0.13305,3.26e-4 0.26596,0.0091 0.39791,0.02636 l -0.0816,0.60203 0.43356,0.170533 0.72761,-1.236101 c -0.40222,-0.141074 -0.82537,-0.213236 -1.25161,-0.213423 -1.66741,6.97e-4 -3.13812,1.092036 -3.622,2.687687 h -5.619291 l -2.371948,-3.132105 c 0.338557,-0.208447 0.544486,-0.58577 0.54467,-1.007173 -1.68e-4,-0.21375 -0.05844,-0.42351 -0.168465,-0.606682 l 1.182356,-5.090645 c 0.0668,-0.270603 -0.04762,-0.442354 -0.259932,-0.44235 z M 107.8063,100.99547 c -0.43609,0.002 -0.81843,0.29195 -0.93896,0.71107 h 0.90951 c 0.35636,0 0.36453,0.47697 -0.002,0.47697 h -0.92759 c 0.0968,0.45261 0.49627,0.77633 0.95911,0.77722 0.54287,9e-5 0.98298,-0.44002 0.98289,-0.98289 -1.9e-4,-0.54267 -0.44022,-0.98246 -0.98289,-0.98237 z m -12.697411,0.006 c -0.5182,0.0387 -0.918877,0.47047 -0.918807,0.99012 2.8e-5,0.54845 0.444774,0.99296 0.993221,0.9927 0.548243,-3e-5 0.992677,-0.44446 0.992704,-0.9927 -1.48e-4,-0.39509 -0.234551,-0.75247 -0.596862,-0.91002 l -0.428398,1.25832 -0.03772,-1.33842 c -0.0014,-2e-5 -0.0032,-1.1e-4 -0.0041,5.1e-4 z" /></g></svg>
