<svg width="17.638887mm" height="17.638887mm" viewBox="0 0 17.638887 17.638887" version="1.1" xmlns="http://www.w3.org/2000/svg" ><g transform="translate(-92.680786,-86.900383)"><path style="fill:#d4d4d4;" d="M 95.332821 86.975314 C 94.491286 86.972514 94.16855 87.484314 94.16855 88.149919 L 94.16855 102.84411 L 94.16855 103.26683 L 94.16855 103.38103 L 103.13338 104.35668 C 103.54752 104.47686 103.97649 104.53826 104.40772 104.5391 C 106.95076 104.53917 109.01239 102.47777 109.01261 99.93473 C 109.01253 98.08167 107.90168 96.409194 106.19366 95.690544 L 106.19366 90.247982 C 106.19366 89.287418 105.54553 88.55798 104.38188 88.323552 L 95.332821 86.975314 z M 95.433073 87.630054 L 104.38188 88.984494 C 105.08193 89.17207 105.54047 89.710765 105.54047 90.247982 L 105.54047 95.471953 C 105.17024 95.377783 104.78974 95.330042 104.40772 95.329843 C 101.86448 95.329773 99.802763 97.391494 99.802832 99.93473 C 99.803165 101.33059 100.43664 102.65094 101.52521 103.52469 L 94.821741 102.79554 L 94.821741 88.149919 C 94.821741 87.933967 94.986469 87.632476 95.433073 87.630054 z M 98.15177 89.177247 C 97.891334 89.178201 97.64031 89.226749 97.436051 89.344678 L 96.977165 91.175574 C 97.174279 91.072533 97.410935 91.030226 97.655676 91.02933 C 98.22208 91.027254 98.83213 91.252213 99.099516 91.48925 L 99.595609 89.637167 C 99.328226 89.40013 98.718171 89.175171 98.15177 89.177247 z M 99.891715 89.941024 L 99.444714 91.60914 C 99.938421 91.902256 101.02948 92.220401 101.54174 91.94917 L 101.96962 90.178219 C 101.4444 90.481474 100.35566 90.247346 99.891715 89.941024 z M 97.571444 91.366777 C 97.326612 91.367674 97.090094 91.410415 96.892932 91.513538 L 96.408724 93.44572 C 97.04554 93.078053 98.074624 93.282978 98.526941 93.626587 L 99.010115 91.822563 C 98.740266 91.587098 98.134446 91.364677 97.571444 91.366777 z M 99.341878 91.992579 L 98.804443 93.998658 C 99.119829 94.343047 100.41792 94.642836 100.9671 94.32577 L 101.44769 92.337777 C 100.93737 92.607636 99.839993 92.285335 99.341878 91.992579 z M 104.40772 98.261963 C 105.33157 98.261947 106.0805 99.010881 106.08048 99.93473 C 106.0805 100.85858 105.33157 101.60752 104.40772 101.6075 C 103.48387 101.60752 102.73493 100.85858 102.73495 99.93473 C 102.73493 99.010877 103.48387 98.261941 104.40772 98.261963 z M 104.40772 99.01799 C 103.90144 99.018052 103.49104 99.428454 103.49098 99.93473 C 103.49133 100.4408 103.90165 100.85089 104.40772 100.85095 C 104.91379 100.85089 105.32411 100.4408 105.32446 99.93473 C 105.3244 99.428454 104.914 99.018052 104.40772 99.01799 z M 104.40772 99.371456 C 104.71875 99.371583 104.97086 99.623696 104.97099 99.93473 C 104.97086 100.24576 104.71875 100.49787 104.40772 100.498 C 104.09648 100.49816 103.84406 100.24597 103.84393 99.93473 C 103.84406 99.623493 104.09648 99.371296 104.40772 99.371456 z " /></g></svg>
