<svg width="17.638887mm" height="17.638887mm" viewBox="0 0 17.638887 17.638887" version="1.1" xmlns="http://www.w3.org/2000/svg" ><g transform="translate(-92.680786,-86.900383)"><path style="fill:#d4d4d4;" d="m 96.57134,87.794987 c -0.61539,0 -0.98961,0.412197 -0.98961,0.945679 v 13.958324 c 0,0.53348 0.37422,0.94568 0.98961,0.94568 h 9.85779 c 0.61539,0 0.9896,-0.4122 0.9896,-0.94568 V 88.740666 c 0,-0.533483 -0.37421,-0.945679 -0.9896,-0.945679 z m -0.0109,0.615466 h 9.88001 c 0.21435,0 0.36277,0.09191 0.36277,0.325045 v 13.968662 c 0,0.23314 -0.14842,0.32504 -0.36277,0.32504 h -9.88001 c -0.21434,0 -0.36329,-0.0919 -0.36329,-0.32504 V 88.735498 c 0,-0.233135 0.14894,-0.325045 0.36329,-0.325045 z m 0.71675,0.218075 c -0.45748,0 -0.78342,0.254041 -0.78342,0.72192 v 12.738762 c 0,0.46787 0.32594,0.72192 0.78342,0.72192 h 8.44547 c 0.45748,0 0.78342,-0.25405 0.78342,-0.72192 V 89.350448 c 0,-0.467879 -0.32594,-0.72192 -0.78342,-0.72192 z m -5.2e-4,0.507462 h 8.44651 c 0.14566,0 0.27595,0.08267 0.27595,0.237712 v 12.692258 c 0,0.15501 -0.13029,0.23771 -0.27595,0.23771 h -8.44651 c -0.14566,0 -0.27595,-0.0827 -0.27595,-0.23771 V 89.373702 c 0,-0.155037 0.13029,-0.237712 0.27595,-0.237712 z m 0.51935,0.29714 c -0.27201,-5.5e-5 -0.49253,0.22047 -0.49248,0.492476 -5e-5,0.272008 0.22047,0.492531 0.49248,0.492477 0.27181,-2.32e-4 0.49201,-0.220671 0.49196,-0.492477 5e-5,-0.271804 -0.22015,-0.492245 -0.49196,-0.492476 z m 7.40781,0 c -0.27181,2.31e-4 -0.49201,0.220672 -0.49196,0.492476 -5e-5,0.271807 0.22015,0.492245 0.49196,0.492477 0.27201,5.5e-5 0.49253,-0.220467 0.49248,-0.492477 5e-5,-0.272008 -0.22047,-0.492532 -0.49248,-0.492476 z m -3.70365,0.496094 a 1.5209013,1.5209013 0 0 0 -1.52083,1.520837 1.5209013,1.5209013 0 0 0 1.52083,1.520838 1.5209013,1.5209013 0 0 0 1.52084,-1.520838 1.5209013,1.5209013 0 0 0 -1.52084,-1.520837 z m 0,0.292488 a 1.2281578,1.2281578 0 0 1 1.22783,1.228349 1.2281578,1.2281578 0 0 1 -1.22783,1.227832 1.2281578,1.2281578 0 0 1 -1.22835,-1.227832 1.2281578,1.2281578 0 0 1 1.22835,-1.228349 z m -0.12764,0.328146 a 0.84508971,0.8645203 0 0 0 -0.84491,0.864546 0.84508971,0.8645203 0 0 0 0.0346,0.24288 1.0928958,1.4690785 0 0 1 0.93792,-1.097608 0.84508971,0.8645203 0 0 0 -0.12764,-0.0098 z m 0.12764,3.15898 a 3.8715544,3.8715544 0 0 0 -3.87159,3.871598 3.8715544,3.8715544 0 0 0 3.87159,3.871604 3.8715544,3.8715544 0 0 0 3.8716,-3.871604 3.8715544,3.8715544 0 0 0 -3.8716,-3.871598 z m 0,0.512113 a 3.3594365,3.3594365 0 0 1 3.35949,3.359485 3.3594365,3.3594365 0 0 1 -3.35949,3.359494 3.3594365,3.3594365 0 0 1 -3.35948,-3.359494 3.3594365,3.3594365 0 0 1 3.35948,-3.359485 z m 0,0.468706 a 2.8905268,2.8905268 0 0 0 -2.89077,2.890779 2.8905268,2.8905268 0 0 0 2.89077,2.890784 2.8905268,2.8905268 0 0 0 2.89027,-2.890784 2.8905268,2.8905268 0 0 0 -2.89027,-2.890779 z m 0,0.659391 a 2.2311823,2.2311823 0 0 1 2.23139,2.231388 2.2311823,2.2311823 0 0 1 -2.23139,2.231391 2.2311823,2.2311823 0 0 1 -2.23138,-2.231391 2.2311823,2.2311823 0 0 1 2.23138,-2.231388 z m -5.1e-4,1.191142 a 1.0399907,1.0399907 0 0 0 -1.03973,1.040246 1.0399907,1.0399907 0 0 0 1.03973,1.040247 1.0399907,1.0399907 0 0 0 1.04024,-1.040247 1.0399907,1.0399907 0 0 0 -1.04024,-1.040246 z m 0,0.627868 a 0.4123013,0.4123013 0 0 1 0.41237,0.412378 0.4123013,0.4123013 0 0 1 -0.41237,0.412378 0.4123013,0.4123013 0 0 1 -0.41187,-0.412378 0.4123013,0.4123013 0 0 1 0.41187,-0.412378 z m -3.70365,3.853512 c -0.27201,-5e-5 -0.49253,0.22047 -0.49248,0.49248 -5e-5,0.27201 0.22047,0.49254 0.49248,0.49248 0.27181,-2.3e-4 0.49201,-0.22068 0.49196,-0.49248 5e-5,-0.27181 -0.22016,-0.49225 -0.49196,-0.49248 z m 7.40781,0 c -0.27181,2.3e-4 -0.49201,0.22067 -0.49196,0.49248 -5e-5,0.2718 0.22015,0.49225 0.49196,0.49248 0.27201,6e-5 0.49253,-0.22047 0.49248,-0.49248 5e-5,-0.27201 -0.22047,-0.49253 -0.49248,-0.49248 z" /></g></svg>
