<svg width="17.638887mm" height="17.638887mm" viewBox="0 0 17.638887 17.638887" version="1.1" xmlns="http://www.w3.org/2000/svg"><g transform="translate(-92.680786,-86.900383)"><path style="fill:#d4d4d4;" d="M 101.82028 87.734957 L 99.54755 90.008204 L 98.685071 88.514755 L 98.301115 88.736447 L 99.049906 90.034042 L 94.58868 90.034042 C 94.070576 90.034042 93.680208 90.463567 93.680208 90.950782 L 93.679175 101.56512 C 93.679175 102.05233 94.069554 102.48186 94.587646 102.48186 L 95.727112 102.48186 L 95.727112 103.57327 L 97.730607 103.57327 L 97.730607 102.48186 L 105.33169 102.48186 L 105.33169 103.57327 L 107.33519 103.57327 L 107.33519 102.48186 L 108.41316 102.48186 C 108.93126 102.48186 109.32163 102.05233 109.32163 101.56512 L 109.32266 90.950782 C 109.32266 90.463568 108.93229 90.034042 108.41419 90.034042 L 100.14906 90.034042 L 102.13447 88.048633 L 101.82028 87.734957 z M 94.585063 90.477942 L 108.41781 90.477942 C 108.66571 90.477942 108.87825 90.673576 108.87825 90.94148 L 108.87721 101.57442 C 108.87721 101.84233 108.66468 102.03796 108.41678 102.03796 L 94.584029 102.03796 C 94.336129 102.03796 94.123075 101.84233 94.123075 101.57442 L 94.124109 90.94148 C 94.124109 90.673576 94.337158 90.477942 94.585063 90.477942 z M 95.806177 91.294947 C 95.288077 91.294947 94.897705 91.724471 94.897705 92.211687 L 94.897705 100.3254 C 94.897705 100.81262 95.288076 101.24214 95.806177 101.24214 L 104.37051 101.24214 C 104.88861 101.24214 105.27898 100.81262 105.27898 100.3254 L 105.27898 92.211687 C 105.27898 91.724471 104.88861 91.294947 104.37051 91.294947 L 95.806177 91.294947 z M 95.802559 91.738847 L 104.37413 91.738847 C 104.62203 91.738847 104.83508 91.934478 104.83508 92.202385 L 104.83508 100.33471 C 104.83508 100.60254 104.62203 100.79824 104.37413 100.79824 L 95.802559 100.79824 C 95.554669 100.79824 95.341605 100.60254 95.341605 100.33471 L 95.341605 92.202385 C 95.341605 91.934478 95.554669 91.738847 95.802559 91.738847 z M 106.11666 91.814295 L 106.11666 92.685043 L 106.56056 92.685043 L 106.56056 91.814295 L 106.11666 91.814295 z M 107.07319 91.814295 L 107.07319 92.685043 L 107.51709 92.685043 L 107.51709 91.814295 L 107.07319 91.814295 z M 108.02972 91.814295 L 108.02972 92.685043 L 108.47362 92.685043 L 108.47362 91.814295 L 108.02972 91.814295 z M 97.471191 92.194117 L 95.922965 93.764047 L 96.492956 93.764047 L 97.471191 92.785812 L 97.471191 92.194117 z M 97.83396 93.337716 L 96.285734 94.907646 L 96.855725 94.907646 L 97.83396 93.929411 L 97.83396 93.337716 z M 106.11666 93.533053 L 106.11666 94.403801 L 106.56056 94.403801 L 106.56056 93.533053 L 106.11666 93.533053 z M 107.07319 93.533053 L 107.07319 94.403801 L 107.51709 94.403801 L 107.51709 93.533053 L 107.07319 93.533053 z M 108.02972 93.533053 L 108.02972 94.403801 L 108.47362 94.403801 L 108.47362 93.533053 L 108.02972 93.533053 z M 106.11666 95.252328 L 106.11666 96.123076 L 106.56056 96.123076 L 106.56056 95.252328 L 106.11666 95.252328 z M 107.07319 95.252328 L 107.07319 96.123076 L 107.51709 96.123076 L 107.51709 95.252328 L 107.07319 95.252328 z M 108.02972 95.252328 L 108.02972 96.123076 L 108.47362 96.123076 L 108.47362 95.252328 L 108.02972 95.252328 z M 107.23752 97.73383 A 1.3189522 1.3189522 0 0 0 105.91874 99.052613 A 1.3189522 1.3189522 0 0 0 107.23752 100.37191 A 1.3189522 1.3189522 0 0 0 108.55682 99.052613 A 1.3189522 1.3189522 0 0 0 107.23752 97.73383 z M 107.23752 98.107968 A 0.94504118 0.94504118 0 0 1 108.18268 99.052613 A 0.94504118 0.94504118 0 0 1 107.23752 99.997775 A 0.94504118 0.94504118 0 0 1 106.29288 99.052613 A 0.94504118 0.94504118 0 0 1 107.23752 98.107968 z M 96.171012 102.48186 L 97.286706 102.48186 L 97.286706 103.12937 L 96.171012 103.12937 L 96.171012 102.48186 z M 105.77559 102.48186 L 106.89129 102.48186 L 106.89129 103.12937 L 105.77559 103.12937 L 105.77559 102.48186 z " /></g></svg>
