<svg width="17.638887mm" height="17.638887mm" viewBox="0 0 17.638887 17.638887" version="1.1" xmlns="http://www.w3.org/2000/svg" ><g transform="translate(-92.680786,-86.900383)"><path style="fill:#d4d4d4;" d="m 98.687226,87.179264 -0.835091,3.116089 h 7.295685 l -0.8351,-3.116089 z m 0.476973,0.621667 h 4.672071 l 0.50178,1.872754 h -5.675629 z m -1.210779,2.875794 c -0.858287,0 -1.578198,0.74455 -1.578198,1.563729 v 7.000606 c 0,0.81918 0.719911,1.56373 1.578198,1.56373 h 7.09363 c 0.85829,0 1.57819,-0.74455 1.57819,-1.56373 v -7.000606 c 0,-0.819179 -0.7199,-1.563729 -1.57819,-1.563729 z m -0.03359,0.621667 h 7.161319 c 0.4987,0 0.92243,0.386012 0.92243,0.926559 v 7.031612 c 0,0.540546 -0.42373,0.926557 -0.92243,0.926557 h -7.161319 c -0.49869,0 -0.922941,-0.386011 -0.922941,-0.926557 v -7.031612 c 0,-0.540547 0.424246,-0.926559 0.922941,-0.926559 z m 1.400431,3.201355 a 1.2832806,1.2832806 0 0 0 -1.283643,1.283643 1.2832806,1.2832806 0 0 0 1.283643,1.283126 1.2832806,1.2832806 0 0 0 1.089858,-0.607715 1.2832806,1.2832806 0 0 0 1.09037,0.607715 1.2832806,1.2832806 0 0 0 1.08986,-0.607715 1.2832806,1.2832806 0 0 0 1.09037,0.607715 1.2832806,1.2832806 0 0 0 1.28313,-1.283126 1.2832806,1.2832806 0 0 0 -1.28313,-1.283643 1.2832806,1.2832806 0 0 0 -1.08985,0.607198 1.2832806,1.2832806 0 0 0 -1.09038,-0.607198 1.2832806,1.2832806 0 0 0 -1.08985,0.607198 1.2832806,1.2832806 0 0 0 -1.090378,-0.607198 z m 0,0.38654 a 0.89668226,0.89668226 0 0 1 0.896588,0.897103 0.89668226,0.89668226 0 0 1 -0.896588,0.896586 0.89668226,0.89668226 0 0 1 -0.897103,-0.896586 0.89668226,0.89668226 0 0 1 0.897103,-0.897103 z m 2.180228,0 a 0.89668226,0.89668226 0 0 1 0.89659,0.897103 0.89668226,0.89668226 0 0 1 -0.89659,0.896586 0.89668226,0.89668226 0 0 1 -0.8971,-0.896586 0.89668226,0.89668226 0 0 1 0.8971,-0.897103 z m 2.18023,0 a 0.89668226,0.89668226 0 0 1 0.89659,0.897103 0.89668226,0.89668226 0 0 1 -0.89659,0.896586 0.89668226,0.89668226 0 0 1 -0.8971,-0.896586 0.89668226,0.89668226 0 0 1 0.8971,-0.897103 z m -5.828069,6.258013 0.835091,3.11609 h 5.625498 l 0.83509,-3.11609 z m 0.810287,0.62167 h 5.675112 l -0.50178,1.87275 h -4.671554 z" /></g></svg>
