<svg width="19.402779mm" height="19.402779mm" viewBox="0 0 19.402779 19.402779" version="1.1" xmlns="http://www.w3.org/2000/svg" ><g transform="translate(-85.597221,-100.31938)"><path style="fill:#BF333B;" d="M 90.624304 100.34108 C 89.945498 100.31801 89.080535 100.8234 88.918465 101.34154 L 87.598649 106.26785 L 87.117542 106.26785 C 86.449807 106.26785 85.597221 107.03773 85.597221 107.69877 L 85.597221 116.30342 C 85.597221 116.9645 86.449812 117.73434 87.117542 117.73434 L 100.69604 117.73434 C 101.36377 117.73434 102.21636 116.9645 102.21636 116.30342 L 102.21636 114.62187 C 102.47499 114.44134 102.67674 114.2071 102.74449 113.95421 L 104.97123 105.64257 C 105.14233 105.00403 104.51807 104.03979 103.87311 103.86697 L 90.757113 100.35297 C 90.713775 100.34658 90.669558 100.34262 90.624304 100.34108 z M 90.349902 101.04492 C 90.417854 101.04383 90.488961 101.04905 90.562809 101.0599 L 90.563326 101.0599 L 103.68759 104.57648 C 104.07656 104.68071 104.37117 105.04888 104.26637 105.44 L 102.21636 113.09069 L 102.21636 107.69877 C 102.21636 107.03773 101.36377 106.26785 100.69604 106.26785 L 88.357259 106.26785 L 89.63005 101.51827 C 89.816333 101.17679 90.055447 101.04964 90.349902 101.04492 z M 87.112891 107.00114 L 100.70069 107.00114 C 101.10338 107.00114 101.48307 107.28042 101.48307 107.68534 L 101.48307 108.4641 L 86.33051 108.4641 L 86.33051 107.68534 C 86.33051 107.28042 86.710206 107.00114 87.112891 107.00114 z M 86.33051 109.19739 L 101.48307 109.19739 L 101.48307 110.9177 L 86.33051 110.9177 L 86.33051 109.19739 z M 86.33051 111.65099 L 101.48307 111.65099 L 101.48307 116.31685 C 101.48307 116.72177 101.10338 117.00105 100.70069 117.00105 L 87.112891 117.00105 C 86.710211 117.00105 86.33051 116.72177 86.33051 116.31685 L 86.33051 111.65099 z M 96.833744 112.68452 C 96.255349 112.68452 95.749056 113.20533 95.749056 113.81468 L 95.749056 114.73039 C 95.749056 115.33974 96.255349 115.86055 96.833744 115.86055 L 99.328166 115.86055 C 99.906561 115.86055 100.41285 115.33974 100.41285 114.73039 L 100.41285 113.81468 C 100.41285 113.20533 99.906561 112.68452 99.328166 112.68452 L 96.833744 112.68452 z M 96.838395 113.41781 L 99.323515 113.41781 C 99.522328 113.41781 99.679566 113.57604 99.679566 113.79866 L 99.679566 114.74641 C 99.679566 114.96903 99.522328 115.12726 99.323515 115.12726 L 96.838395 115.12726 C 96.639585 115.12726 96.482345 114.96903 96.482345 114.74641 L 96.482345 113.79866 C 96.482345 113.57604 96.639585 113.41781 96.838395 113.41781 z " /></g></svg>
