<svg width="19.402779mm" height="19.402779mm" viewBox="0 0 19.402779 19.402779" version="1.1" xmlns="http://www.w3.org/2000/svg" ><g transform="translate(-85.597221,-100.31938)"><path style="fill:#BF333B;" d="M 100.48365 100.31938 C 98.655805 100.32033 97.008736 101.42293 96.311296 103.11249 L 88.776872 103.11249 L 88.043583 103.11249 L 88.043583 103.84578 L 88.043583 114.58208 L 85.597221 114.58208 L 85.597221 116.61038 C 85.597221 117.83871 86.820568 118.92806 87.92111 118.92806 L 97.871407 118.92806 L 97.871407 118.92755 C 99.290406 118.91275 100.38753 117.79676 100.38753 116.61038 L 100.38753 109.34725 C 100.41953 109.34925 100.45165 109.35142 100.48365 109.35242 C 102.97808 109.35248 105.00023 107.33033 105.00017 104.8359 C 105.00023 102.34147 102.97808 100.31932 100.48365 100.31938 z M 100.48365 100.8904 C 102.66272 100.89033 104.42922 102.65683 104.42915 104.8359 C 104.42922 107.01497 102.66272 108.78147 100.48365 108.7814 C 98.304589 108.78147 96.538084 107.01497 96.538155 104.8359 C 96.538084 102.65683 98.304589 100.89033 100.48365 100.8904 z M 100.07386 101.93065 L 100.07386 102.39212 C 99.446547 102.55473 98.983454 103.12473 98.983484 103.80289 C 98.983484 104.36165 99.158508 104.63469 99.460457 104.80903 C 99.910154 105.06866 100.60235 104.97335 101.03556 105.22347 C 101.32849 105.39264 101.47898 105.57096 101.47894 105.92524 C 101.47898 106.43983 101.04113 106.74692 100.52654 106.74689 C 100.01214 106.74664 99.595295 106.32956 99.595333 105.81517 C 99.595417 105.77437 99.598101 105.73367 99.603601 105.69321 L 99.125077 105.41726 C 99.088367 105.54671 99.069754 105.68062 99.069784 105.81517 C 99.069759 106.49334 99.532771 107.06335 100.16016 107.22594 L 100.16016 107.68741 L 100.89344 107.68741 L 100.89344 107.22594 C 101.52074 107.06333 101.98385 106.49333 101.98382 105.81517 C 101.98382 105.25641 101.77966 104.96654 101.50684 104.80903 L 101.50633 104.80903 C 101.0088 104.52178 100.36443 104.6447 99.93123 104.39458 C 99.63822 104.22541 99.487806 104.0471 99.487846 103.69282 C 99.487806 103.17823 99.925676 102.87113 100.44024 102.87116 C 100.95464 102.87141 101.37149 103.2885 101.37145 103.80289 C 101.37137 103.84369 101.3687 103.88439 101.3637 103.92484 L 101.84222 104.2008 C 101.87892 104.07135 101.89752 103.93744 101.89752 103.80289 C 101.89754 103.12472 101.4345 102.55471 100.80715 102.39212 L 100.80715 101.93065 L 100.07386 101.93065 z M 88.776872 103.84578 L 96.077718 103.84578 C 96.004458 104.17073 95.967367 104.50279 95.967131 104.8359 C 95.967966 105.44098 96.088703 106.02208 96.308712 106.55414 L 93.359021 106.55414 L 93.359021 107.28743 L 96.695252 107.28743 C 97.350502 108.2965 98.401077 109.03513 99.654244 109.26922 L 99.654244 116.59487 C 99.654244 117.40616 98.868928 118.19477 97.825932 118.19477 C 96.808132 118.15907 96.072323 117.50991 96.031726 116.59487 L 96.031726 114.58208 L 88.776872 114.58208 L 88.776872 103.84578 z M 91.511072 105.8193 A 1.1015254 1.1015254 0 0 0 90.409847 106.92053 A 1.1015254 1.1015254 0 0 0 91.511072 108.02227 A 1.1015254 1.1015254 0 0 0 92.612813 106.92053 A 1.1015254 1.1015254 0 0 0 91.511072 105.8193 z M 91.511072 106.27716 A 0.64352655 0.64352655 0 0 1 92.15496 106.92053 A 0.64352655 0.64352655 0 0 1 91.511072 107.56442 A 0.64352655 0.64352655 0 0 1 90.8677 106.92053 A 0.64352655 0.64352655 0 0 1 91.511072 106.27716 z M 91.511072 108.5225 A 1.1015254 1.1015254 0 0 0 90.409847 109.62372 A 1.1015254 1.1015254 0 0 0 91.511072 110.72546 A 1.1015254 1.1015254 0 0 0 92.612813 109.62372 A 1.1015254 1.1015254 0 0 0 91.511072 108.5225 z M 91.511072 108.98035 A 0.64352655 0.64352655 0 0 1 92.15496 109.62372 A 0.64352655 0.64352655 0 0 1 91.511072 110.26761 A 0.64352655 0.64352655 0 0 1 90.8677 109.62372 A 0.64352655 0.64352655 0 0 1 91.511072 108.98035 z M 93.359021 109.25682 L 93.359021 109.99011 L 97.912232 109.99011 L 97.912232 109.25682 L 93.359021 109.25682 z M 91.511072 111.22517 A 1.1015254 1.1015254 0 0 0 90.409847 112.3264 A 1.1015254 1.1015254 0 0 0 91.511072 113.42814 A 1.1015254 1.1015254 0 0 0 92.612813 112.3264 A 1.1015254 1.1015254 0 0 0 91.511072 111.22517 z M 91.511072 111.68303 A 0.64352655 0.64352655 0 0 1 92.15496 112.3264 A 0.64352655 0.64352655 0 0 1 91.511072 112.97029 A 0.64352655 0.64352655 0 0 1 90.8677 112.3264 A 0.64352655 0.64352655 0 0 1 91.511072 111.68303 z M 93.359021 111.96001 L 93.359021 112.6933 L 97.912232 112.6933 L 97.912232 111.96001 L 93.359021 111.96001 z M 86.33051 115.31536 L 95.298438 115.31536 L 95.298438 116.61038 C 95.298438 117.2259 95.577186 117.78186 96.012089 118.19477 L 87.906124 118.19477 C 87.327551 118.19477 86.33051 117.41388 86.33051 116.59436 L 86.33051 115.31536 z " /></g></svg>
