<svg width="19.402779mm" height="19.402779mm" viewBox="0 0 19.402779 19.402779" version="1.1" xmlns="http://www.w3.org/2000/svg"><g transform="translate(-85.597221,-100.31938)"><path style="fill:#BF333B;" d="M 102.16675 101.05835 L 85.959473 105.40124 L 86.590959 107.75769 L 85.597221 107.75769 L 85.597221 118.36324 L 102.37604 118.36324 L 102.37604 111.98172 L 104.91129 111.30269 L 102.16675 101.05835 z M 101.64844 101.95597 L 104.01367 110.78437 L 102.37604 111.22311 L 102.37604 107.75769 L 101.65102 105.05346 C 101.25976 105.1583 98.93997 103.80599 98.839307 103.4303 L 90.026925 105.79191 C 90.089675 106.0261 89.595525 107.01686 89.119487 107.75769 L 87.350086 107.75769 L 86.857609 105.91904 L 101.64844 101.95597 z M 98.735954 104.21733 C 98.845744 104.62706 100.61984 105.6448 101.0216 105.53715 L 101.61692 107.75769 L 89.993335 107.75769 C 90.30896 107.22916 90.567419 106.63717 90.509583 106.42133 L 98.735954 104.21733 z M 86.33051 108.49046 L 101.64327 108.49046 L 101.64327 117.62995 L 86.33051 117.62995 L 86.33051 108.49046 z M 89.424894 109.18757 C 89.424894 109.57652 87.533956 111.48304 87.12891 111.48304 L 87.12891 114.63685 C 87.533957 114.63685 89.424894 116.54337 89.424894 116.93232 L 98.548368 116.93232 C 98.548368 116.54337 100.4393 114.63685 100.84435 114.63685 L 100.84435 111.48304 C 100.4393 111.48304 98.548368 109.57652 98.548368 109.18757 L 89.424894 109.18757 z M 89.728235 109.92086 L 98.245028 109.92086 C 98.245028 110.34506 99.69513 111.78741 100.11106 111.78741 L 100.11106 114.33248 C 99.69513 114.33248 98.245028 115.77483 98.245028 116.19903 L 89.728235 116.19903 C 89.728235 115.77483 88.278141 114.33248 87.862199 114.33248 L 87.862199 111.78741 C 88.278141 111.78741 89.728235 110.34506 89.728235 109.92086 z M 93.910409 110.83192 A 2.2029963 2.2029963 0 0 0 91.707442 113.03488 A 2.2029963 2.2029963 0 0 0 93.910409 115.23785 A 2.2029963 2.2029963 0 0 0 96.113375 113.03488 A 2.2029963 2.2029963 0 0 0 93.910409 110.83192 z M 93.910409 111.46754 A 1.5675948 1.5675948 0 0 1 95.477755 113.03488 A 1.5675948 1.5675948 0 0 1 93.910409 114.60223 A 1.5675948 1.5675948 0 0 1 92.342546 113.03488 A 1.5675948 1.5675948 0 0 1 93.910409 111.46754 z M 89.75459 112.39926 A 0.63568509 0.63568509 0 0 0 89.118453 113.03488 A 0.63568509 0.63568509 0 0 0 89.75459 113.6705 A 0.63568509 0.63568509 0 0 0 90.39021 113.03488 A 0.63568509 0.63568509 0 0 0 89.75459 112.39926 z M 98.066227 112.39926 A 0.63568509 0.63568509 0 0 0 97.430607 113.03488 A 0.63568509 0.63568509 0 0 0 98.066227 113.6705 A 0.63568509 0.63568509 0 0 0 98.702364 113.03488 A 0.63568509 0.63568509 0 0 0 98.066227 112.39926 z " /></g></svg>
