<?xml version="1.0" encoding="UTF-8" standalone="no"?><svg width="75" height="75" viewBox="0 0 19.84375 19.84375" version="1.1" xmlns="http://www.w3.org/2000/svg"><defs
 /><g><rect style="fill:#ffffff;stroke-width:0.264583" width="19.84375" height="19.84375" x="0" y="0"/><path style="fill:#a20000;fill-opacity:1;stroke-width:0.0191982" d="m 9.9218554,5.0077139 c -2.0495174,1.06e-5 -3.7109806,1.6614737 -3.7109909,3.7109923 0,3.4042208 2.6423869,4.2664248 3.7110069,6.1173298 1.0686206,-1.850905 3.7110136,-2.713109 3.7110136,-6.1173298 -10e-6,-2.0495329 -1.661497,-3.7110029 -3.7110296,-3.7109923 z m 0,1.5742531 c 1.1800996,-1.36e-5 2.1367686,0.9566392 2.1367756,2.1367392 -7e-6,1.180099 -0.956676,2.1367518 -2.1367756,2.1367378 -1.1800839,-8e-6 -2.1367302,-0.9566528 -2.1367373,-2.1367378 6.5e-6,-1.180086 0.9566533,-2.1367321 2.1367373,-2.1367392 z" /></g></svg>
